<ttFont>
<head>
    <!-- Most of this table will be recalculated by the compiler -->
    <tableVersion value="1.0"/>
    <fontRevision value="5.0"/>
    <checkSumAdjustment value="0x58043ec0"/>
    <magicNumber value="0x5f0f3cf5"/>
    <flags value="00000000 00001011"/>
    <unitsPerEm value="2048"/>
    <created value="Sun May 15 08:57:39 2005"/>
    <modified value="Wed Apr 13 18:42:25 2011"/>
    <xMin value="-78"/>
    <yMin value="-969"/>
    <xMax value="6720"/>
    <yMax value="2297"/>
    <macStyle value="00000000 00000000"/>
    <lowestRecPPEM value="8"/>
    <fontDirectionHint value="2"/>
    <indexToLocFormat value="1"/>
    <glyphDataFormat value="0"/>
  </head>
    <TTGlyph name=".notdef" xMin="142" yMin="226" xMax="842" yMax="1588">
      <contour>
        <pt x="142" y="226" on="1"/>
        <pt x="142" y="1588" on="1"/>
        <pt x="842" y="1588" on="1"/>
        <pt x="842" y="226" on="1"/>
      </contour>
      <contour>
        <pt x="284" y="368" on="1"/>
        <pt x="700" y="368" on="1"/>
        <pt x="700" y="1447" on="1"/>
        <pt x="284" y="1447" on="1"/>
      </contour>
    </TTGlyph>
    <TTGlyph name=".null" xMin="142" yMin="226" xMax="842" yMax="1588">
      <contour>
        <pt x="142" y="226" on="1"/>
        <pt x="142" y="1588" on="1"/>
        <pt x="842" y="1588" on="1"/>
        <pt x="842" y="226" on="1"/>
      </contour>
      <contour>
        <pt x="284" y="368" on="1"/>
        <pt x="700" y="368" on="1"/>
        <pt x="700" y="1447" on="1"/>
        <pt x="284" y="1447" on="1"/>
      </contour>
    </TTGlyph>
    <TTGlyph name="afii57381" xMin="142" yMin="226" xMax="842" yMax="1588">
      <contour>
        <pt x="142" y="226" on="1"/>
        <pt x="142" y="1588" on="1"/>
        <pt x="842" y="1588" on="1"/>
        <pt x="842" y="226" on="1"/>
      </contour>
      <contour>
        <pt x="284" y="368" on="1"/>
        <pt x="700" y="368" on="1"/>
        <pt x="700" y="1447" on="1"/>
        <pt x="284" y="1447" on="1"/>
      </contour>
    </TTGlyph>
    <TTGlyph name="afii57388" xMin="142" yMin="226" xMax="842" yMax="1588">
      <contour>
        <pt x="142" y="226" on="1"/>
        <pt x="142" y="1588" on="1"/>
        <pt x="842" y="1588" on="1"/>
        <pt x="842" y="226" on="1"/>
      </contour>
      <contour>
        <pt x="284" y="368" on="1"/>
        <pt x="700" y="368" on="1"/>
        <pt x="700" y="1447" on="1"/>
        <pt x="284" y="1447" on="1"/>
      </contour>
    </TTGlyph>
    <TTGlyph name="afii57396" xMin="142" yMin="226" xMax="842" yMax="1588">
      <contour>
        <pt x="142" y="226" on="1"/>
        <pt x="142" y="1588" on="1"/>
        <pt x="842" y="1588" on="1"/>
        <pt x="842" y="226" on="1"/>
      </contour>
      <contour>
        <pt x="284" y="368" on="1"/>
        <pt x="700" y="368" on="1"/>
        <pt x="700" y="1447" on="1"/>
        <pt x="284" y="1447" on="1"/>
      </contour>
    </TTGlyph>
    <TTGlyph name="afii57397" xMin="142" yMin="226" xMax="842" yMax="1588">
      <contour>
        <pt x="142" y="226" on="1"/>
        <pt x="142" y="1588" on="1"/>
        <pt x="842" y="1588" on="1"/>
        <pt x="842" y="226" on="1"/>
      </contour>
      <contour>
        <pt x="284" y="368" on="1"/>
        <pt x="700" y="368" on="1"/>
        <pt x="700" y="1447" on="1"/>
        <pt x="284" y="1447" on="1"/>
      </contour>
    </TTGlyph>
    <TTGlyph name="afii57398" xMin="142" yMin="226" xMax="842" yMax="1588">
      <contour>
        <pt x="142" y="226" on="1"/>
        <pt x="142" y="1588" on="1"/>
        <pt x="842" y="1588" on="1"/>
        <pt x="842" y="226" on="1"/>
      </contour>
      <contour>
        <pt x="284" y="368" on="1"/>
        <pt x="700" y="368" on="1"/>
        <pt x="700" y="1447" on="1"/>
        <pt x="284" y="1447" on="1"/>
      </contour>
    </TTGlyph>
    <TTGlyph name="afii57403" xMin="142" yMin="226" xMax="842" yMax="1588">
      <contour>
        <pt x="142" y="226" on="1"/>
        <pt x="142" y="1588" on="1"/>
        <pt x="842" y="1588" on="1"/>
        <pt x="842" y="226" on="1"/>
      </contour>
      <contour>
        <pt x="284" y="368" on="1"/>
        <pt x="700" y="368" on="1"/>
        <pt x="700" y="1447" on="1"/>
        <pt x="284" y="1447" on="1"/>
      </contour>
    </TTGlyph>
    <TTGlyph name="afii57407" xMin="142" yMin="226" xMax="842" yMax="1588">
      <contour>
        <pt x="142" y="226" on="1"/>
        <pt x="142" y="1588" on="1"/>
        <pt x="842" y="1588" on="1"/>
        <pt x="842" y="226" on="1"/>
      </contour>
      <contour>
        <pt x="284" y="368" on="1"/>
        <pt x="700" y="368" on="1"/>
        <pt x="700" y="1447" on="1"/>
        <pt x="284" y="1447" on="1"/>
      </contour>
    </TTGlyph>
    <TTGlyph name="afii57440" xMin="142" yMin="226" xMax="842" yMax="1588">
      <contour>
        <pt x="142" y="226" on="1"/>
        <pt x="142" y="1588" on="1"/>
        <pt x="842" y="1588" on="1"/>
        <pt x="842" y="226" on="1"/>
      </contour>
      <contour>
        <pt x="284" y="368" on="1"/>
        <pt x="700" y="368" on="1"/>
        <pt x="700" y="1447" on="1"/>
        <pt x="284" y="1447" on="1"/>
      </contour>
    </TTGlyph>
    <TTGlyph name="afii57451" xMin="142" yMin="226" xMax="842" yMax="1588">
      <contour>
        <pt x="142" y="226" on="1"/>
        <pt x="142" y="1588" on="1"/>
        <pt x="842" y="1588" on="1"/>
        <pt x="842" y="226" on="1"/>
      </contour>
      <contour>
        <pt x="284" y="368" on="1"/>
        <pt x="700" y="368" on="1"/>
        <pt x="700" y="1447" on="1"/>
        <pt x="284" y="1447" on="1"/>
      </contour>
    </TTGlyph>
    <TTGlyph name="afii57452" xMin="142" yMin="226" xMax="842" yMax="1588">
      <contour>
        <pt x="142" y="226" on="1"/>
        <pt x="142" y="1588" on="1"/>
        <pt x="842" y="1588" on="1"/>
        <pt x="842" y="226" on="1"/>
      </contour>
      <contour>
        <pt x="284" y="368" on="1"/>
        <pt x="700" y="368" on="1"/>
        <pt x="700" y="1447" on="1"/>
        <pt x="284" y="1447" on="1"/>
      </contour>
    </TTGlyph>
    <TTGlyph name="afii57453" xMin="142" yMin="226" xMax="842" yMax="1588">
      <contour>
        <pt x="142" y="226" on="1"/>
        <pt x="142" y="1588" on="1"/>
        <pt x="842" y="1588" on="1"/>
        <pt x="842" y="226" on="1"/>
      </contour>
      <contour>
        <pt x="284" y="368" on="1"/>
        <pt x="700" y="368" on="1"/>
        <pt x="700" y="1447" on="1"/>
        <pt x="284" y="1447" on="1"/>
      </contour>
    </TTGlyph>
    <TTGlyph name="afii57454" xMin="142" yMin="226" xMax="842" yMax="1588">
      <contour>
        <pt x="142" y="226" on="1"/>
        <pt x="142" y="1588" on="1"/>
        <pt x="842" y="1588" on="1"/>
        <pt x="842" y="226" on="1"/>
      </contour>
      <contour>
        <pt x="284" y="368" on="1"/>
        <pt x="700" y="368" on="1"/>
        <pt x="700" y="1447" on="1"/>
        <pt x="284" y="1447" on="1"/>
      </contour>
    </TTGlyph>
    <TTGlyph name="afii57455" xMin="142" yMin="226" xMax="842" yMax="1588">
      <contour>
        <pt x="142" y="226" on="1"/>
        <pt x="142" y="1588" on="1"/>
        <pt x="842" y="1588" on="1"/>
        <pt x="842" y="226" on="1"/>
      </contour>
      <contour>
        <pt x="284" y="368" on="1"/>
        <pt x="700" y="368" on="1"/>
        <pt x="700" y="1447" on="1"/>
        <pt x="284" y="1447" on="1"/>
      </contour>
    </TTGlyph>
    <TTGlyph name="afii57456" xMin="142" yMin="226" xMax="842" yMax="1588">
      <contour>
        <pt x="142" y="226" on="1"/>
        <pt x="142" y="1588" on="1"/>
        <pt x="842" y="1588" on="1"/>
        <pt x="842" y="226" on="1"/>
      </contour>
      <contour>
        <pt x="284" y="368" on="1"/>
        <pt x="700" y="368" on="1"/>
        <pt x="700" y="1447" on="1"/>
        <pt x="284" y="1447" on="1"/>
      </contour>
    </TTGlyph>
    <TTGlyph name="afii57457" xMin="142" yMin="226" xMax="842" yMax="1588">
      <contour>
        <pt x="142" y="226" on="1"/>
        <pt x="142" y="1588" on="1"/>
        <pt x="842" y="1588" on="1"/>
        <pt x="842" y="226" on="1"/>
      </contour>
      <contour>
        <pt x="284" y="368" on="1"/>
        <pt x="700" y="368" on="1"/>
        <pt x="700" y="1447" on="1"/>
        <pt x="284" y="1447" on="1"/>
      </contour>
    </TTGlyph>
    <TTGlyph name="afii57458" xMin="142" yMin="226" xMax="842" yMax="1588">
      <contour>
        <pt x="142" y="226" on="1"/>
        <pt x="142" y="1588" on="1"/>
        <pt x="842" y="1588" on="1"/>
        <pt x="842" y="226" on="1"/>
      </contour>
      <contour>
        <pt x="284" y="368" on="1"/>
        <pt x="700" y="368" on="1"/>
        <pt x="700" y="1447" on="1"/>
        <pt x="284" y="1447" on="1"/>
      </contour>
    </TTGlyph>
    <TTGlyph name="afii57505" xMin="142" yMin="226" xMax="842" yMax="1588">
      <contour>
        <pt x="142" y="226" on="1"/>
        <pt x="142" y="1588" on="1"/>
        <pt x="842" y="1588" on="1"/>
        <pt x="842" y="226" on="1"/>
      </contour>
      <contour>
        <pt x="284" y="368" on="1"/>
        <pt x="700" y="368" on="1"/>
        <pt x="700" y="1447" on="1"/>
        <pt x="284" y="1447" on="1"/>
      </contour>
    </TTGlyph>
    <TTGlyph name="afii57506" xMin="142" yMin="226" xMax="842" yMax="1588">
      <contour>
        <pt x="142" y="226" on="1"/>
        <pt x="142" y="1588" on="1"/>
        <pt x="842" y="1588" on="1"/>
        <pt x="842" y="226" on="1"/>
      </contour>
      <contour>
        <pt x="284" y="368" on="1"/>
        <pt x="700" y="368" on="1"/>
        <pt x="700" y="1447" on="1"/>
        <pt x="284" y="1447" on="1"/>
      </contour>
    </TTGlyph>
    <TTGlyph name="afii57507" xMin="142" yMin="226" xMax="842" yMax="1588">
      <contour>
        <pt x="142" y="226" on="1"/>
        <pt x="142" y="1588" on="1"/>
        <pt x="842" y="1588" on="1"/>
        <pt x="842" y="226" on="1"/>
      </contour>
      <contour>
        <pt x="284" y="368" on="1"/>
        <pt x="700" y="368" on="1"/>
        <pt x="700" y="1447" on="1"/>
        <pt x="284" y="1447" on="1"/>
      </contour>
    </TTGlyph>
    <TTGlyph name="afii57508" xMin="142" yMin="226" xMax="842" yMax="1588">
      <contour>
        <pt x="142" y="226" on="1"/>
        <pt x="142" y="1588" on="1"/>
        <pt x="842" y="1588" on="1"/>
        <pt x="842" y="226" on="1"/>
      </contour>
      <contour>
        <pt x="284" y="368" on="1"/>
        <pt x="700" y="368" on="1"/>
        <pt x="700" y="1447" on="1"/>
        <pt x="284" y="1447" on="1"/>
      </contour>
    </TTGlyph>
    <TTGlyph name="afii57509" xMin="142" yMin="226" xMax="842" yMax="1588">
      <contour>
        <pt x="142" y="226" on="1"/>
        <pt x="142" y="1588" on="1"/>
        <pt x="842" y="1588" on="1"/>
        <pt x="842" y="226" on="1"/>
      </contour>
      <contour>
        <pt x="284" y="368" on="1"/>
        <pt x="700" y="368" on="1"/>
        <pt x="700" y="1447" on="1"/>
        <pt x="284" y="1447" on="1"/>
      </contour>
    </TTGlyph>
    <TTGlyph name="afii57511" xMin="142" yMin="226" xMax="842" yMax="1588">
      <contour>
        <pt x="142" y="226" on="1"/>
        <pt x="142" y="1588" on="1"/>
        <pt x="842" y="1588" on="1"/>
        <pt x="842" y="226" on="1"/>
      </contour>
      <contour>
        <pt x="284" y="368" on="1"/>
        <pt x="700" y="368" on="1"/>
        <pt x="700" y="1447" on="1"/>
        <pt x="284" y="1447" on="1"/>
      </contour>
    </TTGlyph>
    <TTGlyph name="afii57512" xMin="142" yMin="226" xMax="842" yMax="1588">
      <contour>
        <pt x="142" y="226" on="1"/>
        <pt x="142" y="1588" on="1"/>
        <pt x="842" y="1588" on="1"/>
        <pt x="842" y="226" on="1"/>
      </contour>
      <contour>
        <pt x="284" y="368" on="1"/>
        <pt x="700" y="368" on="1"/>
        <pt x="700" y="1447" on="1"/>
        <pt x="284" y="1447" on="1"/>
      </contour>
    </TTGlyph>
    <TTGlyph name="afii57513" xMin="142" yMin="226" xMax="842" yMax="1588">
      <contour>
        <pt x="142" y="226" on="1"/>
        <pt x="142" y="1588" on="1"/>
        <pt x="842" y="1588" on="1"/>
        <pt x="842" y="226" on="1"/>
      </contour>
      <contour>
        <pt x="284" y="368" on="1"/>
        <pt x="700" y="368" on="1"/>
        <pt x="700" y="1447" on="1"/>
        <pt x="284" y="1447" on="1"/>
      </contour>
    </TTGlyph>
    <TTGlyph name="afii57514" xMin="142" yMin="226" xMax="842" yMax="1588">
      <contour>
        <pt x="142" y="226" on="1"/>
        <pt x="142" y="1588" on="1"/>
        <pt x="842" y="1588" on="1"/>
        <pt x="842" y="226" on="1"/>
      </contour>
      <contour>
        <pt x="284" y="368" on="1"/>
        <pt x="700" y="368" on="1"/>
        <pt x="700" y="1447" on="1"/>
        <pt x="284" y="1447" on="1"/>
      </contour>
    </TTGlyph>
    <TTGlyph name="afii57519" xMin="142" yMin="226" xMax="842" yMax="1588">
      <contour>
        <pt x="142" y="226" on="1"/>
        <pt x="142" y="1588" on="1"/>
        <pt x="842" y="1588" on="1"/>
        <pt x="842" y="226" on="1"/>
      </contour>
      <contour>
        <pt x="284" y="368" on="1"/>
        <pt x="700" y="368" on="1"/>
        <pt x="700" y="1447" on="1"/>
        <pt x="284" y="1447" on="1"/>
      </contour>
    </TTGlyph>
    <TTGlyph name="afii57534" xMin="142" yMin="226" xMax="842" yMax="1588">
      <contour>
        <pt x="142" y="226" on="1"/>
        <pt x="142" y="1588" on="1"/>
        <pt x="842" y="1588" on="1"/>
        <pt x="842" y="226" on="1"/>
      </contour>
      <contour>
        <pt x="284" y="368" on="1"/>
        <pt x="700" y="368" on="1"/>
        <pt x="700" y="1447" on="1"/>
        <pt x="284" y="1447" on="1"/>
      </contour>
    </TTGlyph>
    <TTGlyph name="afii63167" xMin="142" yMin="226" xMax="842" yMax="1588">
      <contour>
        <pt x="142" y="226" on="1"/>
        <pt x="142" y="1588" on="1"/>
        <pt x="842" y="1588" on="1"/>
        <pt x="842" y="226" on="1"/>
      </contour>
      <contour>
        <pt x="284" y="368" on="1"/>
        <pt x="700" y="368" on="1"/>
        <pt x="700" y="1447" on="1"/>
        <pt x="284" y="1447" on="1"/>
      </contour>
    </TTGlyph>
    <TTGlyph name="alefmaksurainitial" xMin="142" yMin="226" xMax="842" yMax="1588">
      <contour>
        <pt x="142" y="226" on="1"/>
        <pt x="142" y="1588" on="1"/>
        <pt x="842" y="1588" on="1"/>
        <pt x="842" y="226" on="1"/>
      </contour>
      <contour>
        <pt x="284" y="368" on="1"/>
        <pt x="700" y="368" on="1"/>
        <pt x="700" y="1447" on="1"/>
        <pt x="284" y="1447" on="1"/>
      </contour>
    </TTGlyph>
    <TTGlyph name="alefwaslafinalarabic" xMin="142" yMin="226" xMax="842" yMax="1588">
      <contour>
        <pt x="142" y="226" on="1"/>
        <pt x="142" y="1588" on="1"/>
        <pt x="842" y="1588" on="1"/>
        <pt x="842" y="226" on="1"/>
      </contour>
      <contour>
        <pt x="284" y="368" on="1"/>
        <pt x="700" y="368" on="1"/>
        <pt x="700" y="1447" on="1"/>
        <pt x="284" y="1447" on="1"/>
      </contour>
    </TTGlyph>
    <TTGlyph name="ampersand" xMin="142" yMin="226" xMax="842" yMax="1588">
      <contour>
        <pt x="142" y="226" on="1"/>
        <pt x="142" y="1588" on="1"/>
        <pt x="842" y="1588" on="1"/>
        <pt x="842" y="226" on="1"/>
      </contour>
      <contour>
        <pt x="284" y="368" on="1"/>
        <pt x="700" y="368" on="1"/>
        <pt x="700" y="1447" on="1"/>
        <pt x="284" y="1447" on="1"/>
      </contour>
    </TTGlyph>
    <TTGlyph name="asterisk" xMin="142" yMin="226" xMax="842" yMax="1588">
      <contour>
        <pt x="142" y="226" on="1"/>
        <pt x="142" y="1588" on="1"/>
        <pt x="842" y="1588" on="1"/>
        <pt x="842" y="226" on="1"/>
      </contour>
      <contour>
        <pt x="284" y="368" on="1"/>
        <pt x="700" y="368" on="1"/>
        <pt x="700" y="1447" on="1"/>
        <pt x="284" y="1447" on="1"/>
      </contour>
    </TTGlyph>
    <TTGlyph name="behmeemisolatedarabic" xMin="142" yMin="226" xMax="842" yMax="1588">
      <contour>
        <pt x="142" y="226" on="1"/>
        <pt x="142" y="1588" on="1"/>
        <pt x="842" y="1588" on="1"/>
        <pt x="842" y="226" on="1"/>
      </contour>
      <contour>
        <pt x="284" y="368" on="1"/>
        <pt x="700" y="368" on="1"/>
        <pt x="700" y="1447" on="1"/>
        <pt x="284" y="1447" on="1"/>
      </contour>
    </TTGlyph>
    <TTGlyph name="behnoonfinalarabic" xMin="142" yMin="226" xMax="842" yMax="1588">
      <contour>
        <pt x="142" y="226" on="1"/>
        <pt x="142" y="1588" on="1"/>
        <pt x="842" y="1588" on="1"/>
        <pt x="842" y="226" on="1"/>
      </contour>
      <contour>
        <pt x="284" y="368" on="1"/>
        <pt x="700" y="368" on="1"/>
        <pt x="700" y="1447" on="1"/>
        <pt x="284" y="1447" on="1"/>
      </contour>
    </TTGlyph>
    <TTGlyph name="colon" xMin="142" yMin="226" xMax="842" yMax="1588">
      <contour>
        <pt x="142" y="226" on="1"/>
        <pt x="142" y="1588" on="1"/>
        <pt x="842" y="1588" on="1"/>
        <pt x="842" y="226" on="1"/>
      </contour>
      <contour>
        <pt x="284" y="368" on="1"/>
        <pt x="700" y="368" on="1"/>
        <pt x="700" y="1447" on="1"/>
        <pt x="284" y="1447" on="1"/>
      </contour>
    </TTGlyph>
    <TTGlyph name="dagger" xMin="142" yMin="226" xMax="842" yMax="1588">
      <contour>
        <pt x="142" y="226" on="1"/>
        <pt x="142" y="1588" on="1"/>
        <pt x="842" y="1588" on="1"/>
        <pt x="842" y="226" on="1"/>
      </contour>
      <contour>
        <pt x="284" y="368" on="1"/>
        <pt x="700" y="368" on="1"/>
        <pt x="700" y="1447" on="1"/>
        <pt x="284" y="1447" on="1"/>
      </contour>
    </TTGlyph>
    <TTGlyph name="dalringfinal" xMin="142" yMin="226" xMax="842" yMax="1588">
      <contour>
        <pt x="142" y="226" on="1"/>
        <pt x="142" y="1588" on="1"/>
        <pt x="842" y="1588" on="1"/>
        <pt x="842" y="226" on="1"/>
      </contour>
      <contour>
        <pt x="284" y="368" on="1"/>
        <pt x="700" y="368" on="1"/>
        <pt x="700" y="1447" on="1"/>
        <pt x="284" y="1447" on="1"/>
      </contour>
    </TTGlyph>
    <TTGlyph name="ddalfinalarabic" xMin="142" yMin="226" xMax="842" yMax="1588">
      <contour>
        <pt x="142" y="226" on="1"/>
        <pt x="142" y="1588" on="1"/>
        <pt x="842" y="1588" on="1"/>
        <pt x="842" y="226" on="1"/>
      </contour>
      <contour>
        <pt x="284" y="368" on="1"/>
        <pt x="700" y="368" on="1"/>
        <pt x="700" y="1447" on="1"/>
        <pt x="284" y="1447" on="1"/>
      </contour>
    </TTGlyph>
    <TTGlyph name="divide" xMin="142" yMin="226" xMax="842" yMax="1588">
      <contour>
        <pt x="142" y="226" on="1"/>
        <pt x="142" y="1588" on="1"/>
        <pt x="842" y="1588" on="1"/>
        <pt x="842" y="226" on="1"/>
      </contour>
      <contour>
        <pt x="284" y="368" on="1"/>
        <pt x="700" y="368" on="1"/>
        <pt x="700" y="1447" on="1"/>
        <pt x="284" y="1447" on="1"/>
      </contour>
    </TTGlyph>
    <TTGlyph name="dollar" xMin="142" yMin="226" xMax="842" yMax="1588">
      <contour>
        <pt x="142" y="226" on="1"/>
        <pt x="142" y="1588" on="1"/>
        <pt x="842" y="1588" on="1"/>
        <pt x="842" y="226" on="1"/>
      </contour>
      <contour>
        <pt x="284" y="368" on="1"/>
        <pt x="700" y="368" on="1"/>
        <pt x="700" y="1447" on="1"/>
        <pt x="284" y="1447" on="1"/>
      </contour>
    </TTGlyph>
    <TTGlyph name="dotlessyehfinalarabic" xMin="142" yMin="226" xMax="842" yMax="1588">
      <contour>
        <pt x="142" y="226" on="1"/>
        <pt x="142" y="1588" on="1"/>
        <pt x="842" y="1588" on="1"/>
        <pt x="842" y="226" on="1"/>
      </contour>
      <contour>
        <pt x="284" y="368" on="1"/>
        <pt x="700" y="368" on="1"/>
        <pt x="700" y="1447" on="1"/>
        <pt x="284" y="1447" on="1"/>
      </contour>
    </TTGlyph>
    <TTGlyph name="dotlessyehinitialarabic" xMin="142" yMin="226" xMax="842" yMax="1588">
      <contour>
        <pt x="142" y="226" on="1"/>
        <pt x="142" y="1588" on="1"/>
        <pt x="842" y="1588" on="1"/>
        <pt x="842" y="226" on="1"/>
      </contour>
      <contour>
        <pt x="284" y="368" on="1"/>
        <pt x="700" y="368" on="1"/>
        <pt x="700" y="1447" on="1"/>
        <pt x="284" y="1447" on="1"/>
      </contour>
    </TTGlyph>
    <TTGlyph name="dotlessyehmedialarabic" xMin="142" yMin="226" xMax="842" yMax="1588">
      <contour>
        <pt x="142" y="226" on="1"/>
        <pt x="142" y="1588" on="1"/>
        <pt x="842" y="1588" on="1"/>
        <pt x="842" y="226" on="1"/>
      </contour>
      <contour>
        <pt x="284" y="368" on="1"/>
        <pt x="700" y="368" on="1"/>
        <pt x="700" y="1447" on="1"/>
        <pt x="284" y="1447" on="1"/>
      </contour>
    </TTGlyph>
    <TTGlyph name="elefmaksuramedial" xMin="142" yMin="226" xMax="842" yMax="1588">
      <contour>
        <pt x="142" y="226" on="1"/>
        <pt x="142" y="1588" on="1"/>
        <pt x="842" y="1588" on="1"/>
        <pt x="842" y="226" on="1"/>
      </contour>
      <contour>
        <pt x="284" y="368" on="1"/>
        <pt x="700" y="368" on="1"/>
        <pt x="700" y="1447" on="1"/>
        <pt x="284" y="1447" on="1"/>
      </contour>
    </TTGlyph>
    <TTGlyph name="ellipsis" xMin="142" yMin="226" xMax="842" yMax="1588">
      <contour>
        <pt x="142" y="226" on="1"/>
        <pt x="142" y="1588" on="1"/>
        <pt x="842" y="1588" on="1"/>
        <pt x="842" y="226" on="1"/>
      </contour>
      <contour>
        <pt x="284" y="368" on="1"/>
        <pt x="700" y="368" on="1"/>
        <pt x="700" y="1447" on="1"/>
        <pt x="284" y="1447" on="1"/>
      </contour>
    </TTGlyph>
    <TTGlyph name="emdash" xMin="509" yMin="-432" xMax="2557" yMax="1810">
      <contour>
        <pt x="2375" y="1313" on="1"/>
        <pt x="2375" y="1278" on="0"/>
        <pt x="2246" y="1149" on="1"/>
        <pt x="2160" y="1065" on="0"/>
        <pt x="2074" y="981" on="1"/>
        <pt x="2056" y="981" on="1"/>
        <pt x="2049" y="995" on="0"/>
        <pt x="2049" y="1022" on="1"/>
        <pt x="2049" y="1015" on="0"/>
        <pt x="2056" y="1071" on="1"/>
        <pt x="2189" y="1199" on="0"/>
        <pt x="2345" y="1349" on="1"/>
        <pt x="2363" y="1349" on="1"/>
        <pt x="2375" y="1325" on="0"/>
      </contour>
      <contour>
        <pt x="1803" y="930" on="1"/>
        <pt x="1803" y="900" on="0"/>
        <pt x="1786" y="868" on="1"/>
        <pt x="1770" y="837" on="0"/>
        <pt x="1760" y="837" on="1"/>
        <pt x="1739" y="837" on="0"/>
        <pt x="1713" y="867" on="1"/>
        <pt x="1686" y="899" on="0"/>
        <pt x="1686" y="930" on="1"/>
        <pt x="1686" y="963" on="0"/>
        <pt x="1705" y="999" on="1"/>
        <pt x="1723" y="1032" on="0"/>
        <pt x="1734" y="1032" on="1"/>
        <pt x="1754" y="1032" on="0"/>
        <pt x="1780" y="989" on="1"/>
        <pt x="1803" y="949" on="0"/>
      </contour>
      <contour>
        <pt x="2557" y="314" on="1"/>
        <pt x="2555" y="172" on="0"/>
        <pt x="2480" y="172" on="1"/>
        <pt x="2474" y="172" on="0"/>
        <pt x="2418" y="182" on="0"/>
        <pt x="2410" y="182" on="1"/>
        <pt x="2382" y="182" on="0"/>
        <pt x="2224" y="93" on="1"/>
        <pt x="2074" y="8" on="0"/>
        <pt x="1947" y="8" on="1"/>
        <pt x="1886" y="8" on="0"/>
        <pt x="1884" y="9" on="1"/>
        <pt x="1828" y="35" on="0"/>
        <pt x="1773" y="62" on="1"/>
        <pt x="1769" y="64" on="0"/>
        <pt x="1745" y="90" on="0"/>
        <pt x="1739" y="90" on="1"/>
        <pt x="1734" y="90" on="0"/>
        <pt x="1698" y="64" on="1"/>
        <pt x="1660" y="35" on="0"/>
        <pt x="1646" y="31" on="1"/>
        <pt x="1606" y="18" on="0"/>
        <pt x="1557" y="18" on="1"/>
        <pt x="1509" y="18" on="0"/>
        <pt x="1506" y="21" on="1"/>
        <pt x="1487" y="37" on="0"/>
        <pt x="1459" y="102" on="1"/>
        <pt x="1435" y="161" on="0"/>
        <pt x="1429" y="161" on="1"/>
        <pt x="1423" y="161" on="0"/>
        <pt x="1397" y="127" on="1"/>
        <pt x="1367" y="85" on="0"/>
        <pt x="1353" y="72" on="1"/>
        <pt x="1331" y="53" on="0"/>
        <pt x="1249" y="16" on="1"/>
        <pt x="1161" y="-22" on="0"/>
        <pt x="1130" y="-22" on="1"/>
        <pt x="1123" y="-22" on="0"/>
        <pt x="936" y="-12" on="0"/>
        <pt x="929" y="-12" on="1"/>
        <pt x="924" y="-12" on="0"/>
        <pt x="867" y="-22" on="0"/>
        <pt x="859" y="-22" on="1"/>
        <pt x="853" y="-22" on="0"/>
        <pt x="806" y="-43" on="0"/>
        <pt x="800" y="-43" on="1"/>
        <pt x="732" y="-43" on="0"/>
        <pt x="693" y="-30" on="1"/>
        <pt x="664" y="-20" on="0"/>
        <pt x="649" y="-12" on="1"/>
        <pt x="619" y="4" on="0"/>
        <pt x="602" y="32" on="1"/>
        <pt x="574" y="78" on="0"/>
        <pt x="562" y="179" on="1"/>
        <pt x="558" y="215" on="0"/>
        <pt x="550" y="340" on="1"/>
        <pt x="542" y="469" on="0"/>
        <pt x="528" y="729" on="1"/>
        <pt x="527" y="770" on="0"/>
        <pt x="517" y="895" on="1"/>
        <pt x="509" y="1012" on="0"/>
        <pt x="509" y="1022" on="1"/>
        <pt x="509" y="1104" on="0"/>
        <pt x="545" y="1144" on="1"/>
        <pt x="569" y="1057" on="0"/>
        <pt x="574" y="879" on="1"/>
        <pt x="581" y="691" on="0"/>
        <pt x="593" y="640" on="1"/>
        <pt x="590" y="618" on="0"/>
        <pt x="590" y="578" on="1"/>
        <pt x="593" y="562" on="0"/>
        <pt x="602" y="374" on="1"/>
        <pt x="608" y="254" on="0"/>
        <pt x="657" y="148" on="0"/>
        <pt x="690" y="136" on="1"/>
        <pt x="702" y="131" on="0"/>
        <pt x="745" y="131" on="1"/>
        <pt x="873" y="131" on="0"/>
        <pt x="873" y="300" on="1"/>
        <pt x="873" y="383" on="0"/>
        <pt x="861" y="497" on="1"/>
        <pt x="853" y="572" on="0"/>
        <pt x="844" y="647" on="1"/>
        <pt x="839" y="755" on="0"/>
        <pt x="822" y="964" on="1"/>
        <pt x="821" y="978" on="0"/>
        <pt x="809" y="1021" on="1"/>
        <pt x="798" y="1059" on="0"/>
        <pt x="798" y="1073" on="1"/>
        <pt x="798" y="1173" on="0"/>
        <pt x="843" y="1257" on="1"/>
        <pt x="859" y="1239" on="0"/>
        <pt x="862" y="1207" on="1"/>
        <pt x="867" y="1157" on="0"/>
        <pt x="868" y="1152" on="1"/>
        <pt x="872" y="1138" on="0"/>
        <pt x="892" y="1108" on="1"/>
        <pt x="910" y="1080" on="0"/>
        <pt x="910" y="1067" on="1"/>
        <pt x="910" y="1055" on="0"/>
        <pt x="902" y="1025" on="1"/>
        <pt x="892" y="985" on="0"/>
        <pt x="890" y="974" on="1"/>
        <pt x="889" y="967" on="0"/>
        <pt x="889" y="914" on="1"/>
        <pt x="889" y="904" on="0"/>
        <pt x="901" y="780" on="1"/>
        <pt x="914" y="636" on="0"/>
        <pt x="919" y="577" on="1"/>
        <pt x="924" y="499" on="0"/>
        <pt x="924" y="294" on="1"/>
        <pt x="1023" y="440" on="0"/>
        <pt x="1031" y="451" on="1"/>
        <pt x="1091" y="530" on="0"/>
        <pt x="1130" y="530" on="1"/>
        <pt x="1159" y="530" on="0"/>
        <pt x="1203" y="487" on="1"/>
        <pt x="1252" y="438" on="0"/>
        <pt x="1252" y="387" on="1"/>
        <pt x="1252" y="303" on="0"/>
        <pt x="1204" y="157" on="1"/>
        <pt x="1213" y="141" on="1"/>
        <pt x="1273" y="170" on="0"/>
        <pt x="1333" y="199" on="1"/>
        <pt x="1404" y="244" on="0"/>
        <pt x="1447" y="365" on="1"/>
        <pt x="1471" y="365" on="1"/>
        <pt x="1470" y="343" on="0"/>
        <pt x="1470" y="324" on="1"/>
        <pt x="1470" y="228" on="0"/>
        <pt x="1502" y="195" on="1"/>
        <pt x="1525" y="172" on="0"/>
        <pt x="1581" y="172" on="1"/>
        <pt x="1655" y="172" on="0"/>
        <pt x="1673" y="211" on="1"/>
        <pt x="1678" y="233" on="0"/>
        <pt x="1678" y="259" on="1"/>
        <pt x="1678" y="264" on="0"/>
        <pt x="1672" y="297" on="1"/>
        <pt x="1667" y="326" on="0"/>
        <pt x="1670" y="342" on="1"/>
        <pt x="1720" y="643" on="0"/>
        <pt x="1800" y="643" on="1"/>
        <pt x="1845" y="643" on="0"/>
        <pt x="1869" y="556" on="1"/>
        <pt x="1889" y="489" on="0"/>
        <pt x="1889" y="418" on="1"/>
        <pt x="1889" y="380" on="0"/>
        <pt x="1867" y="242" on="0"/>
        <pt x="1857" y="208" on="1"/>
        <pt x="1885" y="161" on="0"/>
        <pt x="1975" y="161" on="1"/>
        <pt x="2120" y="161" on="0"/>
        <pt x="2242" y="260" on="1"/>
        <pt x="2203" y="346" on="0"/>
        <pt x="2151" y="346" on="1"/>
        <pt x="2146" y="346" on="0"/>
        <pt x="2108" y="336" on="1"/>
        <pt x="2062" y="324" on="0"/>
        <pt x="2017" y="317" on="1"/>
        <pt x="2022" y="398" on="0"/>
        <pt x="2069" y="478" on="1"/>
        <pt x="2113" y="551" on="0"/>
        <pt x="2143" y="551" on="1"/>
        <pt x="2162" y="551" on="0"/>
        <pt x="2240" y="478" on="1"/>
        <pt x="2280" y="438" on="0"/>
        <pt x="2320" y="399" on="1"/>
        <pt x="2351" y="370" on="0"/>
        <pt x="2415" y="338" on="1"/>
        <pt x="2451" y="338" on="0"/>
        <pt x="2488" y="338" on="1"/>
        <pt x="2534" y="336" on="0"/>
      </contour>
      <contour>
        <pt x="985" y="1784" on="1"/>
        <pt x="985" y="1736" on="0"/>
        <pt x="962" y="1710" on="1"/>
        <pt x="953" y="1700" on="0"/>
        <pt x="875" y="1629" on="1"/>
        <pt x="820" y="1580" on="0"/>
        <pt x="785" y="1524" on="1"/>
        <pt x="767" y="1524" on="1"/>
        <pt x="760" y="1537" on="0"/>
        <pt x="760" y="1559" on="1"/>
        <pt x="760" y="1625" on="0"/>
        <pt x="854" y="1720" on="1"/>
        <pt x="912" y="1777" on="0"/>
        <pt x="960" y="1810" on="1"/>
        <pt x="979" y="1810" on="1"/>
        <pt x="985" y="1808" on="0"/>
      </contour>
      <contour>
        <pt x="1937" y="-160" on="1"/>
        <pt x="1937" y="-208" on="0"/>
        <pt x="1919" y="-224" on="1"/>
        <pt x="1857" y="-282" on="0"/>
        <pt x="1661" y="-432" on="1"/>
        <pt x="1654" y="-420" on="0"/>
        <pt x="1649" y="-420" on="1"/>
        <pt x="1649" y="-376" on="1"/>
        <pt x="1648" y="-340" on="0"/>
        <pt x="1665" y="-323" on="1"/>
        <pt x="1728" y="-265" on="0"/>
        <pt x="1912" y="-126" on="1"/>
        <pt x="1931" y="-126" on="1"/>
        <pt x="1931" y="-129" on="0"/>
        <pt x="1937" y="-146" on="0"/>
      </contour>
      <contour>
        <pt x="1140" y="848" on="1"/>
        <pt x="1140" y="820" on="0"/>
        <pt x="1097" y="745" on="0"/>
        <pt x="1087" y="745" on="1"/>
        <pt x="1069" y="745" on="0"/>
        <pt x="1017" y="823" on="0"/>
        <pt x="1017" y="842" on="1"/>
        <pt x="1017" y="861" on="0"/>
        <pt x="1055" y="940" on="0"/>
        <pt x="1068" y="940" on="1"/>
        <pt x="1081" y="940" on="0"/>
        <pt x="1140" y="867" on="0"/>
      </contour>
      <contour>
        <pt x="867" y="1463" on="1"/>
        <pt x="669" y="1278" on="0"/>
        <pt x="661" y="1279" on="1"/>
        <pt x="632" y="1279" on="1"/>
        <pt x="632" y="1333" on="1"/>
        <pt x="632" y="1364" on="0"/>
        <pt x="694" y="1413" on="1"/>
        <pt x="733" y="1443" on="0"/>
        <pt x="773" y="1474" on="1"/>
        <pt x="825" y="1534" on="0"/>
        <pt x="839" y="1534" on="1"/>
        <pt x="861" y="1534" on="1"/>
        <pt x="867" y="1520" on="1"/>
      </contour>
      <contour>
        <pt x="1546" y="-280" on="1"/>
        <pt x="1548" y="-312" on="0"/>
        <pt x="1534" y="-355" on="1"/>
        <pt x="1518" y="-401" on="0"/>
        <pt x="1501" y="-401" on="1"/>
        <pt x="1495" y="-401" on="0"/>
        <pt x="1441" y="-350" on="0"/>
        <pt x="1434" y="-350" on="1"/>
        <pt x="1428" y="-350" on="0"/>
        <pt x="1393" y="-412" on="0"/>
        <pt x="1386" y="-412" on="1"/>
        <pt x="1371" y="-412" on="0"/>
        <pt x="1339" y="-375" on="1"/>
        <pt x="1306" y="-337" on="0"/>
        <pt x="1306" y="-314" on="1"/>
        <pt x="1306" y="-294" on="0"/>
        <pt x="1324" y="-252" on="1"/>
        <pt x="1343" y="-207" on="0"/>
        <pt x="1357" y="-207" on="1"/>
        <pt x="1364" y="-207" on="0"/>
        <pt x="1412" y="-268" on="0"/>
        <pt x="1418" y="-268" on="1"/>
        <pt x="1424" y="-268" on="0"/>
        <pt x="1465" y="-196" on="0"/>
        <pt x="1472" y="-196" on="1"/>
        <pt x="1486" y="-196" on="0"/>
      </contour>
      <contour>
        <pt x="1836" y="366" on="1"/>
        <pt x="1836" y="389" on="0"/>
        <pt x="1821" y="436" on="1"/>
        <pt x="1805" y="489" on="0"/>
        <pt x="1790" y="489" on="1"/>
        <pt x="1769" y="489" on="0"/>
        <pt x="1745" y="435" on="1"/>
        <pt x="1723" y="385" on="0"/>
        <pt x="1723" y="356" on="1"/>
        <pt x="1723" y="330" on="0"/>
        <pt x="1753" y="274" on="0"/>
        <pt x="1768" y="274" on="1"/>
        <pt x="1836" y="321" on="0"/>
      </contour>
      <contour>
        <pt x="1177" y="287" on="1"/>
        <pt x="1177" y="324" on="1"/>
        <pt x="1121" y="366" on="0"/>
        <pt x="1097" y="366" on="1"/>
        <pt x="1067" y="366" on="0"/>
        <pt x="1014" y="288" on="1"/>
        <pt x="976" y="225" on="0"/>
        <pt x="937" y="164" on="1"/>
        <pt x="993" y="164" on="1"/>
        <pt x="1006" y="161" on="0"/>
        <pt x="1116" y="215" on="1"/>
        <pt x="1130" y="222" on="0"/>
        <pt x="1149" y="248" on="1"/>
        <pt x="1163" y="267" on="0"/>
      </contour>
    </TTGlyph>
    <TTGlyph name="endash" xMin="509" yMin="-432" xMax="1533" yMax="1810">
      <contour>
        <pt x="1442" y="1313" on="1"/>
        <pt x="1442" y="1278" on="0"/>
        <pt x="1377" y="1149" on="1"/>
        <pt x="1334" y="1065" on="0"/>
        <pt x="1291" y="981" on="1"/>
        <pt x="1282" y="981" on="1"/>
        <pt x="1279" y="995" on="0"/>
        <pt x="1279" y="1022" on="1"/>
        <pt x="1279" y="1015" on="0"/>
        <pt x="1283" y="1071" on="1"/>
        <pt x="1349" y="1199" on="0"/>
        <pt x="1427" y="1349" on="1"/>
        <pt x="1436" y="1349" on="1"/>
        <pt x="1442" y="1325" on="0"/>
      </contour>
      <contour>
        <pt x="1156" y="930" on="1"/>
        <pt x="1156" y="900" on="0"/>
        <pt x="1147" y="868" on="1"/>
        <pt x="1139" y="837" on="0"/>
        <pt x="1135" y="837" on="1"/>
        <pt x="1124" y="837" on="0"/>
        <pt x="1111" y="867" on="1"/>
        <pt x="1097" y="899" on="0"/>
        <pt x="1097" y="930" on="1"/>
        <pt x="1097" y="963" on="0"/>
        <pt x="1107" y="999" on="1"/>
        <pt x="1116" y="1032" on="0"/>
        <pt x="1121" y="1032" on="1"/>
        <pt x="1132" y="1032" on="0"/>
        <pt x="1144" y="989" on="1"/>
        <pt x="1156" y="949" on="0"/>
      </contour>
      <contour>
        <pt x="1533" y="314" on="1"/>
        <pt x="1532" y="172" on="0"/>
        <pt x="1494" y="172" on="1"/>
        <pt x="1492" y="172" on="0"/>
        <pt x="1463" y="182" on="0"/>
        <pt x="1460" y="182" on="1"/>
        <pt x="1446" y="182" on="0"/>
        <pt x="1366" y="93" on="1"/>
        <pt x="1291" y="8" on="0"/>
        <pt x="1228" y="8" on="1"/>
        <pt x="1198" y="8" on="0"/>
        <pt x="1196" y="9" on="1"/>
        <pt x="1169" y="35" on="0"/>
        <pt x="1141" y="62" on="1"/>
        <pt x="1139" y="64" on="0"/>
        <pt x="1127" y="90" on="0"/>
        <pt x="1124" y="90" on="1"/>
        <pt x="1121" y="90" on="0"/>
        <pt x="1104" y="64" on="1"/>
        <pt x="1084" y="35" on="0"/>
        <pt x="1078" y="31" on="1"/>
        <pt x="1057" y="18" on="0"/>
        <pt x="1033" y="18" on="1"/>
        <pt x="1009" y="18" on="0"/>
        <pt x="1007" y="21" on="1"/>
        <pt x="998" y="37" on="0"/>
        <pt x="984" y="102" on="1"/>
        <pt x="972" y="161" on="0"/>
        <pt x="969" y="161" on="1"/>
        <pt x="966" y="161" on="0"/>
        <pt x="953" y="127" on="1"/>
        <pt x="938" y="85" on="0"/>
        <pt x="931" y="72" on="1"/>
        <pt x="920" y="53" on="0"/>
        <pt x="879" y="16" on="1"/>
        <pt x="835" y="-22" on="0"/>
        <pt x="819" y="-22" on="1"/>
        <pt x="816" y="-22" on="0"/>
        <pt x="722" y="-12" on="0"/>
        <pt x="719" y="-12" on="1"/>
        <pt x="716" y="-12" on="0"/>
        <pt x="688" y="-22" on="0"/>
        <pt x="684" y="-22" on="1"/>
        <pt x="681" y="-22" on="0"/>
        <pt x="658" y="-43" on="0"/>
        <pt x="655" y="-43" on="1"/>
        <pt x="621" y="-43" on="0"/>
        <pt x="601" y="-30" on="1"/>
        <pt x="586" y="-20" on="0"/>
        <pt x="579" y="-12" on="1"/>
        <pt x="564" y="4" on="0"/>
        <pt x="556" y="32" on="1"/>
        <pt x="542" y="78" on="0"/>
        <pt x="535" y="179" on="1"/>
        <pt x="533" y="215" on="0"/>
        <pt x="529" y="340" on="1"/>
        <pt x="525" y="469" on="0"/>
        <pt x="519" y="729" on="1"/>
        <pt x="518" y="770" on="0"/>
        <pt x="513" y="895" on="1"/>
        <pt x="509" y="1012" on="0"/>
        <pt x="509" y="1022" on="1"/>
        <pt x="509" y="1104" on="0"/>
        <pt x="527" y="1144" on="1"/>
        <pt x="539" y="1057" on="0"/>
        <pt x="542" y="879" on="1"/>
        <pt x="545" y="691" on="0"/>
        <pt x="551" y="640" on="1"/>
        <pt x="550" y="618" on="0"/>
        <pt x="550" y="578" on="1"/>
        <pt x="551" y="562" on="0"/>
        <pt x="556" y="374" on="1"/>
        <pt x="559" y="254" on="0"/>
        <pt x="583" y="148" on="0"/>
        <pt x="599" y="136" on="1"/>
        <pt x="605" y="131" on="0"/>
        <pt x="627" y="131" on="1"/>
        <pt x="691" y="131" on="0"/>
        <pt x="691" y="300" on="1"/>
        <pt x="691" y="383" on="0"/>
        <pt x="685" y="497" on="1"/>
        <pt x="681" y="572" on="0"/>
        <pt x="676" y="647" on="1"/>
        <pt x="674" y="755" on="0"/>
        <pt x="666" y="964" on="1"/>
        <pt x="665" y="978" on="0"/>
        <pt x="659" y="1021" on="1"/>
        <pt x="653" y="1059" on="0"/>
        <pt x="653" y="1073" on="1"/>
        <pt x="653" y="1173" on="0"/>
        <pt x="676" y="1257" on="1"/>
        <pt x="684" y="1239" on="0"/>
        <pt x="686" y="1207" on="1"/>
        <pt x="688" y="1157" on="0"/>
        <pt x="689" y="1152" on="1"/>
        <pt x="691" y="1138" on="0"/>
        <pt x="700" y="1108" on="1"/>
        <pt x="710" y="1080" on="0"/>
        <pt x="710" y="1067" on="1"/>
        <pt x="710" y="1055" on="0"/>
        <pt x="706" y="1025" on="1"/>
        <pt x="700" y="985" on="0"/>
        <pt x="699" y="974" on="1"/>
        <pt x="699" y="967" on="0"/>
        <pt x="699" y="914" on="1"/>
        <pt x="699" y="904" on="0"/>
        <pt x="705" y="780" on="1"/>
        <pt x="712" y="636" on="0"/>
        <pt x="714" y="577" on="1"/>
        <pt x="717" y="499" on="0"/>
        <pt x="717" y="294" on="1"/>
        <pt x="766" y="440" on="0"/>
        <pt x="770" y="451" on="1"/>
        <pt x="800" y="530" on="0"/>
        <pt x="819" y="530" on="1"/>
        <pt x="834" y="530" on="0"/>
        <pt x="856" y="487" on="1"/>
        <pt x="881" y="438" on="0"/>
        <pt x="881" y="387" on="1"/>
        <pt x="881" y="303" on="0"/>
        <pt x="857" y="157" on="1"/>
        <pt x="861" y="141" on="1"/>
        <pt x="891" y="170" on="0"/>
        <pt x="921" y="199" on="1"/>
        <pt x="957" y="244" on="0"/>
        <pt x="978" y="365" on="1"/>
        <pt x="990" y="365" on="1"/>
        <pt x="989" y="343" on="0"/>
        <pt x="989" y="324" on="1"/>
        <pt x="989" y="228" on="0"/>
        <pt x="1005" y="195" on="1"/>
        <pt x="1017" y="172" on="0"/>
        <pt x="1045" y="172" on="1"/>
        <pt x="1082" y="172" on="0"/>
        <pt x="1091" y="211" on="1"/>
        <pt x="1093" y="233" on="0"/>
        <pt x="1093" y="259" on="1"/>
        <pt x="1093" y="264" on="0"/>
        <pt x="1091" y="297" on="1"/>
        <pt x="1088" y="326" on="0"/>
        <pt x="1089" y="342" on="1"/>
        <pt x="1115" y="643" on="0"/>
        <pt x="1155" y="643" on="1"/>
        <pt x="1177" y="643" on="0"/>
        <pt x="1189" y="556" on="1"/>
        <pt x="1199" y="489" on="0"/>
        <pt x="1199" y="418" on="1"/>
        <pt x="1199" y="380" on="0"/>
        <pt x="1188" y="242" on="0"/>
        <pt x="1183" y="208" on="1"/>
        <pt x="1197" y="161" on="0"/>
        <pt x="1242" y="161" on="1"/>
        <pt x="1314" y="161" on="0"/>
        <pt x="1376" y="260" on="1"/>
        <pt x="1356" y="346" on="0"/>
        <pt x="1330" y="346" on="1"/>
        <pt x="1328" y="346" on="0"/>
        <pt x="1309" y="336" on="1"/>
        <pt x="1285" y="324" on="0"/>
        <pt x="1263" y="317" on="1"/>
        <pt x="1266" y="398" on="0"/>
        <pt x="1289" y="478" on="1"/>
        <pt x="1311" y="551" on="0"/>
        <pt x="1326" y="551" on="1"/>
        <pt x="1336" y="551" on="0"/>
        <pt x="1374" y="478" on="1"/>
        <pt x="1395" y="438" on="0"/>
        <pt x="1415" y="399" on="1"/>
        <pt x="1430" y="370" on="0"/>
        <pt x="1462" y="338" on="1"/>
        <pt x="1480" y="338" on="0"/>
        <pt x="1498" y="338" on="1"/>
        <pt x="1522" y="336" on="0"/>
      </contour>
      <contour>
        <pt x="747" y="1784" on="1"/>
        <pt x="747" y="1736" on="0"/>
        <pt x="736" y="1710" on="1"/>
        <pt x="731" y="1700" on="0"/>
        <pt x="692" y="1629" on="1"/>
        <pt x="665" y="1580" on="0"/>
        <pt x="647" y="1524" on="1"/>
        <pt x="638" y="1524" on="1"/>
        <pt x="635" y="1537" on="0"/>
        <pt x="635" y="1559" on="1"/>
        <pt x="635" y="1625" on="0"/>
        <pt x="682" y="1720" on="1"/>
        <pt x="710" y="1777" on="0"/>
        <pt x="735" y="1810" on="1"/>
        <pt x="744" y="1810" on="1"/>
        <pt x="747" y="1808" on="0"/>
      </contour>
      <contour>
        <pt x="1223" y="-160" on="1"/>
        <pt x="1223" y="-208" on="0"/>
        <pt x="1214" y="-224" on="1"/>
        <pt x="1183" y="-282" on="0"/>
        <pt x="1085" y="-432" on="1"/>
        <pt x="1081" y="-420" on="0"/>
        <pt x="1079" y="-420" on="1"/>
        <pt x="1079" y="-376" on="1"/>
        <pt x="1079" y="-340" on="0"/>
        <pt x="1087" y="-323" on="1"/>
        <pt x="1119" y="-265" on="0"/>
        <pt x="1211" y="-126" on="1"/>
        <pt x="1220" y="-126" on="1"/>
        <pt x="1220" y="-129" on="0"/>
        <pt x="1223" y="-146" on="0"/>
      </contour>
      <contour>
        <pt x="824" y="848" on="1"/>
        <pt x="824" y="820" on="0"/>
        <pt x="803" y="745" on="0"/>
        <pt x="798" y="745" on="1"/>
        <pt x="789" y="745" on="0"/>
        <pt x="763" y="823" on="0"/>
        <pt x="763" y="842" on="1"/>
        <pt x="763" y="861" on="0"/>
        <pt x="782" y="940" on="0"/>
        <pt x="788" y="940" on="1"/>
        <pt x="795" y="940" on="0"/>
        <pt x="824" y="867" on="0"/>
      </contour>
      <contour>
        <pt x="688" y="1463" on="1"/>
        <pt x="589" y="1278" on="0"/>
        <pt x="585" y="1279" on="1"/>
        <pt x="571" y="1279" on="1"/>
        <pt x="571" y="1333" on="1"/>
        <pt x="571" y="1364" on="0"/>
        <pt x="602" y="1413" on="1"/>
        <pt x="621" y="1443" on="0"/>
        <pt x="641" y="1474" on="1"/>
        <pt x="667" y="1534" on="0"/>
        <pt x="674" y="1534" on="1"/>
        <pt x="685" y="1534" on="1"/>
        <pt x="688" y="1520" on="1"/>
      </contour>
      <contour>
        <pt x="1028" y="-280" on="1"/>
        <pt x="1028" y="-312" on="0"/>
        <pt x="1021" y="-355" on="1"/>
        <pt x="1014" y="-401" on="0"/>
        <pt x="1005" y="-401" on="1"/>
        <pt x="1002" y="-401" on="0"/>
        <pt x="975" y="-350" on="0"/>
        <pt x="972" y="-350" on="1"/>
        <pt x="968" y="-350" on="0"/>
        <pt x="951" y="-412" on="0"/>
        <pt x="947" y="-412" on="1"/>
        <pt x="940" y="-412" on="0"/>
        <pt x="924" y="-375" on="1"/>
        <pt x="907" y="-337" on="0"/>
        <pt x="907" y="-314" on="1"/>
        <pt x="907" y="-294" on="0"/>
        <pt x="917" y="-252" on="1"/>
        <pt x="926" y="-207" on="0"/>
        <pt x="933" y="-207" on="1"/>
        <pt x="936" y="-207" on="0"/>
        <pt x="960" y="-268" on="0"/>
        <pt x="964" y="-268" on="1"/>
        <pt x="966" y="-268" on="0"/>
        <pt x="987" y="-196" on="0"/>
        <pt x="990" y="-196" on="1"/>
        <pt x="997" y="-196" on="0"/>
      </contour>
      <contour>
        <pt x="1172" y="366" on="1"/>
        <pt x="1172" y="389" on="0"/>
        <pt x="1165" y="436" on="1"/>
        <pt x="1157" y="489" on="0"/>
        <pt x="1149" y="489" on="1"/>
        <pt x="1139" y="489" on="0"/>
        <pt x="1127" y="435" on="1"/>
        <pt x="1116" y="385" on="0"/>
        <pt x="1116" y="356" on="1"/>
        <pt x="1116" y="330" on="0"/>
        <pt x="1131" y="274" on="0"/>
        <pt x="1139" y="274" on="1"/>
        <pt x="1172" y="321" on="0"/>
      </contour>
      <contour>
        <pt x="843" y="287" on="1"/>
        <pt x="843" y="324" on="1"/>
        <pt x="815" y="366" on="0"/>
        <pt x="803" y="366" on="1"/>
        <pt x="788" y="366" on="0"/>
        <pt x="762" y="288" on="1"/>
        <pt x="742" y="225" on="0"/>
        <pt x="723" y="164" on="1"/>
        <pt x="751" y="164" on="1"/>
        <pt x="758" y="161" on="0"/>
        <pt x="813" y="215" on="1"/>
        <pt x="820" y="222" on="0"/>
        <pt x="829" y="248" on="1"/>
        <pt x="836" y="267" on="0"/>
      </contour>
    </TTGlyph>
    <TTGlyph name="equal" xMin="142" yMin="226" xMax="842" yMax="1588">
      <contour>
        <pt x="142" y="226" on="1"/>
        <pt x="142" y="1588" on="1"/>
        <pt x="842" y="1588" on="1"/>
        <pt x="842" y="226" on="1"/>
      </contour>
      <contour>
        <pt x="284" y="368" on="1"/>
        <pt x="700" y="368" on="1"/>
        <pt x="700" y="1447" on="1"/>
        <pt x="284" y="1447" on="1"/>
      </contour>
    </TTGlyph>
    <TTGlyph name="exclam" xMin="142" yMin="226" xMax="842" yMax="1588">
      <contour>
        <pt x="142" y="226" on="1"/>
        <pt x="142" y="1588" on="1"/>
        <pt x="842" y="1588" on="1"/>
        <pt x="842" y="226" on="1"/>
      </contour>
      <contour>
        <pt x="284" y="368" on="1"/>
        <pt x="700" y="368" on="1"/>
        <pt x="700" y="1447" on="1"/>
        <pt x="284" y="1447" on="1"/>
      </contour>
    </TTGlyph>
    <TTGlyph name="figuredash" xMin="509" yMin="-432" xMax="4430" yMax="1810">
      <contour>
        <pt x="4082" y="1313" on="1"/>
        <pt x="4082" y="1278" on="0"/>
        <pt x="3834" y="1149" on="1"/>
        <pt x="3669" y="1065" on="0"/>
        <pt x="3505" y="981" on="1"/>
        <pt x="3470" y="981" on="1"/>
        <pt x="3458" y="995" on="0"/>
        <pt x="3458" y="1022" on="1"/>
        <pt x="3458" y="1015" on="0"/>
        <pt x="3471" y="1071" on="1"/>
        <pt x="3725" y="1199" on="0"/>
        <pt x="4025" y="1349" on="1"/>
        <pt x="4059" y="1349" on="1"/>
        <pt x="4082" y="1325" on="0"/>
      </contour>
      <contour>
        <pt x="2987" y="930" on="1"/>
        <pt x="2987" y="900" on="0"/>
        <pt x="2953" y="868" on="1"/>
        <pt x="2923" y="837" on="0"/>
        <pt x="2905" y="837" on="1"/>
        <pt x="2863" y="837" on="0"/>
        <pt x="2814" y="867" on="1"/>
        <pt x="2762" y="899" on="0"/>
        <pt x="2762" y="930" on="1"/>
        <pt x="2762" y="963" on="0"/>
        <pt x="2799" y="999" on="1"/>
        <pt x="2833" y="1032" on="0"/>
        <pt x="2854" y="1032" on="1"/>
        <pt x="2893" y="1032" on="0"/>
        <pt x="2942" y="989" on="1"/>
        <pt x="2987" y="949" on="0"/>
      </contour>
      <contour>
        <pt x="4430" y="314" on="1"/>
        <pt x="4426" y="172" on="0"/>
        <pt x="4282" y="172" on="1"/>
        <pt x="4272" y="172" on="0"/>
        <pt x="4163" y="182" on="0"/>
        <pt x="4149" y="182" on="1"/>
        <pt x="4095" y="182" on="0"/>
        <pt x="3792" y="93" on="1"/>
        <pt x="3505" y="8" on="0"/>
        <pt x="3263" y="8" on="1"/>
        <pt x="3146" y="8" on="0"/>
        <pt x="3141" y="9" on="1"/>
        <pt x="3035" y="35" on="0"/>
        <pt x="2929" y="62" on="1"/>
        <pt x="2922" y="64" on="0"/>
        <pt x="2876" y="90" on="0"/>
        <pt x="2864" y="90" on="1"/>
        <pt x="2854" y="90" on="0"/>
        <pt x="2786" y="64" on="1"/>
        <pt x="2712" y="35" on="0"/>
        <pt x="2686" y="31" on="1"/>
        <pt x="2609" y="18" on="0"/>
        <pt x="2516" y="18" on="1"/>
        <pt x="2423" y="18" on="0"/>
        <pt x="2417" y="21" on="1"/>
        <pt x="2381" y="37" on="0"/>
        <pt x="2328" y="102" on="1"/>
        <pt x="2281" y="161" on="0"/>
        <pt x="2270" y="161" on="1"/>
        <pt x="2258" y="161" on="0"/>
        <pt x="2210" y="127" on="1"/>
        <pt x="2151" y="85" on="0"/>
        <pt x="2124" y="72" on="1"/>
        <pt x="2082" y="53" on="0"/>
        <pt x="1925" y="16" on="1"/>
        <pt x="1757" y="-22" on="0"/>
        <pt x="1697" y="-22" on="1"/>
        <pt x="1684" y="-22" on="0"/>
        <pt x="1326" y="-12" on="0"/>
        <pt x="1313" y="-12" on="1"/>
        <pt x="1303" y="-12" on="0"/>
        <pt x="1195" y="-22" on="0"/>
        <pt x="1180" y="-22" on="1"/>
        <pt x="1168" y="-22" on="0"/>
        <pt x="1078" y="-43" on="0"/>
        <pt x="1067" y="-43" on="1"/>
        <pt x="936" y="-43" on="0"/>
        <pt x="861" y="-30" on="1"/>
        <pt x="805" y="-20" on="0"/>
        <pt x="777" y="-12" on="1"/>
        <pt x="720" y="4" on="0"/>
        <pt x="688" y="32" on="1"/>
        <pt x="634" y="78" on="0"/>
        <pt x="610" y="179" on="1"/>
        <pt x="602" y="215" on="0"/>
        <pt x="587" y="340" on="1"/>
        <pt x="572" y="469" on="0"/>
        <pt x="546" y="729" on="1"/>
        <pt x="543" y="770" on="0"/>
        <pt x="525" y="895" on="1"/>
        <pt x="509" y="1012" on="0"/>
        <pt x="509" y="1022" on="1"/>
        <pt x="509" y="1104" on="0"/>
        <pt x="577" y="1144" on="1"/>
        <pt x="623" y="1057" on="0"/>
        <pt x="634" y="879" on="1"/>
        <pt x="647" y="691" on="0"/>
        <pt x="669" y="640" on="1"/>
        <pt x="665" y="618" on="0"/>
        <pt x="665" y="578" on="1"/>
        <pt x="669" y="562" on="0"/>
        <pt x="688" y="374" on="1"/>
        <pt x="699" y="254" on="0"/>
        <pt x="792" y="148" on="0"/>
        <pt x="855" y="136" on="1"/>
        <pt x="878" y="131" on="0"/>
        <pt x="960" y="131" on="1"/>
        <pt x="1205" y="131" on="0"/>
        <pt x="1205" y="300" on="1"/>
        <pt x="1205" y="383" on="0"/>
        <pt x="1183" y="497" on="1"/>
        <pt x="1167" y="572" on="0"/>
        <pt x="1150" y="647" on="1"/>
        <pt x="1141" y="755" on="0"/>
        <pt x="1109" y="964" on="1"/>
        <pt x="1106" y="978" on="0"/>
        <pt x="1083" y="1021" on="1"/>
        <pt x="1062" y="1059" on="0"/>
        <pt x="1062" y="1073" on="1"/>
        <pt x="1062" y="1173" on="0"/>
        <pt x="1148" y="1257" on="1"/>
        <pt x="1179" y="1239" on="0"/>
        <pt x="1185" y="1207" on="1"/>
        <pt x="1195" y="1157" on="0"/>
        <pt x="1197" y="1152" on="1"/>
        <pt x="1204" y="1138" on="0"/>
        <pt x="1242" y="1108" on="1"/>
        <pt x="1277" y="1080" on="0"/>
        <pt x="1277" y="1067" on="1"/>
        <pt x="1277" y="1055" on="0"/>
        <pt x="1262" y="1025" on="1"/>
        <pt x="1242" y="985" on="0"/>
        <pt x="1238" y="974" on="1"/>
        <pt x="1236" y="967" on="0"/>
        <pt x="1236" y="914" on="1"/>
        <pt x="1236" y="904" on="0"/>
        <pt x="1259" y="780" on="1"/>
        <pt x="1285" y="636" on="0"/>
        <pt x="1294" y="577" on="1"/>
        <pt x="1304" y="499" on="0"/>
        <pt x="1304" y="294" on="1"/>
        <pt x="1493" y="440" on="0"/>
        <pt x="1508" y="451" on="1"/>
        <pt x="1624" y="530" on="0"/>
        <pt x="1697" y="530" on="1"/>
        <pt x="1754" y="530" on="0"/>
        <pt x="1838" y="487" on="1"/>
        <pt x="1932" y="438" on="0"/>
        <pt x="1932" y="387" on="1"/>
        <pt x="1932" y="303" on="0"/>
        <pt x="1840" y="157" on="1"/>
        <pt x="1857" y="141" on="1"/>
        <pt x="1972" y="170" on="0"/>
        <pt x="2087" y="199" on="1"/>
        <pt x="2223" y="244" on="0"/>
        <pt x="2304" y="365" on="1"/>
        <pt x="2351" y="365" on="1"/>
        <pt x="2348" y="343" on="0"/>
        <pt x="2348" y="324" on="1"/>
        <pt x="2348" y="228" on="0"/>
        <pt x="2410" y="195" on="1"/>
        <pt x="2454" y="172" on="0"/>
        <pt x="2562" y="172" on="1"/>
        <pt x="2703" y="172" on="0"/>
        <pt x="2738" y="211" on="1"/>
        <pt x="2747" y="233" on="0"/>
        <pt x="2747" y="259" on="1"/>
        <pt x="2747" y="264" on="0"/>
        <pt x="2736" y="297" on="1"/>
        <pt x="2726" y="326" on="0"/>
        <pt x="2731" y="342" on="1"/>
        <pt x="2828" y="643" on="0"/>
        <pt x="2981" y="643" on="1"/>
        <pt x="3066" y="643" on="0"/>
        <pt x="3113" y="556" on="1"/>
        <pt x="3151" y="489" on="0"/>
        <pt x="3151" y="418" on="1"/>
        <pt x="3151" y="380" on="0"/>
        <pt x="3109" y="242" on="0"/>
        <pt x="3089" y="208" on="1"/>
        <pt x="3144" y="161" on="0"/>
        <pt x="3315" y="161" on="1"/>
        <pt x="3593" y="161" on="0"/>
        <pt x="3827" y="260" on="1"/>
        <pt x="3752" y="346" on="0"/>
        <pt x="3652" y="346" on="1"/>
        <pt x="3644" y="346" on="0"/>
        <pt x="3571" y="336" on="1"/>
        <pt x="3482" y="324" on="0"/>
        <pt x="3397" y="317" on="1"/>
        <pt x="3406" y="398" on="0"/>
        <pt x="3496" y="478" on="1"/>
        <pt x="3579" y="551" on="0"/>
        <pt x="3637" y="551" on="1"/>
        <pt x="3674" y="551" on="0"/>
        <pt x="3823" y="478" on="1"/>
        <pt x="3900" y="438" on="0"/>
        <pt x="3977" y="399" on="1"/>
        <pt x="4036" y="370" on="0"/>
        <pt x="4159" y="338" on="1"/>
        <pt x="4228" y="338" on="0"/>
        <pt x="4297" y="338" on="1"/>
        <pt x="4386" y="336" on="0"/>
      </contour>
      <contour>
        <pt x="1420" y="1784" on="1"/>
        <pt x="1420" y="1736" on="0"/>
        <pt x="1377" y="1710" on="1"/>
        <pt x="1359" y="1700" on="0"/>
        <pt x="1209" y="1629" on="1"/>
        <pt x="1105" y="1580" on="0"/>
        <pt x="1038" y="1524" on="1"/>
        <pt x="1003" y="1524" on="1"/>
        <pt x="990" y="1537" on="0"/>
        <pt x="990" y="1559" on="1"/>
        <pt x="990" y="1625" on="0"/>
        <pt x="1170" y="1720" on="1"/>
        <pt x="1280" y="1777" on="0"/>
        <pt x="1373" y="1810" on="1"/>
        <pt x="1408" y="1810" on="1"/>
        <pt x="1420" y="1808" on="0"/>
      </contour>
      <contour>
        <pt x="3243" y="-160" on="1"/>
        <pt x="3243" y="-208" on="0"/>
        <pt x="3209" y="-224" on="1"/>
        <pt x="3089" y="-282" on="0"/>
        <pt x="2715" y="-432" on="1"/>
        <pt x="2701" y="-420" on="0"/>
        <pt x="2691" y="-420" on="1"/>
        <pt x="2691" y="-376" on="1"/>
        <pt x="2690" y="-340" on="0"/>
        <pt x="2723" y="-323" on="1"/>
        <pt x="2843" y="-265" on="0"/>
        <pt x="3196" y="-126" on="1"/>
        <pt x="3231" y="-126" on="1"/>
        <pt x="3231" y="-129" on="0"/>
        <pt x="3243" y="-146" on="0"/>
      </contour>
      <contour>
        <pt x="1717" y="848" on="1"/>
        <pt x="1717" y="820" on="0"/>
        <pt x="1635" y="745" on="0"/>
        <pt x="1615" y="745" on="1"/>
        <pt x="1582" y="745" on="0"/>
        <pt x="1481" y="823" on="0"/>
        <pt x="1481" y="842" on="1"/>
        <pt x="1481" y="861" on="0"/>
        <pt x="1555" y="940" on="0"/>
        <pt x="1579" y="940" on="1"/>
        <pt x="1605" y="940" on="0"/>
        <pt x="1717" y="867" on="0"/>
      </contour>
      <contour>
        <pt x="1195" y="1463" on="1"/>
        <pt x="815" y="1278" on="0"/>
        <pt x="800" y="1279" on="1"/>
        <pt x="745" y="1279" on="1"/>
        <pt x="745" y="1333" on="1"/>
        <pt x="745" y="1364" on="0"/>
        <pt x="864" y="1413" on="1"/>
        <pt x="938" y="1443" on="0"/>
        <pt x="1014" y="1474" on="1"/>
        <pt x="1114" y="1534" on="0"/>
        <pt x="1140" y="1534" on="1"/>
        <pt x="1182" y="1534" on="1"/>
        <pt x="1195" y="1520" on="1"/>
      </contour>
      <contour>
        <pt x="2495" y="-280" on="1"/>
        <pt x="2498" y="-312" on="0"/>
        <pt x="2471" y="-355" on="1"/>
        <pt x="2441" y="-401" on="0"/>
        <pt x="2408" y="-401" on="1"/>
        <pt x="2396" y="-401" on="0"/>
        <pt x="2293" y="-350" on="0"/>
        <pt x="2280" y="-350" on="1"/>
        <pt x="2268" y="-350" on="0"/>
        <pt x="2201" y="-412" on="0"/>
        <pt x="2188" y="-412" on="1"/>
        <pt x="2160" y="-412" on="0"/>
        <pt x="2098" y="-375" on="1"/>
        <pt x="2034" y="-337" on="0"/>
        <pt x="2034" y="-314" on="1"/>
        <pt x="2034" y="-294" on="0"/>
        <pt x="2070" y="-252" on="1"/>
        <pt x="2106" y="-207" on="0"/>
        <pt x="2132" y="-207" on="1"/>
        <pt x="2145" y="-207" on="0"/>
        <pt x="2237" y="-268" on="0"/>
        <pt x="2250" y="-268" on="1"/>
        <pt x="2260" y="-268" on="0"/>
        <pt x="2339" y="-196" on="0"/>
        <pt x="2352" y="-196" on="1"/>
        <pt x="2379" y="-196" on="0"/>
      </contour>
      <contour>
        <pt x="3049" y="366" on="1"/>
        <pt x="3049" y="389" on="0"/>
        <pt x="3021" y="436" on="1"/>
        <pt x="2990" y="489" on="0"/>
        <pt x="2961" y="489" on="1"/>
        <pt x="2921" y="489" on="0"/>
        <pt x="2875" y="435" on="1"/>
        <pt x="2833" y="385" on="0"/>
        <pt x="2833" y="356" on="1"/>
        <pt x="2833" y="330" on="0"/>
        <pt x="2890" y="274" on="0"/>
        <pt x="2920" y="274" on="1"/>
        <pt x="3049" y="321" on="0"/>
      </contour>
      <contour>
        <pt x="1788" y="287" on="1"/>
        <pt x="1788" y="324" on="1"/>
        <pt x="1680" y="366" on="0"/>
        <pt x="1635" y="366" on="1"/>
        <pt x="1577" y="366" on="0"/>
        <pt x="1476" y="288" on="1"/>
        <pt x="1403" y="225" on="0"/>
        <pt x="1328" y="164" on="1"/>
        <pt x="1435" y="164" on="1"/>
        <pt x="1461" y="161" on="0"/>
        <pt x="1672" y="215" on="1"/>
        <pt x="1698" y="222" on="0"/>
        <pt x="1734" y="248" on="1"/>
        <pt x="1761" y="267" on="0"/>
      </contour>
    </TTGlyph>
    <TTGlyph name="gaffinalarabic" xMin="142" yMin="226" xMax="842" yMax="1588">
      <contour>
        <pt x="142" y="226" on="1"/>
        <pt x="142" y="1588" on="1"/>
        <pt x="842" y="1588" on="1"/>
        <pt x="842" y="226" on="1"/>
      </contour>
      <contour>
        <pt x="284" y="368" on="1"/>
        <pt x="700" y="368" on="1"/>
        <pt x="700" y="1447" on="1"/>
        <pt x="284" y="1447" on="1"/>
      </contour>
    </TTGlyph>
    <TTGlyph name="gafinitialarabic" xMin="142" yMin="226" xMax="842" yMax="1588">
      <contour>
        <pt x="142" y="226" on="1"/>
        <pt x="142" y="1588" on="1"/>
        <pt x="842" y="1588" on="1"/>
        <pt x="842" y="226" on="1"/>
      </contour>
      <contour>
        <pt x="284" y="368" on="1"/>
        <pt x="700" y="368" on="1"/>
        <pt x="700" y="1447" on="1"/>
        <pt x="284" y="1447" on="1"/>
      </contour>
    </TTGlyph>
    <TTGlyph name="gafmedialarabic" xMin="142" yMin="226" xMax="842" yMax="1588">
      <contour>
        <pt x="142" y="226" on="1"/>
        <pt x="142" y="1588" on="1"/>
        <pt x="842" y="1588" on="1"/>
        <pt x="842" y="226" on="1"/>
      </contour>
      <contour>
        <pt x="284" y="368" on="1"/>
        <pt x="700" y="368" on="1"/>
        <pt x="700" y="1447" on="1"/>
        <pt x="284" y="1447" on="1"/>
      </contour>
    </TTGlyph>
    <TTGlyph name="glyph41" xMin="142" yMin="226" xMax="842" yMax="1588">
      <contour>
        <pt x="142" y="226" on="1"/>
        <pt x="142" y="1588" on="1"/>
        <pt x="842" y="1588" on="1"/>
        <pt x="842" y="226" on="1"/>
      </contour>
      <contour>
        <pt x="284" y="368" on="1"/>
        <pt x="700" y="368" on="1"/>
        <pt x="700" y="1447" on="1"/>
        <pt x="284" y="1447" on="1"/>
      </contour>
    </TTGlyph>
    <TTGlyph name="glyph42" xMin="142" yMin="226" xMax="842" yMax="1588">
      <contour>
        <pt x="142" y="226" on="1"/>
        <pt x="142" y="1588" on="1"/>
        <pt x="842" y="1588" on="1"/>
        <pt x="842" y="226" on="1"/>
      </contour>
      <contour>
        <pt x="284" y="368" on="1"/>
        <pt x="700" y="368" on="1"/>
        <pt x="700" y="1447" on="1"/>
        <pt x="284" y="1447" on="1"/>
      </contour>
    </TTGlyph>
    <TTGlyph name="glyph43" xMin="142" yMin="226" xMax="842" yMax="1588">
      <contour>
        <pt x="142" y="226" on="1"/>
        <pt x="142" y="1588" on="1"/>
        <pt x="842" y="1588" on="1"/>
        <pt x="842" y="226" on="1"/>
      </contour>
      <contour>
        <pt x="284" y="368" on="1"/>
        <pt x="700" y="368" on="1"/>
        <pt x="700" y="1447" on="1"/>
        <pt x="284" y="1447" on="1"/>
      </contour>
    </TTGlyph>
    <TTGlyph name="glyph44" xMin="142" yMin="226" xMax="842" yMax="1588">
      <contour>
        <pt x="142" y="226" on="1"/>
        <pt x="142" y="1588" on="1"/>
        <pt x="842" y="1588" on="1"/>
        <pt x="842" y="226" on="1"/>
      </contour>
      <contour>
        <pt x="284" y="368" on="1"/>
        <pt x="700" y="368" on="1"/>
        <pt x="700" y="1447" on="1"/>
        <pt x="284" y="1447" on="1"/>
      </contour>
    </TTGlyph>
    <TTGlyph name="glyph45" xMin="142" yMin="226" xMax="842" yMax="1588">
      <contour>
        <pt x="142" y="226" on="1"/>
        <pt x="142" y="1588" on="1"/>
        <pt x="842" y="1588" on="1"/>
        <pt x="842" y="226" on="1"/>
      </contour>
      <contour>
        <pt x="284" y="368" on="1"/>
        <pt x="700" y="368" on="1"/>
        <pt x="700" y="1447" on="1"/>
        <pt x="284" y="1447" on="1"/>
      </contour>
    </TTGlyph>
    <TTGlyph name="glyph46" xMin="142" yMin="226" xMax="842" yMax="1588">
      <contour>
        <pt x="142" y="226" on="1"/>
        <pt x="142" y="1588" on="1"/>
        <pt x="842" y="1588" on="1"/>
        <pt x="842" y="226" on="1"/>
      </contour>
      <contour>
        <pt x="284" y="368" on="1"/>
        <pt x="700" y="368" on="1"/>
        <pt x="700" y="1447" on="1"/>
        <pt x="284" y="1447" on="1"/>
      </contour>
    </TTGlyph>
    <TTGlyph name="glyph47" xMin="142" yMin="226" xMax="842" yMax="1588">
      <contour>
        <pt x="142" y="226" on="1"/>
        <pt x="142" y="1588" on="1"/>
        <pt x="842" y="1588" on="1"/>
        <pt x="842" y="226" on="1"/>
      </contour>
      <contour>
        <pt x="284" y="368" on="1"/>
        <pt x="700" y="368" on="1"/>
        <pt x="700" y="1447" on="1"/>
        <pt x="284" y="1447" on="1"/>
      </contour>
    </TTGlyph>
    <TTGlyph name="glyph48" xMin="142" yMin="226" xMax="842" yMax="1588">
      <contour>
        <pt x="142" y="226" on="1"/>
        <pt x="142" y="1588" on="1"/>
        <pt x="842" y="1588" on="1"/>
        <pt x="842" y="226" on="1"/>
      </contour>
      <contour>
        <pt x="284" y="368" on="1"/>
        <pt x="700" y="368" on="1"/>
        <pt x="700" y="1447" on="1"/>
        <pt x="284" y="1447" on="1"/>
      </contour>
    </TTGlyph>
    <TTGlyph name="glyph50" xMin="142" yMin="226" xMax="842" yMax="1588">
      <contour>
        <pt x="142" y="226" on="1"/>
        <pt x="142" y="1588" on="1"/>
        <pt x="842" y="1588" on="1"/>
        <pt x="842" y="226" on="1"/>
      </contour>
      <contour>
        <pt x="284" y="368" on="1"/>
        <pt x="700" y="368" on="1"/>
        <pt x="700" y="1447" on="1"/>
        <pt x="284" y="1447" on="1"/>
      </contour>
    </TTGlyph>
    <TTGlyph name="glyph51" xMin="142" yMin="226" xMax="842" yMax="1588">
      <contour>
        <pt x="142" y="226" on="1"/>
        <pt x="142" y="1588" on="1"/>
        <pt x="842" y="1588" on="1"/>
        <pt x="842" y="226" on="1"/>
      </contour>
      <contour>
        <pt x="284" y="368" on="1"/>
        <pt x="700" y="368" on="1"/>
        <pt x="700" y="1447" on="1"/>
        <pt x="284" y="1447" on="1"/>
      </contour>
    </TTGlyph>
    <TTGlyph name="greater" xMin="142" yMin="226" xMax="842" yMax="1588">
      <contour>
        <pt x="142" y="226" on="1"/>
        <pt x="142" y="1588" on="1"/>
        <pt x="842" y="1588" on="1"/>
        <pt x="842" y="226" on="1"/>
      </contour>
      <contour>
        <pt x="284" y="368" on="1"/>
        <pt x="700" y="368" on="1"/>
        <pt x="700" y="1447" on="1"/>
        <pt x="284" y="1447" on="1"/>
      </contour>
    </TTGlyph>
    <TTGlyph name="hahhamzabovefinal" xMin="142" yMin="226" xMax="842" yMax="1588">
      <contour>
        <pt x="142" y="226" on="1"/>
        <pt x="142" y="1588" on="1"/>
        <pt x="842" y="1588" on="1"/>
        <pt x="842" y="226" on="1"/>
      </contour>
      <contour>
        <pt x="284" y="368" on="1"/>
        <pt x="700" y="368" on="1"/>
        <pt x="700" y="1447" on="1"/>
        <pt x="284" y="1447" on="1"/>
      </contour>
    </TTGlyph>
    <TTGlyph name="hahhamzaboveinitial" xMin="142" yMin="226" xMax="842" yMax="1588">
      <contour>
        <pt x="142" y="226" on="1"/>
        <pt x="142" y="1588" on="1"/>
        <pt x="842" y="1588" on="1"/>
        <pt x="842" y="226" on="1"/>
      </contour>
      <contour>
        <pt x="284" y="368" on="1"/>
        <pt x="700" y="368" on="1"/>
        <pt x="700" y="1447" on="1"/>
        <pt x="284" y="1447" on="1"/>
      </contour>
    </TTGlyph>
    <TTGlyph name="hahhamzabovemedial" xMin="142" yMin="226" xMax="842" yMax="1588">
      <contour>
        <pt x="142" y="226" on="1"/>
        <pt x="142" y="1588" on="1"/>
        <pt x="842" y="1588" on="1"/>
        <pt x="842" y="226" on="1"/>
      </contour>
      <contour>
        <pt x="284" y="368" on="1"/>
        <pt x="700" y="368" on="1"/>
        <pt x="700" y="1447" on="1"/>
        <pt x="284" y="1447" on="1"/>
      </contour>
    </TTGlyph>
    <TTGlyph name="hahthreedotsabovefinal" xMin="142" yMin="226" xMax="842" yMax="1588">
      <contour>
        <pt x="142" y="226" on="1"/>
        <pt x="142" y="1588" on="1"/>
        <pt x="842" y="1588" on="1"/>
        <pt x="842" y="226" on="1"/>
      </contour>
      <contour>
        <pt x="284" y="368" on="1"/>
        <pt x="700" y="368" on="1"/>
        <pt x="700" y="1447" on="1"/>
        <pt x="284" y="1447" on="1"/>
      </contour>
    </TTGlyph>
    <TTGlyph name="hahthreedotsaboveinitial" xMin="142" yMin="226" xMax="842" yMax="1588">
      <contour>
        <pt x="142" y="226" on="1"/>
        <pt x="142" y="1588" on="1"/>
        <pt x="842" y="1588" on="1"/>
        <pt x="842" y="226" on="1"/>
      </contour>
      <contour>
        <pt x="284" y="368" on="1"/>
        <pt x="700" y="368" on="1"/>
        <pt x="700" y="1447" on="1"/>
        <pt x="284" y="1447" on="1"/>
      </contour>
    </TTGlyph>
    <TTGlyph name="hahthreedotsabovemedial" xMin="142" yMin="226" xMax="842" yMax="1588">
      <contour>
        <pt x="142" y="226" on="1"/>
        <pt x="142" y="1588" on="1"/>
        <pt x="842" y="1588" on="1"/>
        <pt x="842" y="226" on="1"/>
      </contour>
      <contour>
        <pt x="284" y="368" on="1"/>
        <pt x="700" y="368" on="1"/>
        <pt x="700" y="1447" on="1"/>
        <pt x="284" y="1447" on="1"/>
      </contour>
    </TTGlyph>
    <TTGlyph name="hehdoachashmeefinalarabic" xMin="142" yMin="226" xMax="842" yMax="1588">
      <contour>
        <pt x="142" y="226" on="1"/>
        <pt x="142" y="1588" on="1"/>
        <pt x="842" y="1588" on="1"/>
        <pt x="842" y="226" on="1"/>
      </contour>
      <contour>
        <pt x="284" y="368" on="1"/>
        <pt x="700" y="368" on="1"/>
        <pt x="700" y="1447" on="1"/>
        <pt x="284" y="1447" on="1"/>
      </contour>
    </TTGlyph>
    <TTGlyph name="hehdoachashmeeinitialarabic" xMin="142" yMin="226" xMax="842" yMax="1588">
      <contour>
        <pt x="142" y="226" on="1"/>
        <pt x="142" y="1588" on="1"/>
        <pt x="842" y="1588" on="1"/>
        <pt x="842" y="226" on="1"/>
      </contour>
      <contour>
        <pt x="284" y="368" on="1"/>
        <pt x="700" y="368" on="1"/>
        <pt x="700" y="1447" on="1"/>
        <pt x="284" y="1447" on="1"/>
      </contour>
    </TTGlyph>
    <TTGlyph name="hehdoachashmeemedialarabic" xMin="142" yMin="226" xMax="842" yMax="1588">
      <contour>
        <pt x="142" y="226" on="1"/>
        <pt x="142" y="1588" on="1"/>
        <pt x="842" y="1588" on="1"/>
        <pt x="842" y="226" on="1"/>
      </contour>
      <contour>
        <pt x="284" y="368" on="1"/>
        <pt x="700" y="368" on="1"/>
        <pt x="700" y="1447" on="1"/>
        <pt x="284" y="1447" on="1"/>
      </contour>
    </TTGlyph>
    <TTGlyph name="hehfinalaltonearabic" xMin="142" yMin="226" xMax="842" yMax="1588">
      <contour>
        <pt x="142" y="226" on="1"/>
        <pt x="142" y="1588" on="1"/>
        <pt x="842" y="1588" on="1"/>
        <pt x="842" y="226" on="1"/>
      </contour>
      <contour>
        <pt x="284" y="368" on="1"/>
        <pt x="700" y="368" on="1"/>
        <pt x="700" y="1447" on="1"/>
        <pt x="284" y="1447" on="1"/>
      </contour>
    </TTGlyph>
    <TTGlyph name="hehhamzaabovefinalarabic" xMin="142" yMin="226" xMax="842" yMax="1588">
      <contour>
        <pt x="142" y="226" on="1"/>
        <pt x="142" y="1588" on="1"/>
        <pt x="842" y="1588" on="1"/>
        <pt x="842" y="226" on="1"/>
      </contour>
      <contour>
        <pt x="284" y="368" on="1"/>
        <pt x="700" y="368" on="1"/>
        <pt x="700" y="1447" on="1"/>
        <pt x="284" y="1447" on="1"/>
      </contour>
    </TTGlyph>
    <TTGlyph name="hehinitialaltonearabic" xMin="142" yMin="226" xMax="842" yMax="1588">
      <contour>
        <pt x="142" y="226" on="1"/>
        <pt x="142" y="1588" on="1"/>
        <pt x="842" y="1588" on="1"/>
        <pt x="842" y="226" on="1"/>
      </contour>
      <contour>
        <pt x="284" y="368" on="1"/>
        <pt x="700" y="368" on="1"/>
        <pt x="700" y="1447" on="1"/>
        <pt x="284" y="1447" on="1"/>
      </contour>
    </TTGlyph>
    <TTGlyph name="hehmedialaltonearabic" xMin="142" yMin="226" xMax="842" yMax="1588">
      <contour>
        <pt x="142" y="226" on="1"/>
        <pt x="142" y="1588" on="1"/>
        <pt x="842" y="1588" on="1"/>
        <pt x="842" y="226" on="1"/>
      </contour>
      <contour>
        <pt x="284" y="368" on="1"/>
        <pt x="700" y="368" on="1"/>
        <pt x="700" y="1447" on="1"/>
        <pt x="284" y="1447" on="1"/>
      </contour>
    </TTGlyph>
    <TTGlyph name="hyphen" xMin="509" yMin="-432" xMax="4430" yMax="1810">
      <contour>
        <pt x="4082" y="1313" on="1"/>
        <pt x="4082" y="1278" on="0"/>
        <pt x="3834" y="1149" on="1"/>
        <pt x="3669" y="1065" on="0"/>
        <pt x="3505" y="981" on="1"/>
        <pt x="3470" y="981" on="1"/>
        <pt x="3458" y="995" on="0"/>
        <pt x="3458" y="1022" on="1"/>
        <pt x="3458" y="1015" on="0"/>
        <pt x="3471" y="1071" on="1"/>
        <pt x="3725" y="1199" on="0"/>
        <pt x="4025" y="1349" on="1"/>
        <pt x="4059" y="1349" on="1"/>
        <pt x="4082" y="1325" on="0"/>
      </contour>
      <contour>
        <pt x="2987" y="930" on="1"/>
        <pt x="2987" y="900" on="0"/>
        <pt x="2953" y="868" on="1"/>
        <pt x="2923" y="837" on="0"/>
        <pt x="2905" y="837" on="1"/>
        <pt x="2863" y="837" on="0"/>
        <pt x="2814" y="867" on="1"/>
        <pt x="2762" y="899" on="0"/>
        <pt x="2762" y="930" on="1"/>
        <pt x="2762" y="963" on="0"/>
        <pt x="2799" y="999" on="1"/>
        <pt x="2833" y="1032" on="0"/>
        <pt x="2854" y="1032" on="1"/>
        <pt x="2893" y="1032" on="0"/>
        <pt x="2942" y="989" on="1"/>
        <pt x="2987" y="949" on="0"/>
      </contour>
      <contour>
        <pt x="4430" y="314" on="1"/>
        <pt x="4426" y="172" on="0"/>
        <pt x="4282" y="172" on="1"/>
        <pt x="4272" y="172" on="0"/>
        <pt x="4163" y="182" on="0"/>
        <pt x="4149" y="182" on="1"/>
        <pt x="4095" y="182" on="0"/>
        <pt x="3792" y="93" on="1"/>
        <pt x="3505" y="8" on="0"/>
        <pt x="3263" y="8" on="1"/>
        <pt x="3146" y="8" on="0"/>
        <pt x="3141" y="9" on="1"/>
        <pt x="3035" y="35" on="0"/>
        <pt x="2929" y="62" on="1"/>
        <pt x="2922" y="64" on="0"/>
        <pt x="2876" y="90" on="0"/>
        <pt x="2864" y="90" on="1"/>
        <pt x="2854" y="90" on="0"/>
        <pt x="2786" y="64" on="1"/>
        <pt x="2712" y="35" on="0"/>
        <pt x="2686" y="31" on="1"/>
        <pt x="2609" y="18" on="0"/>
        <pt x="2516" y="18" on="1"/>
        <pt x="2423" y="18" on="0"/>
        <pt x="2417" y="21" on="1"/>
        <pt x="2381" y="37" on="0"/>
        <pt x="2328" y="102" on="1"/>
        <pt x="2281" y="161" on="0"/>
        <pt x="2270" y="161" on="1"/>
        <pt x="2258" y="161" on="0"/>
        <pt x="2210" y="127" on="1"/>
        <pt x="2151" y="85" on="0"/>
        <pt x="2124" y="72" on="1"/>
        <pt x="2082" y="53" on="0"/>
        <pt x="1925" y="16" on="1"/>
        <pt x="1757" y="-22" on="0"/>
        <pt x="1697" y="-22" on="1"/>
        <pt x="1684" y="-22" on="0"/>
        <pt x="1326" y="-12" on="0"/>
        <pt x="1313" y="-12" on="1"/>
        <pt x="1303" y="-12" on="0"/>
        <pt x="1195" y="-22" on="0"/>
        <pt x="1180" y="-22" on="1"/>
        <pt x="1168" y="-22" on="0"/>
        <pt x="1078" y="-43" on="0"/>
        <pt x="1067" y="-43" on="1"/>
        <pt x="936" y="-43" on="0"/>
        <pt x="861" y="-30" on="1"/>
        <pt x="805" y="-20" on="0"/>
        <pt x="777" y="-12" on="1"/>
        <pt x="720" y="4" on="0"/>
        <pt x="688" y="32" on="1"/>
        <pt x="634" y="78" on="0"/>
        <pt x="610" y="179" on="1"/>
        <pt x="602" y="215" on="0"/>
        <pt x="587" y="340" on="1"/>
        <pt x="572" y="469" on="0"/>
        <pt x="546" y="729" on="1"/>
        <pt x="543" y="770" on="0"/>
        <pt x="525" y="895" on="1"/>
        <pt x="509" y="1012" on="0"/>
        <pt x="509" y="1022" on="1"/>
        <pt x="509" y="1104" on="0"/>
        <pt x="577" y="1144" on="1"/>
        <pt x="623" y="1057" on="0"/>
        <pt x="634" y="879" on="1"/>
        <pt x="647" y="691" on="0"/>
        <pt x="669" y="640" on="1"/>
        <pt x="665" y="618" on="0"/>
        <pt x="665" y="578" on="1"/>
        <pt x="669" y="562" on="0"/>
        <pt x="688" y="374" on="1"/>
        <pt x="699" y="254" on="0"/>
        <pt x="792" y="148" on="0"/>
        <pt x="855" y="136" on="1"/>
        <pt x="878" y="131" on="0"/>
        <pt x="960" y="131" on="1"/>
        <pt x="1205" y="131" on="0"/>
        <pt x="1205" y="300" on="1"/>
        <pt x="1205" y="383" on="0"/>
        <pt x="1183" y="497" on="1"/>
        <pt x="1167" y="572" on="0"/>
        <pt x="1150" y="647" on="1"/>
        <pt x="1141" y="755" on="0"/>
        <pt x="1109" y="964" on="1"/>
        <pt x="1106" y="978" on="0"/>
        <pt x="1083" y="1021" on="1"/>
        <pt x="1062" y="1059" on="0"/>
        <pt x="1062" y="1073" on="1"/>
        <pt x="1062" y="1173" on="0"/>
        <pt x="1148" y="1257" on="1"/>
        <pt x="1179" y="1239" on="0"/>
        <pt x="1185" y="1207" on="1"/>
        <pt x="1195" y="1157" on="0"/>
        <pt x="1197" y="1152" on="1"/>
        <pt x="1204" y="1138" on="0"/>
        <pt x="1242" y="1108" on="1"/>
        <pt x="1277" y="1080" on="0"/>
        <pt x="1277" y="1067" on="1"/>
        <pt x="1277" y="1055" on="0"/>
        <pt x="1262" y="1025" on="1"/>
        <pt x="1242" y="985" on="0"/>
        <pt x="1238" y="974" on="1"/>
        <pt x="1236" y="967" on="0"/>
        <pt x="1236" y="914" on="1"/>
        <pt x="1236" y="904" on="0"/>
        <pt x="1259" y="780" on="1"/>
        <pt x="1285" y="636" on="0"/>
        <pt x="1294" y="577" on="1"/>
        <pt x="1304" y="499" on="0"/>
        <pt x="1304" y="294" on="1"/>
        <pt x="1493" y="440" on="0"/>
        <pt x="1508" y="451" on="1"/>
        <pt x="1624" y="530" on="0"/>
        <pt x="1697" y="530" on="1"/>
        <pt x="1754" y="530" on="0"/>
        <pt x="1838" y="487" on="1"/>
        <pt x="1932" y="438" on="0"/>
        <pt x="1932" y="387" on="1"/>
        <pt x="1932" y="303" on="0"/>
        <pt x="1840" y="157" on="1"/>
        <pt x="1857" y="141" on="1"/>
        <pt x="1972" y="170" on="0"/>
        <pt x="2087" y="199" on="1"/>
        <pt x="2223" y="244" on="0"/>
        <pt x="2304" y="365" on="1"/>
        <pt x="2351" y="365" on="1"/>
        <pt x="2348" y="343" on="0"/>
        <pt x="2348" y="324" on="1"/>
        <pt x="2348" y="228" on="0"/>
        <pt x="2410" y="195" on="1"/>
        <pt x="2454" y="172" on="0"/>
        <pt x="2562" y="172" on="1"/>
        <pt x="2703" y="172" on="0"/>
        <pt x="2738" y="211" on="1"/>
        <pt x="2747" y="233" on="0"/>
        <pt x="2747" y="259" on="1"/>
        <pt x="2747" y="264" on="0"/>
        <pt x="2736" y="297" on="1"/>
        <pt x="2726" y="326" on="0"/>
        <pt x="2731" y="342" on="1"/>
        <pt x="2828" y="643" on="0"/>
        <pt x="2981" y="643" on="1"/>
        <pt x="3066" y="643" on="0"/>
        <pt x="3113" y="556" on="1"/>
        <pt x="3151" y="489" on="0"/>
        <pt x="3151" y="418" on="1"/>
        <pt x="3151" y="380" on="0"/>
        <pt x="3109" y="242" on="0"/>
        <pt x="3089" y="208" on="1"/>
        <pt x="3144" y="161" on="0"/>
        <pt x="3315" y="161" on="1"/>
        <pt x="3593" y="161" on="0"/>
        <pt x="3827" y="260" on="1"/>
        <pt x="3752" y="346" on="0"/>
        <pt x="3652" y="346" on="1"/>
        <pt x="3644" y="346" on="0"/>
        <pt x="3571" y="336" on="1"/>
        <pt x="3482" y="324" on="0"/>
        <pt x="3397" y="317" on="1"/>
        <pt x="3406" y="398" on="0"/>
        <pt x="3496" y="478" on="1"/>
        <pt x="3579" y="551" on="0"/>
        <pt x="3637" y="551" on="1"/>
        <pt x="3674" y="551" on="0"/>
        <pt x="3823" y="478" on="1"/>
        <pt x="3900" y="438" on="0"/>
        <pt x="3977" y="399" on="1"/>
        <pt x="4036" y="370" on="0"/>
        <pt x="4159" y="338" on="1"/>
        <pt x="4228" y="338" on="0"/>
        <pt x="4297" y="338" on="1"/>
        <pt x="4386" y="336" on="0"/>
      </contour>
      <contour>
        <pt x="1420" y="1784" on="1"/>
        <pt x="1420" y="1736" on="0"/>
        <pt x="1377" y="1710" on="1"/>
        <pt x="1359" y="1700" on="0"/>
        <pt x="1209" y="1629" on="1"/>
        <pt x="1105" y="1580" on="0"/>
        <pt x="1038" y="1524" on="1"/>
        <pt x="1003" y="1524" on="1"/>
        <pt x="990" y="1537" on="0"/>
        <pt x="990" y="1559" on="1"/>
        <pt x="990" y="1625" on="0"/>
        <pt x="1170" y="1720" on="1"/>
        <pt x="1280" y="1777" on="0"/>
        <pt x="1373" y="1810" on="1"/>
        <pt x="1408" y="1810" on="1"/>
        <pt x="1420" y="1808" on="0"/>
      </contour>
      <contour>
        <pt x="3243" y="-160" on="1"/>
        <pt x="3243" y="-208" on="0"/>
        <pt x="3209" y="-224" on="1"/>
        <pt x="3089" y="-282" on="0"/>
        <pt x="2715" y="-432" on="1"/>
        <pt x="2701" y="-420" on="0"/>
        <pt x="2691" y="-420" on="1"/>
        <pt x="2691" y="-376" on="1"/>
        <pt x="2690" y="-340" on="0"/>
        <pt x="2723" y="-323" on="1"/>
        <pt x="2843" y="-265" on="0"/>
        <pt x="3196" y="-126" on="1"/>
        <pt x="3231" y="-126" on="1"/>
        <pt x="3231" y="-129" on="0"/>
        <pt x="3243" y="-146" on="0"/>
      </contour>
      <contour>
        <pt x="1717" y="848" on="1"/>
        <pt x="1717" y="820" on="0"/>
        <pt x="1635" y="745" on="0"/>
        <pt x="1615" y="745" on="1"/>
        <pt x="1582" y="745" on="0"/>
        <pt x="1481" y="823" on="0"/>
        <pt x="1481" y="842" on="1"/>
        <pt x="1481" y="861" on="0"/>
        <pt x="1555" y="940" on="0"/>
        <pt x="1579" y="940" on="1"/>
        <pt x="1605" y="940" on="0"/>
        <pt x="1717" y="867" on="0"/>
      </contour>
      <contour>
        <pt x="1195" y="1463" on="1"/>
        <pt x="815" y="1278" on="0"/>
        <pt x="800" y="1279" on="1"/>
        <pt x="745" y="1279" on="1"/>
        <pt x="745" y="1333" on="1"/>
        <pt x="745" y="1364" on="0"/>
        <pt x="864" y="1413" on="1"/>
        <pt x="938" y="1443" on="0"/>
        <pt x="1014" y="1474" on="1"/>
        <pt x="1114" y="1534" on="0"/>
        <pt x="1140" y="1534" on="1"/>
        <pt x="1182" y="1534" on="1"/>
        <pt x="1195" y="1520" on="1"/>
      </contour>
      <contour>
        <pt x="2495" y="-280" on="1"/>
        <pt x="2498" y="-312" on="0"/>
        <pt x="2471" y="-355" on="1"/>
        <pt x="2441" y="-401" on="0"/>
        <pt x="2408" y="-401" on="1"/>
        <pt x="2396" y="-401" on="0"/>
        <pt x="2293" y="-350" on="0"/>
        <pt x="2280" y="-350" on="1"/>
        <pt x="2268" y="-350" on="0"/>
        <pt x="2201" y="-412" on="0"/>
        <pt x="2188" y="-412" on="1"/>
        <pt x="2160" y="-412" on="0"/>
        <pt x="2098" y="-375" on="1"/>
        <pt x="2034" y="-337" on="0"/>
        <pt x="2034" y="-314" on="1"/>
        <pt x="2034" y="-294" on="0"/>
        <pt x="2070" y="-252" on="1"/>
        <pt x="2106" y="-207" on="0"/>
        <pt x="2132" y="-207" on="1"/>
        <pt x="2145" y="-207" on="0"/>
        <pt x="2237" y="-268" on="0"/>
        <pt x="2250" y="-268" on="1"/>
        <pt x="2260" y="-268" on="0"/>
        <pt x="2339" y="-196" on="0"/>
        <pt x="2352" y="-196" on="1"/>
        <pt x="2379" y="-196" on="0"/>
      </contour>
      <contour>
        <pt x="3049" y="366" on="1"/>
        <pt x="3049" y="389" on="0"/>
        <pt x="3021" y="436" on="1"/>
        <pt x="2990" y="489" on="0"/>
        <pt x="2961" y="489" on="1"/>
        <pt x="2921" y="489" on="0"/>
        <pt x="2875" y="435" on="1"/>
        <pt x="2833" y="385" on="0"/>
        <pt x="2833" y="356" on="1"/>
        <pt x="2833" y="330" on="0"/>
        <pt x="2890" y="274" on="0"/>
        <pt x="2920" y="274" on="1"/>
        <pt x="3049" y="321" on="0"/>
      </contour>
      <contour>
        <pt x="1788" y="287" on="1"/>
        <pt x="1788" y="324" on="1"/>
        <pt x="1680" y="366" on="0"/>
        <pt x="1635" y="366" on="1"/>
        <pt x="1577" y="366" on="0"/>
        <pt x="1476" y="288" on="1"/>
        <pt x="1403" y="225" on="0"/>
        <pt x="1328" y="164" on="1"/>
        <pt x="1435" y="164" on="1"/>
        <pt x="1461" y="161" on="0"/>
        <pt x="1672" y="215" on="1"/>
        <pt x="1698" y="222" on="0"/>
        <pt x="1734" y="248" on="1"/>
        <pt x="1761" y="267" on="0"/>
      </contour>
    </TTGlyph>
    <TTGlyph name="irghizufinal" xMin="142" yMin="226" xMax="842" yMax="1588">
      <contour>
        <pt x="142" y="226" on="1"/>
        <pt x="142" y="1588" on="1"/>
        <pt x="842" y="1588" on="1"/>
        <pt x="842" y="226" on="1"/>
      </contour>
      <contour>
        <pt x="284" y="368" on="1"/>
        <pt x="700" y="368" on="1"/>
        <pt x="700" y="1447" on="1"/>
        <pt x="284" y="1447" on="1"/>
      </contour>
    </TTGlyph>
    <TTGlyph name="jehfinalarabic" xMin="142" yMin="226" xMax="842" yMax="1588">
      <contour>
        <pt x="142" y="226" on="1"/>
        <pt x="142" y="1588" on="1"/>
        <pt x="842" y="1588" on="1"/>
        <pt x="842" y="226" on="1"/>
      </contour>
      <contour>
        <pt x="284" y="368" on="1"/>
        <pt x="700" y="368" on="1"/>
        <pt x="700" y="1447" on="1"/>
        <pt x="284" y="1447" on="1"/>
      </contour>
    </TTGlyph>
    <TTGlyph name="kafringfinal" xMin="142" yMin="226" xMax="842" yMax="1588">
      <contour>
        <pt x="142" y="226" on="1"/>
        <pt x="142" y="1588" on="1"/>
        <pt x="842" y="1588" on="1"/>
        <pt x="842" y="226" on="1"/>
      </contour>
      <contour>
        <pt x="284" y="368" on="1"/>
        <pt x="700" y="368" on="1"/>
        <pt x="700" y="1447" on="1"/>
        <pt x="284" y="1447" on="1"/>
      </contour>
    </TTGlyph>
    <TTGlyph name="kafringinitial" xMin="142" yMin="226" xMax="842" yMax="1588">
      <contour>
        <pt x="142" y="226" on="1"/>
        <pt x="142" y="1588" on="1"/>
        <pt x="842" y="1588" on="1"/>
        <pt x="842" y="226" on="1"/>
      </contour>
      <contour>
        <pt x="284" y="368" on="1"/>
        <pt x="700" y="368" on="1"/>
        <pt x="700" y="1447" on="1"/>
        <pt x="284" y="1447" on="1"/>
      </contour>
    </TTGlyph>
    <TTGlyph name="kafringmedial" xMin="142" yMin="226" xMax="842" yMax="1588">
      <contour>
        <pt x="142" y="226" on="1"/>
        <pt x="142" y="1588" on="1"/>
        <pt x="842" y="1588" on="1"/>
        <pt x="842" y="226" on="1"/>
      </contour>
      <contour>
        <pt x="284" y="368" on="1"/>
        <pt x="700" y="368" on="1"/>
        <pt x="700" y="1447" on="1"/>
        <pt x="284" y="1447" on="1"/>
      </contour>
    </TTGlyph>
    <TTGlyph name="kashidaautoarabic" xMin="142" yMin="226" xMax="842" yMax="1588">
      <contour>
        <pt x="142" y="226" on="1"/>
        <pt x="142" y="1588" on="1"/>
        <pt x="842" y="1588" on="1"/>
        <pt x="842" y="226" on="1"/>
      </contour>
      <contour>
        <pt x="284" y="368" on="1"/>
        <pt x="700" y="368" on="1"/>
        <pt x="700" y="1447" on="1"/>
        <pt x="284" y="1447" on="1"/>
      </contour>
    </TTGlyph>
    <TTGlyph name="kashidaautonosidebearingarabic" xMin="142" yMin="226" xMax="842" yMax="1588">
      <contour>
        <pt x="142" y="226" on="1"/>
        <pt x="142" y="1588" on="1"/>
        <pt x="842" y="1588" on="1"/>
        <pt x="842" y="226" on="1"/>
      </contour>
      <contour>
        <pt x="284" y="368" on="1"/>
        <pt x="700" y="368" on="1"/>
        <pt x="700" y="1447" on="1"/>
        <pt x="284" y="1447" on="1"/>
      </contour>
    </TTGlyph>
    <TTGlyph name="kehehfinalarabic" xMin="142" yMin="226" xMax="842" yMax="1588">
      <contour>
        <pt x="142" y="226" on="1"/>
        <pt x="142" y="1588" on="1"/>
        <pt x="842" y="1588" on="1"/>
        <pt x="842" y="226" on="1"/>
      </contour>
      <contour>
        <pt x="284" y="368" on="1"/>
        <pt x="700" y="368" on="1"/>
        <pt x="700" y="1447" on="1"/>
        <pt x="284" y="1447" on="1"/>
      </contour>
    </TTGlyph>
    <TTGlyph name="kehehinitialarabic" xMin="142" yMin="226" xMax="842" yMax="1588">
      <contour>
        <pt x="142" y="226" on="1"/>
        <pt x="142" y="1588" on="1"/>
        <pt x="842" y="1588" on="1"/>
        <pt x="842" y="226" on="1"/>
      </contour>
      <contour>
        <pt x="284" y="368" on="1"/>
        <pt x="700" y="368" on="1"/>
        <pt x="700" y="1447" on="1"/>
        <pt x="284" y="1447" on="1"/>
      </contour>
    </TTGlyph>
    <TTGlyph name="kehehmedialarabic" xMin="142" yMin="226" xMax="842" yMax="1588">
      <contour>
        <pt x="142" y="226" on="1"/>
        <pt x="142" y="1588" on="1"/>
        <pt x="842" y="1588" on="1"/>
        <pt x="842" y="226" on="1"/>
      </contour>
      <contour>
        <pt x="284" y="368" on="1"/>
        <pt x="700" y="368" on="1"/>
        <pt x="700" y="1447" on="1"/>
        <pt x="284" y="1447" on="1"/>
      </contour>
    </TTGlyph>
    <TTGlyph name="kirghizyifinal" xMin="142" yMin="226" xMax="842" yMax="1588">
      <contour>
        <pt x="142" y="226" on="1"/>
        <pt x="142" y="1588" on="1"/>
        <pt x="842" y="1588" on="1"/>
        <pt x="842" y="226" on="1"/>
      </contour>
      <contour>
        <pt x="284" y="368" on="1"/>
        <pt x="700" y="368" on="1"/>
        <pt x="700" y="1447" on="1"/>
        <pt x="284" y="1447" on="1"/>
      </contour>
    </TTGlyph>
    <TTGlyph name="lammeemjeeminitialarabic" xMin="142" yMin="226" xMax="842" yMax="1588">
      <contour>
        <pt x="142" y="226" on="1"/>
        <pt x="142" y="1588" on="1"/>
        <pt x="842" y="1588" on="1"/>
        <pt x="842" y="226" on="1"/>
      </contour>
      <contour>
        <pt x="284" y="368" on="1"/>
        <pt x="700" y="368" on="1"/>
        <pt x="700" y="1447" on="1"/>
        <pt x="284" y="1447" on="1"/>
      </contour>
    </TTGlyph>
    <TTGlyph name="lammeemkhahinitialarabic" xMin="142" yMin="226" xMax="842" yMax="1588">
      <contour>
        <pt x="142" y="226" on="1"/>
        <pt x="142" y="1588" on="1"/>
        <pt x="842" y="1588" on="1"/>
        <pt x="842" y="226" on="1"/>
      </contour>
      <contour>
        <pt x="284" y="368" on="1"/>
        <pt x="700" y="368" on="1"/>
        <pt x="700" y="1447" on="1"/>
        <pt x="284" y="1447" on="1"/>
      </contour>
    </TTGlyph>
    <TTGlyph name="lamthreedotsabovefinal" xMin="142" yMin="226" xMax="842" yMax="1588">
      <contour>
        <pt x="142" y="226" on="1"/>
        <pt x="142" y="1588" on="1"/>
        <pt x="842" y="1588" on="1"/>
        <pt x="842" y="226" on="1"/>
      </contour>
      <contour>
        <pt x="284" y="368" on="1"/>
        <pt x="700" y="368" on="1"/>
        <pt x="700" y="1447" on="1"/>
        <pt x="284" y="1447" on="1"/>
      </contour>
    </TTGlyph>
    <TTGlyph name="lamthreedotsaboveinitial" xMin="142" yMin="226" xMax="842" yMax="1588">
      <contour>
        <pt x="142" y="226" on="1"/>
        <pt x="142" y="1588" on="1"/>
        <pt x="842" y="1588" on="1"/>
        <pt x="842" y="226" on="1"/>
      </contour>
      <contour>
        <pt x="284" y="368" on="1"/>
        <pt x="700" y="368" on="1"/>
        <pt x="700" y="1447" on="1"/>
        <pt x="284" y="1447" on="1"/>
      </contour>
    </TTGlyph>
    <TTGlyph name="lamthreedotsabovemedial" xMin="142" yMin="226" xMax="842" yMax="1588">
      <contour>
        <pt x="142" y="226" on="1"/>
        <pt x="142" y="1588" on="1"/>
        <pt x="842" y="1588" on="1"/>
        <pt x="842" y="226" on="1"/>
      </contour>
      <contour>
        <pt x="284" y="368" on="1"/>
        <pt x="700" y="368" on="1"/>
        <pt x="700" y="1447" on="1"/>
        <pt x="284" y="1447" on="1"/>
      </contour>
    </TTGlyph>
    <TTGlyph name="less" xMin="142" yMin="226" xMax="842" yMax="1588">
      <contour>
        <pt x="142" y="226" on="1"/>
        <pt x="142" y="1588" on="1"/>
        <pt x="842" y="1588" on="1"/>
        <pt x="842" y="226" on="1"/>
      </contour>
      <contour>
        <pt x="284" y="368" on="1"/>
        <pt x="700" y="368" on="1"/>
        <pt x="700" y="1447" on="1"/>
        <pt x="284" y="1447" on="1"/>
      </contour>
    </TTGlyph>
    <TTGlyph name="meemmeemisolatedarabic" xMin="142" yMin="226" xMax="842" yMax="1588">
      <contour>
        <pt x="142" y="226" on="1"/>
        <pt x="142" y="1588" on="1"/>
        <pt x="842" y="1588" on="1"/>
        <pt x="842" y="226" on="1"/>
      </contour>
      <contour>
        <pt x="284" y="368" on="1"/>
        <pt x="700" y="368" on="1"/>
        <pt x="700" y="1447" on="1"/>
        <pt x="284" y="1447" on="1"/>
      </contour>
    </TTGlyph>
    <TTGlyph name="multiply" xMin="142" yMin="226" xMax="842" yMax="1588">
      <contour>
        <pt x="142" y="226" on="1"/>
        <pt x="142" y="1588" on="1"/>
        <pt x="842" y="1588" on="1"/>
        <pt x="842" y="226" on="1"/>
      </contour>
      <contour>
        <pt x="284" y="368" on="1"/>
        <pt x="700" y="368" on="1"/>
        <pt x="700" y="1447" on="1"/>
        <pt x="284" y="1447" on="1"/>
      </contour>
    </TTGlyph>
    <TTGlyph name="noonghunnafinalarabic" xMin="142" yMin="226" xMax="842" yMax="1588">
      <contour>
        <pt x="142" y="226" on="1"/>
        <pt x="142" y="1588" on="1"/>
        <pt x="842" y="1588" on="1"/>
        <pt x="842" y="226" on="1"/>
      </contour>
      <contour>
        <pt x="284" y="368" on="1"/>
        <pt x="700" y="368" on="1"/>
        <pt x="700" y="1447" on="1"/>
        <pt x="284" y="1447" on="1"/>
      </contour>
    </TTGlyph>
    <TTGlyph name="noonjeemisolatedarabic" xMin="142" yMin="226" xMax="842" yMax="1588">
      <contour>
        <pt x="142" y="226" on="1"/>
        <pt x="142" y="1588" on="1"/>
        <pt x="842" y="1588" on="1"/>
        <pt x="842" y="226" on="1"/>
      </contour>
      <contour>
        <pt x="284" y="368" on="1"/>
        <pt x="700" y="368" on="1"/>
        <pt x="700" y="1447" on="1"/>
        <pt x="284" y="1447" on="1"/>
      </contour>
    </TTGlyph>
    <TTGlyph name="noonmeemisolatedarabic" xMin="142" yMin="226" xMax="842" yMax="1588">
      <contour>
        <pt x="142" y="226" on="1"/>
        <pt x="142" y="1588" on="1"/>
        <pt x="842" y="1588" on="1"/>
        <pt x="842" y="226" on="1"/>
      </contour>
      <contour>
        <pt x="284" y="368" on="1"/>
        <pt x="700" y="368" on="1"/>
        <pt x="700" y="1447" on="1"/>
        <pt x="284" y="1447" on="1"/>
      </contour>
    </TTGlyph>
    <TTGlyph name="noonringfinal" xMin="142" yMin="226" xMax="842" yMax="1588">
      <contour>
        <pt x="142" y="226" on="1"/>
        <pt x="142" y="1588" on="1"/>
        <pt x="842" y="1588" on="1"/>
        <pt x="842" y="226" on="1"/>
      </contour>
      <contour>
        <pt x="284" y="368" on="1"/>
        <pt x="700" y="368" on="1"/>
        <pt x="700" y="1447" on="1"/>
        <pt x="284" y="1447" on="1"/>
      </contour>
    </TTGlyph>
    <TTGlyph name="noonringinitial" xMin="142" yMin="226" xMax="842" yMax="1588">
      <contour>
        <pt x="142" y="226" on="1"/>
        <pt x="142" y="1588" on="1"/>
        <pt x="842" y="1588" on="1"/>
        <pt x="842" y="226" on="1"/>
      </contour>
      <contour>
        <pt x="284" y="368" on="1"/>
        <pt x="700" y="368" on="1"/>
        <pt x="700" y="1447" on="1"/>
        <pt x="284" y="1447" on="1"/>
      </contour>
    </TTGlyph>
    <TTGlyph name="noonringmedial" xMin="142" yMin="226" xMax="842" yMax="1588">
      <contour>
        <pt x="142" y="226" on="1"/>
        <pt x="142" y="1588" on="1"/>
        <pt x="842" y="1588" on="1"/>
        <pt x="842" y="226" on="1"/>
      </contour>
      <contour>
        <pt x="284" y="368" on="1"/>
        <pt x="700" y="368" on="1"/>
        <pt x="700" y="1447" on="1"/>
        <pt x="284" y="1447" on="1"/>
      </contour>
    </TTGlyph>
    <TTGlyph name="numbersign" xMin="142" yMin="226" xMax="842" yMax="1588">
      <contour>
        <pt x="142" y="226" on="1"/>
        <pt x="142" y="1588" on="1"/>
        <pt x="842" y="1588" on="1"/>
        <pt x="842" y="226" on="1"/>
      </contour>
      <contour>
        <pt x="284" y="368" on="1"/>
        <pt x="700" y="368" on="1"/>
        <pt x="700" y="1447" on="1"/>
        <pt x="284" y="1447" on="1"/>
      </contour>
    </TTGlyph>
    <TTGlyph name="parenleft" xMin="142" yMin="226" xMax="842" yMax="1588">
      <contour>
        <pt x="142" y="226" on="1"/>
        <pt x="142" y="1588" on="1"/>
        <pt x="842" y="1588" on="1"/>
        <pt x="842" y="226" on="1"/>
      </contour>
      <contour>
        <pt x="284" y="368" on="1"/>
        <pt x="700" y="368" on="1"/>
        <pt x="700" y="1447" on="1"/>
        <pt x="284" y="1447" on="1"/>
      </contour>
    </TTGlyph>
    <TTGlyph name="parenright" xMin="142" yMin="226" xMax="842" yMax="1588">
      <contour>
        <pt x="142" y="226" on="1"/>
        <pt x="142" y="1588" on="1"/>
        <pt x="842" y="1588" on="1"/>
        <pt x="842" y="226" on="1"/>
      </contour>
      <contour>
        <pt x="284" y="368" on="1"/>
        <pt x="700" y="368" on="1"/>
        <pt x="700" y="1447" on="1"/>
        <pt x="284" y="1447" on="1"/>
      </contour>
    </TTGlyph>
    <TTGlyph name="pashtoefinal" xMin="142" yMin="226" xMax="842" yMax="1588">
      <contour>
        <pt x="142" y="226" on="1"/>
        <pt x="142" y="1588" on="1"/>
        <pt x="842" y="1588" on="1"/>
        <pt x="842" y="226" on="1"/>
      </contour>
      <contour>
        <pt x="284" y="368" on="1"/>
        <pt x="700" y="368" on="1"/>
        <pt x="700" y="1447" on="1"/>
        <pt x="284" y="1447" on="1"/>
      </contour>
    </TTGlyph>
    <TTGlyph name="pashtoeinitial" xMin="142" yMin="226" xMax="842" yMax="1588">
      <contour>
        <pt x="142" y="226" on="1"/>
        <pt x="142" y="1588" on="1"/>
        <pt x="842" y="1588" on="1"/>
        <pt x="842" y="226" on="1"/>
      </contour>
      <contour>
        <pt x="284" y="368" on="1"/>
        <pt x="700" y="368" on="1"/>
        <pt x="700" y="1447" on="1"/>
        <pt x="284" y="1447" on="1"/>
      </contour>
    </TTGlyph>
    <TTGlyph name="pashtoemedial" xMin="142" yMin="226" xMax="842" yMax="1588">
      <contour>
        <pt x="142" y="226" on="1"/>
        <pt x="142" y="1588" on="1"/>
        <pt x="842" y="1588" on="1"/>
        <pt x="842" y="226" on="1"/>
      </contour>
      <contour>
        <pt x="284" y="368" on="1"/>
        <pt x="700" y="368" on="1"/>
        <pt x="700" y="1447" on="1"/>
        <pt x="284" y="1447" on="1"/>
      </contour>
    </TTGlyph>
    <TTGlyph name="pehfinalarabic" xMin="142" yMin="226" xMax="842" yMax="1588">
      <contour>
        <pt x="142" y="226" on="1"/>
        <pt x="142" y="1588" on="1"/>
        <pt x="842" y="1588" on="1"/>
        <pt x="842" y="226" on="1"/>
      </contour>
      <contour>
        <pt x="284" y="368" on="1"/>
        <pt x="700" y="368" on="1"/>
        <pt x="700" y="1447" on="1"/>
        <pt x="284" y="1447" on="1"/>
      </contour>
    </TTGlyph>
    <TTGlyph name="pehinitialarabic" xMin="142" yMin="226" xMax="842" yMax="1588">
      <contour>
        <pt x="142" y="226" on="1"/>
        <pt x="142" y="1588" on="1"/>
        <pt x="842" y="1588" on="1"/>
        <pt x="842" y="226" on="1"/>
      </contour>
      <contour>
        <pt x="284" y="368" on="1"/>
        <pt x="700" y="368" on="1"/>
        <pt x="700" y="1447" on="1"/>
        <pt x="284" y="1447" on="1"/>
      </contour>
    </TTGlyph>
    <TTGlyph name="pehmedialarabic" xMin="142" yMin="226" xMax="842" yMax="1588">
      <contour>
        <pt x="142" y="226" on="1"/>
        <pt x="142" y="1588" on="1"/>
        <pt x="842" y="1588" on="1"/>
        <pt x="842" y="226" on="1"/>
      </contour>
      <contour>
        <pt x="284" y="368" on="1"/>
        <pt x="700" y="368" on="1"/>
        <pt x="700" y="1447" on="1"/>
        <pt x="284" y="1447" on="1"/>
      </contour>
    </TTGlyph>
    <TTGlyph name="percent" xMin="142" yMin="226" xMax="842" yMax="1588">
      <contour>
        <pt x="142" y="226" on="1"/>
        <pt x="142" y="1588" on="1"/>
        <pt x="842" y="1588" on="1"/>
        <pt x="842" y="226" on="1"/>
      </contour>
      <contour>
        <pt x="284" y="368" on="1"/>
        <pt x="700" y="368" on="1"/>
        <pt x="700" y="1447" on="1"/>
        <pt x="284" y="1447" on="1"/>
      </contour>
    </TTGlyph>
    <TTGlyph name="period" xMin="142" yMin="226" xMax="842" yMax="1588">
      <contour>
        <pt x="142" y="226" on="1"/>
        <pt x="142" y="1588" on="1"/>
        <pt x="842" y="1588" on="1"/>
        <pt x="842" y="226" on="1"/>
      </contour>
      <contour>
        <pt x="284" y="368" on="1"/>
        <pt x="700" y="368" on="1"/>
        <pt x="700" y="1447" on="1"/>
        <pt x="284" y="1447" on="1"/>
      </contour>
    </TTGlyph>
    <TTGlyph name="plus" xMin="142" yMin="226" xMax="842" yMax="1588">
      <contour>
        <pt x="142" y="226" on="1"/>
        <pt x="142" y="1588" on="1"/>
        <pt x="842" y="1588" on="1"/>
        <pt x="842" y="226" on="1"/>
      </contour>
      <contour>
        <pt x="284" y="368" on="1"/>
        <pt x="700" y="368" on="1"/>
        <pt x="700" y="1447" on="1"/>
        <pt x="284" y="1447" on="1"/>
      </contour>
    </TTGlyph>
    <TTGlyph name="quotedbl" xMin="142" yMin="226" xMax="842" yMax="1588">
      <contour>
        <pt x="142" y="226" on="1"/>
        <pt x="142" y="1588" on="1"/>
        <pt x="842" y="1588" on="1"/>
        <pt x="842" y="226" on="1"/>
      </contour>
      <contour>
        <pt x="284" y="368" on="1"/>
        <pt x="700" y="368" on="1"/>
        <pt x="700" y="1447" on="1"/>
        <pt x="284" y="1447" on="1"/>
      </contour>
    </TTGlyph>
    <TTGlyph name="quotesingle" xMin="142" yMin="226" xMax="842" yMax="1588">
      <contour>
        <pt x="142" y="226" on="1"/>
        <pt x="142" y="1588" on="1"/>
        <pt x="842" y="1588" on="1"/>
        <pt x="842" y="226" on="1"/>
      </contour>
      <contour>
        <pt x="284" y="368" on="1"/>
        <pt x="700" y="368" on="1"/>
        <pt x="700" y="1447" on="1"/>
        <pt x="284" y="1447" on="1"/>
      </contour>
    </TTGlyph>
    <TTGlyph name="rehdotbelowdotabovefinal" xMin="142" yMin="226" xMax="842" yMax="1588">
      <contour>
        <pt x="142" y="226" on="1"/>
        <pt x="142" y="1588" on="1"/>
        <pt x="842" y="1588" on="1"/>
        <pt x="842" y="226" on="1"/>
      </contour>
      <contour>
        <pt x="284" y="368" on="1"/>
        <pt x="700" y="368" on="1"/>
        <pt x="700" y="1447" on="1"/>
        <pt x="284" y="1447" on="1"/>
      </contour>
    </TTGlyph>
    <TTGlyph name="rehringfinal" xMin="142" yMin="226" xMax="842" yMax="1588">
      <contour>
        <pt x="142" y="226" on="1"/>
        <pt x="142" y="1588" on="1"/>
        <pt x="842" y="1588" on="1"/>
        <pt x="842" y="226" on="1"/>
      </contour>
      <contour>
        <pt x="284" y="368" on="1"/>
        <pt x="700" y="368" on="1"/>
        <pt x="700" y="1447" on="1"/>
        <pt x="284" y="1447" on="1"/>
      </contour>
    </TTGlyph>
    <TTGlyph name="rrehfinalarabic" xMin="142" yMin="226" xMax="842" yMax="1588">
      <contour>
        <pt x="142" y="226" on="1"/>
        <pt x="142" y="1588" on="1"/>
        <pt x="842" y="1588" on="1"/>
        <pt x="842" y="226" on="1"/>
      </contour>
      <contour>
        <pt x="284" y="368" on="1"/>
        <pt x="700" y="368" on="1"/>
        <pt x="700" y="1447" on="1"/>
        <pt x="284" y="1447" on="1"/>
      </contour>
    </TTGlyph>
    <TTGlyph name="seendotbelowdotabovefinal" xMin="142" yMin="226" xMax="842" yMax="1588">
      <contour>
        <pt x="142" y="226" on="1"/>
        <pt x="142" y="1588" on="1"/>
        <pt x="842" y="1588" on="1"/>
        <pt x="842" y="226" on="1"/>
      </contour>
      <contour>
        <pt x="284" y="368" on="1"/>
        <pt x="700" y="368" on="1"/>
        <pt x="700" y="1447" on="1"/>
        <pt x="284" y="1447" on="1"/>
      </contour>
    </TTGlyph>
    <TTGlyph name="seendotbelowdotaboveinitial" xMin="142" yMin="226" xMax="842" yMax="1588">
      <contour>
        <pt x="142" y="226" on="1"/>
        <pt x="142" y="1588" on="1"/>
        <pt x="842" y="1588" on="1"/>
        <pt x="842" y="226" on="1"/>
      </contour>
      <contour>
        <pt x="284" y="368" on="1"/>
        <pt x="700" y="368" on="1"/>
        <pt x="700" y="1447" on="1"/>
        <pt x="284" y="1447" on="1"/>
      </contour>
    </TTGlyph>
    <TTGlyph name="seendotbelowdotabovemedial" xMin="142" yMin="226" xMax="842" yMax="1588">
      <contour>
        <pt x="142" y="226" on="1"/>
        <pt x="142" y="1588" on="1"/>
        <pt x="842" y="1588" on="1"/>
        <pt x="842" y="226" on="1"/>
      </contour>
      <contour>
        <pt x="284" y="368" on="1"/>
        <pt x="700" y="368" on="1"/>
        <pt x="700" y="1447" on="1"/>
        <pt x="284" y="1447" on="1"/>
      </contour>
    </TTGlyph>
    <TTGlyph name="shaddadammaarabic" xMin="142" yMin="226" xMax="842" yMax="1588">
      <contour>
        <pt x="142" y="226" on="1"/>
        <pt x="142" y="1588" on="1"/>
        <pt x="842" y="1588" on="1"/>
        <pt x="842" y="226" on="1"/>
      </contour>
      <contour>
        <pt x="284" y="368" on="1"/>
        <pt x="700" y="368" on="1"/>
        <pt x="700" y="1447" on="1"/>
        <pt x="284" y="1447" on="1"/>
      </contour>
    </TTGlyph>
    <TTGlyph name="shaddadammatanarabic" xMin="142" yMin="226" xMax="842" yMax="1588">
      <contour>
        <pt x="142" y="226" on="1"/>
        <pt x="142" y="1588" on="1"/>
        <pt x="842" y="1588" on="1"/>
        <pt x="842" y="226" on="1"/>
      </contour>
      <contour>
        <pt x="284" y="368" on="1"/>
        <pt x="700" y="368" on="1"/>
        <pt x="700" y="1447" on="1"/>
        <pt x="284" y="1447" on="1"/>
      </contour>
    </TTGlyph>
    <TTGlyph name="shaddafathaarabic" xMin="142" yMin="226" xMax="842" yMax="1588">
      <contour>
        <pt x="142" y="226" on="1"/>
        <pt x="142" y="1588" on="1"/>
        <pt x="842" y="1588" on="1"/>
        <pt x="842" y="226" on="1"/>
      </contour>
      <contour>
        <pt x="284" y="368" on="1"/>
        <pt x="700" y="368" on="1"/>
        <pt x="700" y="1447" on="1"/>
        <pt x="284" y="1447" on="1"/>
      </contour>
    </TTGlyph>
    <TTGlyph name="shaddakasraarabic" xMin="142" yMin="226" xMax="842" yMax="1588">
      <contour>
        <pt x="142" y="226" on="1"/>
        <pt x="142" y="1588" on="1"/>
        <pt x="842" y="1588" on="1"/>
        <pt x="842" y="226" on="1"/>
      </contour>
      <contour>
        <pt x="284" y="368" on="1"/>
        <pt x="700" y="368" on="1"/>
        <pt x="700" y="1447" on="1"/>
        <pt x="284" y="1447" on="1"/>
      </contour>
    </TTGlyph>
    <TTGlyph name="shaddakasratanarabic" xMin="142" yMin="226" xMax="842" yMax="1588">
      <contour>
        <pt x="142" y="226" on="1"/>
        <pt x="142" y="1588" on="1"/>
        <pt x="842" y="1588" on="1"/>
        <pt x="842" y="226" on="1"/>
      </contour>
      <contour>
        <pt x="284" y="368" on="1"/>
        <pt x="700" y="368" on="1"/>
        <pt x="700" y="1447" on="1"/>
        <pt x="284" y="1447" on="1"/>
      </contour>
    </TTGlyph>
    <TTGlyph name="slash" xMin="142" yMin="226" xMax="842" yMax="1588">
      <contour>
        <pt x="142" y="226" on="1"/>
        <pt x="142" y="1588" on="1"/>
        <pt x="842" y="1588" on="1"/>
        <pt x="842" y="226" on="1"/>
      </contour>
      <contour>
        <pt x="284" y="368" on="1"/>
        <pt x="700" y="368" on="1"/>
        <pt x="700" y="1447" on="1"/>
        <pt x="284" y="1447" on="1"/>
      </contour>
    </TTGlyph>
    <TTGlyph name="space" xMin="142" yMin="226" xMax="842" yMax="1588">
      <contour>
        <pt x="142" y="226" on="1"/>
        <pt x="142" y="1588" on="1"/>
        <pt x="842" y="1588" on="1"/>
        <pt x="842" y="226" on="1"/>
      </contour>
      <contour>
        <pt x="284" y="368" on="1"/>
        <pt x="700" y="368" on="1"/>
        <pt x="700" y="1447" on="1"/>
        <pt x="284" y="1447" on="1"/>
      </contour>
    </TTGlyph>
    <TTGlyph name="tchehfinalarabic" xMin="142" yMin="226" xMax="842" yMax="1588">
      <contour>
        <pt x="142" y="226" on="1"/>
        <pt x="142" y="1588" on="1"/>
        <pt x="842" y="1588" on="1"/>
        <pt x="842" y="226" on="1"/>
      </contour>
      <contour>
        <pt x="284" y="368" on="1"/>
        <pt x="700" y="368" on="1"/>
        <pt x="700" y="1447" on="1"/>
        <pt x="284" y="1447" on="1"/>
      </contour>
    </TTGlyph>
    <TTGlyph name="tchehinitialarabic" xMin="142" yMin="226" xMax="842" yMax="1588">
      <contour>
        <pt x="142" y="226" on="1"/>
        <pt x="142" y="1588" on="1"/>
        <pt x="842" y="1588" on="1"/>
        <pt x="842" y="226" on="1"/>
      </contour>
      <contour>
        <pt x="284" y="368" on="1"/>
        <pt x="700" y="368" on="1"/>
        <pt x="700" y="1447" on="1"/>
        <pt x="284" y="1447" on="1"/>
      </contour>
    </TTGlyph>
    <TTGlyph name="tchehmedialarabic" xMin="142" yMin="226" xMax="842" yMax="1588">
      <contour>
        <pt x="142" y="226" on="1"/>
        <pt x="142" y="1588" on="1"/>
        <pt x="842" y="1588" on="1"/>
        <pt x="842" y="226" on="1"/>
      </contour>
      <contour>
        <pt x="284" y="368" on="1"/>
        <pt x="700" y="368" on="1"/>
        <pt x="700" y="1447" on="1"/>
        <pt x="284" y="1447" on="1"/>
      </contour>
    </TTGlyph>
    <TTGlyph name="tehhahisolatedarabic" xMin="142" yMin="226" xMax="842" yMax="1588">
      <contour>
        <pt x="142" y="226" on="1"/>
        <pt x="142" y="1588" on="1"/>
        <pt x="842" y="1588" on="1"/>
        <pt x="842" y="226" on="1"/>
      </contour>
      <contour>
        <pt x="284" y="368" on="1"/>
        <pt x="700" y="368" on="1"/>
        <pt x="700" y="1447" on="1"/>
        <pt x="284" y="1447" on="1"/>
      </contour>
    </TTGlyph>
    <TTGlyph name="tehjeemisolatedarabic" xMin="142" yMin="226" xMax="842" yMax="1588">
      <contour>
        <pt x="142" y="226" on="1"/>
        <pt x="142" y="1588" on="1"/>
        <pt x="842" y="1588" on="1"/>
        <pt x="842" y="226" on="1"/>
      </contour>
      <contour>
        <pt x="284" y="368" on="1"/>
        <pt x="700" y="368" on="1"/>
        <pt x="700" y="1447" on="1"/>
        <pt x="284" y="1447" on="1"/>
      </contour>
    </TTGlyph>
    <TTGlyph name="tehmeemisolatedarabic" xMin="142" yMin="226" xMax="842" yMax="1588">
      <contour>
        <pt x="142" y="226" on="1"/>
        <pt x="142" y="1588" on="1"/>
        <pt x="842" y="1588" on="1"/>
        <pt x="842" y="226" on="1"/>
      </contour>
      <contour>
        <pt x="284" y="368" on="1"/>
        <pt x="700" y="368" on="1"/>
        <pt x="700" y="1447" on="1"/>
        <pt x="284" y="1447" on="1"/>
      </contour>
    </TTGlyph>
    <TTGlyph name="tehnoonfinalarabic" xMin="142" yMin="226" xMax="842" yMax="1588">
      <contour>
        <pt x="142" y="226" on="1"/>
        <pt x="142" y="1588" on="1"/>
        <pt x="842" y="1588" on="1"/>
        <pt x="842" y="226" on="1"/>
      </contour>
      <contour>
        <pt x="284" y="368" on="1"/>
        <pt x="700" y="368" on="1"/>
        <pt x="700" y="1447" on="1"/>
        <pt x="284" y="1447" on="1"/>
      </contour>
    </TTGlyph>
    <TTGlyph name="tehringfinal" xMin="142" yMin="226" xMax="842" yMax="1588">
      <contour>
        <pt x="142" y="226" on="1"/>
        <pt x="142" y="1588" on="1"/>
        <pt x="842" y="1588" on="1"/>
        <pt x="842" y="226" on="1"/>
      </contour>
      <contour>
        <pt x="284" y="368" on="1"/>
        <pt x="700" y="368" on="1"/>
        <pt x="700" y="1447" on="1"/>
        <pt x="284" y="1447" on="1"/>
      </contour>
    </TTGlyph>
    <TTGlyph name="tehringinitial" xMin="142" yMin="226" xMax="842" yMax="1588">
      <contour>
        <pt x="142" y="226" on="1"/>
        <pt x="142" y="1588" on="1"/>
        <pt x="842" y="1588" on="1"/>
        <pt x="842" y="226" on="1"/>
      </contour>
      <contour>
        <pt x="284" y="368" on="1"/>
        <pt x="700" y="368" on="1"/>
        <pt x="700" y="1447" on="1"/>
        <pt x="284" y="1447" on="1"/>
      </contour>
    </TTGlyph>
    <TTGlyph name="tehringmedial" xMin="142" yMin="226" xMax="842" yMax="1588">
      <contour>
        <pt x="142" y="226" on="1"/>
        <pt x="142" y="1588" on="1"/>
        <pt x="842" y="1588" on="1"/>
        <pt x="842" y="226" on="1"/>
      </contour>
      <contour>
        <pt x="284" y="368" on="1"/>
        <pt x="700" y="368" on="1"/>
        <pt x="700" y="1447" on="1"/>
        <pt x="284" y="1447" on="1"/>
      </contour>
    </TTGlyph>
    <TTGlyph name="ttehfinalarabic" xMin="142" yMin="226" xMax="842" yMax="1588">
      <contour>
        <pt x="142" y="226" on="1"/>
        <pt x="142" y="1588" on="1"/>
        <pt x="842" y="1588" on="1"/>
        <pt x="842" y="226" on="1"/>
      </contour>
      <contour>
        <pt x="284" y="368" on="1"/>
        <pt x="700" y="368" on="1"/>
        <pt x="700" y="1447" on="1"/>
        <pt x="284" y="1447" on="1"/>
      </contour>
    </TTGlyph>
    <TTGlyph name="ttehinitialarabic" xMin="142" yMin="226" xMax="842" yMax="1588">
      <contour>
        <pt x="142" y="226" on="1"/>
        <pt x="142" y="1588" on="1"/>
        <pt x="842" y="1588" on="1"/>
        <pt x="842" y="226" on="1"/>
      </contour>
      <contour>
        <pt x="284" y="368" on="1"/>
        <pt x="700" y="368" on="1"/>
        <pt x="700" y="1447" on="1"/>
        <pt x="284" y="1447" on="1"/>
      </contour>
    </TTGlyph>
    <TTGlyph name="ttehmedialarabic" xMin="142" yMin="226" xMax="842" yMax="1588">
      <contour>
        <pt x="142" y="226" on="1"/>
        <pt x="142" y="1588" on="1"/>
        <pt x="842" y="1588" on="1"/>
        <pt x="842" y="226" on="1"/>
      </contour>
      <contour>
        <pt x="284" y="368" on="1"/>
        <pt x="700" y="368" on="1"/>
        <pt x="700" y="1447" on="1"/>
        <pt x="284" y="1447" on="1"/>
      </contour>
    </TTGlyph>
    <TTGlyph name="uni000D" xMin="142" yMin="226" xMax="842" yMax="1588">
      <contour>
        <pt x="142" y="226" on="1"/>
        <pt x="142" y="1588" on="1"/>
        <pt x="842" y="1588" on="1"/>
        <pt x="842" y="226" on="1"/>
      </contour>
      <contour>
        <pt x="284" y="368" on="1"/>
        <pt x="700" y="368" on="1"/>
        <pt x="700" y="1447" on="1"/>
        <pt x="284" y="1447" on="1"/>
      </contour>
    </TTGlyph>
    <TTGlyph name="uni00A0" xMin="142" yMin="226" xMax="842" yMax="1588">
      <contour>
        <pt x="142" y="226" on="1"/>
        <pt x="142" y="1588" on="1"/>
        <pt x="842" y="1588" on="1"/>
        <pt x="842" y="226" on="1"/>
      </contour>
      <contour>
        <pt x="284" y="368" on="1"/>
        <pt x="700" y="368" on="1"/>
        <pt x="700" y="1447" on="1"/>
        <pt x="284" y="1447" on="1"/>
      </contour>
    </TTGlyph>
    <TTGlyph name="uni00AD" xMin="142" yMin="226" xMax="842" yMax="1588">
      <contour>
        <pt x="142" y="226" on="1"/>
        <pt x="142" y="1588" on="1"/>
        <pt x="842" y="1588" on="1"/>
        <pt x="842" y="226" on="1"/>
      </contour>
      <contour>
        <pt x="284" y="368" on="1"/>
        <pt x="700" y="368" on="1"/>
        <pt x="700" y="1447" on="1"/>
        <pt x="284" y="1447" on="1"/>
      </contour>
    </TTGlyph>
    <TTGlyph name="uni0653" xMin="142" yMin="226" xMax="842" yMax="1588">
      <contour>
        <pt x="142" y="226" on="1"/>
        <pt x="142" y="1588" on="1"/>
        <pt x="842" y="1588" on="1"/>
        <pt x="842" y="226" on="1"/>
      </contour>
      <contour>
        <pt x="284" y="368" on="1"/>
        <pt x="700" y="368" on="1"/>
        <pt x="700" y="1447" on="1"/>
        <pt x="284" y="1447" on="1"/>
      </contour>
    </TTGlyph>
    <TTGlyph name="uni0654" xMin="142" yMin="226" xMax="842" yMax="1588">
      <contour>
        <pt x="142" y="226" on="1"/>
        <pt x="142" y="1588" on="1"/>
        <pt x="842" y="1588" on="1"/>
        <pt x="842" y="226" on="1"/>
      </contour>
      <contour>
        <pt x="284" y="368" on="1"/>
        <pt x="700" y="368" on="1"/>
        <pt x="700" y="1447" on="1"/>
        <pt x="284" y="1447" on="1"/>
      </contour>
    </TTGlyph>
    <TTGlyph name="uni0655" xMin="142" yMin="226" xMax="842" yMax="1588">
      <contour>
        <pt x="142" y="226" on="1"/>
        <pt x="142" y="1588" on="1"/>
        <pt x="842" y="1588" on="1"/>
        <pt x="842" y="226" on="1"/>
      </contour>
      <contour>
        <pt x="284" y="368" on="1"/>
        <pt x="700" y="368" on="1"/>
        <pt x="700" y="1447" on="1"/>
        <pt x="284" y="1447" on="1"/>
      </contour>
    </TTGlyph>
    <TTGlyph name="uni066B" xMin="142" yMin="226" xMax="842" yMax="1588">
      <contour>
        <pt x="142" y="226" on="1"/>
        <pt x="142" y="1588" on="1"/>
        <pt x="842" y="1588" on="1"/>
        <pt x="842" y="226" on="1"/>
      </contour>
      <contour>
        <pt x="284" y="368" on="1"/>
        <pt x="700" y="368" on="1"/>
        <pt x="700" y="1447" on="1"/>
        <pt x="284" y="1447" on="1"/>
      </contour>
    </TTGlyph>
    <TTGlyph name="uni066C" xMin="142" yMin="226" xMax="842" yMax="1588">
      <contour>
        <pt x="142" y="226" on="1"/>
        <pt x="142" y="1588" on="1"/>
        <pt x="842" y="1588" on="1"/>
        <pt x="842" y="226" on="1"/>
      </contour>
      <contour>
        <pt x="284" y="368" on="1"/>
        <pt x="700" y="368" on="1"/>
        <pt x="700" y="1447" on="1"/>
        <pt x="284" y="1447" on="1"/>
      </contour>
    </TTGlyph>
    <TTGlyph name="uni0671" xMin="142" yMin="226" xMax="842" yMax="1588">
      <contour>
        <pt x="142" y="226" on="1"/>
        <pt x="142" y="1588" on="1"/>
        <pt x="842" y="1588" on="1"/>
        <pt x="842" y="226" on="1"/>
      </contour>
      <contour>
        <pt x="284" y="368" on="1"/>
        <pt x="700" y="368" on="1"/>
        <pt x="700" y="1447" on="1"/>
        <pt x="284" y="1447" on="1"/>
      </contour>
    </TTGlyph>
    <TTGlyph name="uni067C" xMin="142" yMin="226" xMax="842" yMax="1588">
      <contour>
        <pt x="142" y="226" on="1"/>
        <pt x="142" y="1588" on="1"/>
        <pt x="842" y="1588" on="1"/>
        <pt x="842" y="226" on="1"/>
      </contour>
      <contour>
        <pt x="284" y="368" on="1"/>
        <pt x="700" y="368" on="1"/>
        <pt x="700" y="1447" on="1"/>
        <pt x="284" y="1447" on="1"/>
      </contour>
    </TTGlyph>
    <TTGlyph name="uni0681" xMin="142" yMin="226" xMax="842" yMax="1588">
      <contour>
        <pt x="142" y="226" on="1"/>
        <pt x="142" y="1588" on="1"/>
        <pt x="842" y="1588" on="1"/>
        <pt x="842" y="226" on="1"/>
      </contour>
      <contour>
        <pt x="284" y="368" on="1"/>
        <pt x="700" y="368" on="1"/>
        <pt x="700" y="1447" on="1"/>
        <pt x="284" y="1447" on="1"/>
      </contour>
    </TTGlyph>
    <TTGlyph name="uni0685" xMin="142" yMin="226" xMax="842" yMax="1588">
      <contour>
        <pt x="142" y="226" on="1"/>
        <pt x="142" y="1588" on="1"/>
        <pt x="842" y="1588" on="1"/>
        <pt x="842" y="226" on="1"/>
      </contour>
      <contour>
        <pt x="284" y="368" on="1"/>
        <pt x="700" y="368" on="1"/>
        <pt x="700" y="1447" on="1"/>
        <pt x="284" y="1447" on="1"/>
      </contour>
    </TTGlyph>
    <TTGlyph name="uni0689" xMin="142" yMin="226" xMax="842" yMax="1588">
      <contour>
        <pt x="142" y="226" on="1"/>
        <pt x="142" y="1588" on="1"/>
        <pt x="842" y="1588" on="1"/>
        <pt x="842" y="226" on="1"/>
      </contour>
      <contour>
        <pt x="284" y="368" on="1"/>
        <pt x="700" y="368" on="1"/>
        <pt x="700" y="1447" on="1"/>
        <pt x="284" y="1447" on="1"/>
      </contour>
    </TTGlyph>
    <TTGlyph name="uni0693" xMin="142" yMin="226" xMax="842" yMax="1588">
      <contour>
        <pt x="142" y="226" on="1"/>
        <pt x="142" y="1588" on="1"/>
        <pt x="842" y="1588" on="1"/>
        <pt x="842" y="226" on="1"/>
      </contour>
      <contour>
        <pt x="284" y="368" on="1"/>
        <pt x="700" y="368" on="1"/>
        <pt x="700" y="1447" on="1"/>
        <pt x="284" y="1447" on="1"/>
      </contour>
    </TTGlyph>
    <TTGlyph name="uni0696" xMin="142" yMin="226" xMax="842" yMax="1588">
      <contour>
        <pt x="142" y="226" on="1"/>
        <pt x="142" y="1588" on="1"/>
        <pt x="842" y="1588" on="1"/>
        <pt x="842" y="226" on="1"/>
      </contour>
      <contour>
        <pt x="284" y="368" on="1"/>
        <pt x="700" y="368" on="1"/>
        <pt x="700" y="1447" on="1"/>
        <pt x="284" y="1447" on="1"/>
      </contour>
    </TTGlyph>
    <TTGlyph name="uni069A" xMin="142" yMin="226" xMax="842" yMax="1588">
      <contour>
        <pt x="142" y="226" on="1"/>
        <pt x="142" y="1588" on="1"/>
        <pt x="842" y="1588" on="1"/>
        <pt x="842" y="226" on="1"/>
      </contour>
      <contour>
        <pt x="284" y="368" on="1"/>
        <pt x="700" y="368" on="1"/>
        <pt x="700" y="1447" on="1"/>
        <pt x="284" y="1447" on="1"/>
      </contour>
    </TTGlyph>
    <TTGlyph name="uni06A9" xMin="142" yMin="226" xMax="842" yMax="1588">
      <contour>
        <pt x="142" y="226" on="1"/>
        <pt x="142" y="1588" on="1"/>
        <pt x="842" y="1588" on="1"/>
        <pt x="842" y="226" on="1"/>
      </contour>
      <contour>
        <pt x="284" y="368" on="1"/>
        <pt x="700" y="368" on="1"/>
        <pt x="700" y="1447" on="1"/>
        <pt x="284" y="1447" on="1"/>
      </contour>
    </TTGlyph>
    <TTGlyph name="uni06AB" xMin="142" yMin="226" xMax="842" yMax="1588">
      <contour>
        <pt x="142" y="226" on="1"/>
        <pt x="142" y="1588" on="1"/>
        <pt x="842" y="1588" on="1"/>
        <pt x="842" y="226" on="1"/>
      </contour>
      <contour>
        <pt x="284" y="368" on="1"/>
        <pt x="700" y="368" on="1"/>
        <pt x="700" y="1447" on="1"/>
        <pt x="284" y="1447" on="1"/>
      </contour>
    </TTGlyph>
    <TTGlyph name="uni06B7" xMin="142" yMin="226" xMax="842" yMax="1588">
      <contour>
        <pt x="142" y="226" on="1"/>
        <pt x="142" y="1588" on="1"/>
        <pt x="842" y="1588" on="1"/>
        <pt x="842" y="226" on="1"/>
      </contour>
      <contour>
        <pt x="284" y="368" on="1"/>
        <pt x="700" y="368" on="1"/>
        <pt x="700" y="1447" on="1"/>
        <pt x="284" y="1447" on="1"/>
      </contour>
    </TTGlyph>
    <TTGlyph name="uni06BC" xMin="142" yMin="226" xMax="842" yMax="1588">
      <contour>
        <pt x="142" y="226" on="1"/>
        <pt x="142" y="1588" on="1"/>
        <pt x="842" y="1588" on="1"/>
        <pt x="842" y="226" on="1"/>
      </contour>
      <contour>
        <pt x="284" y="368" on="1"/>
        <pt x="700" y="368" on="1"/>
        <pt x="700" y="1447" on="1"/>
        <pt x="284" y="1447" on="1"/>
      </contour>
    </TTGlyph>
    <TTGlyph name="uni06BE" xMin="142" yMin="226" xMax="842" yMax="1588">
      <contour>
        <pt x="142" y="226" on="1"/>
        <pt x="142" y="1588" on="1"/>
        <pt x="842" y="1588" on="1"/>
        <pt x="842" y="226" on="1"/>
      </contour>
      <contour>
        <pt x="284" y="368" on="1"/>
        <pt x="700" y="368" on="1"/>
        <pt x="700" y="1447" on="1"/>
        <pt x="284" y="1447" on="1"/>
      </contour>
    </TTGlyph>
    <TTGlyph name="uni06C2" xMin="142" yMin="226" xMax="842" yMax="1588">
      <contour>
        <pt x="142" y="226" on="1"/>
        <pt x="142" y="1588" on="1"/>
        <pt x="842" y="1588" on="1"/>
        <pt x="842" y="226" on="1"/>
      </contour>
      <contour>
        <pt x="284" y="368" on="1"/>
        <pt x="700" y="368" on="1"/>
        <pt x="700" y="1447" on="1"/>
        <pt x="284" y="1447" on="1"/>
      </contour>
    </TTGlyph>
    <TTGlyph name="uni06C7" xMin="142" yMin="226" xMax="842" yMax="1588">
      <contour>
        <pt x="142" y="226" on="1"/>
        <pt x="142" y="1588" on="1"/>
        <pt x="842" y="1588" on="1"/>
        <pt x="842" y="226" on="1"/>
      </contour>
      <contour>
        <pt x="284" y="368" on="1"/>
        <pt x="700" y="368" on="1"/>
        <pt x="700" y="1447" on="1"/>
        <pt x="284" y="1447" on="1"/>
      </contour>
    </TTGlyph>
    <TTGlyph name="uni06C9" xMin="142" yMin="226" xMax="842" yMax="1588">
      <contour>
        <pt x="142" y="226" on="1"/>
        <pt x="142" y="1588" on="1"/>
        <pt x="842" y="1588" on="1"/>
        <pt x="842" y="226" on="1"/>
      </contour>
      <contour>
        <pt x="284" y="368" on="1"/>
        <pt x="700" y="368" on="1"/>
        <pt x="700" y="1447" on="1"/>
        <pt x="284" y="1447" on="1"/>
      </contour>
    </TTGlyph>
    <TTGlyph name="uni06CC" xMin="142" yMin="226" xMax="842" yMax="1588">
      <contour>
        <pt x="142" y="226" on="1"/>
        <pt x="142" y="1588" on="1"/>
        <pt x="842" y="1588" on="1"/>
        <pt x="842" y="226" on="1"/>
      </contour>
      <contour>
        <pt x="284" y="368" on="1"/>
        <pt x="700" y="368" on="1"/>
        <pt x="700" y="1447" on="1"/>
        <pt x="284" y="1447" on="1"/>
      </contour>
    </TTGlyph>
    <TTGlyph name="uni06CD" xMin="142" yMin="226" xMax="842" yMax="1588">
      <contour>
        <pt x="142" y="226" on="1"/>
        <pt x="142" y="1588" on="1"/>
        <pt x="842" y="1588" on="1"/>
        <pt x="842" y="226" on="1"/>
      </contour>
      <contour>
        <pt x="284" y="368" on="1"/>
        <pt x="700" y="368" on="1"/>
        <pt x="700" y="1447" on="1"/>
        <pt x="284" y="1447" on="1"/>
      </contour>
    </TTGlyph>
    <TTGlyph name="uni06D0" xMin="142" yMin="226" xMax="842" yMax="1588">
      <contour>
        <pt x="142" y="226" on="1"/>
        <pt x="142" y="1588" on="1"/>
        <pt x="842" y="1588" on="1"/>
        <pt x="842" y="226" on="1"/>
      </contour>
      <contour>
        <pt x="284" y="368" on="1"/>
        <pt x="700" y="368" on="1"/>
        <pt x="700" y="1447" on="1"/>
        <pt x="284" y="1447" on="1"/>
      </contour>
    </TTGlyph>
    <TTGlyph name="uni06D1" xMin="142" yMin="226" xMax="842" yMax="1588">
      <contour>
        <pt x="142" y="226" on="1"/>
        <pt x="142" y="1588" on="1"/>
        <pt x="842" y="1588" on="1"/>
        <pt x="842" y="226" on="1"/>
      </contour>
      <contour>
        <pt x="284" y="368" on="1"/>
        <pt x="700" y="368" on="1"/>
        <pt x="700" y="1447" on="1"/>
        <pt x="284" y="1447" on="1"/>
      </contour>
    </TTGlyph>
    <TTGlyph name="uni06D3" xMin="142" yMin="226" xMax="842" yMax="1588">
      <contour>
        <pt x="142" y="226" on="1"/>
        <pt x="142" y="1588" on="1"/>
        <pt x="842" y="1588" on="1"/>
        <pt x="842" y="226" on="1"/>
      </contour>
      <contour>
        <pt x="284" y="368" on="1"/>
        <pt x="700" y="368" on="1"/>
        <pt x="700" y="1447" on="1"/>
        <pt x="284" y="1447" on="1"/>
      </contour>
    </TTGlyph>
    <TTGlyph name="uni06D4" xMin="142" yMin="226" xMax="842" yMax="1588">
      <contour>
        <pt x="142" y="226" on="1"/>
        <pt x="142" y="1588" on="1"/>
        <pt x="842" y="1588" on="1"/>
        <pt x="842" y="226" on="1"/>
      </contour>
      <contour>
        <pt x="284" y="368" on="1"/>
        <pt x="700" y="368" on="1"/>
        <pt x="700" y="1447" on="1"/>
        <pt x="284" y="1447" on="1"/>
      </contour>
    </TTGlyph>
    <TTGlyph name="uni06F0" xMin="142" yMin="226" xMax="842" yMax="1588">
      <contour>
        <pt x="142" y="226" on="1"/>
        <pt x="142" y="1588" on="1"/>
        <pt x="842" y="1588" on="1"/>
        <pt x="842" y="226" on="1"/>
      </contour>
      <contour>
        <pt x="284" y="368" on="1"/>
        <pt x="700" y="368" on="1"/>
        <pt x="700" y="1447" on="1"/>
        <pt x="284" y="1447" on="1"/>
      </contour>
    </TTGlyph>
    <TTGlyph name="uni06F1" xMin="142" yMin="226" xMax="842" yMax="1588">
      <contour>
        <pt x="142" y="226" on="1"/>
        <pt x="142" y="1588" on="1"/>
        <pt x="842" y="1588" on="1"/>
        <pt x="842" y="226" on="1"/>
      </contour>
      <contour>
        <pt x="284" y="368" on="1"/>
        <pt x="700" y="368" on="1"/>
        <pt x="700" y="1447" on="1"/>
        <pt x="284" y="1447" on="1"/>
      </contour>
    </TTGlyph>
    <TTGlyph name="uni06F2" xMin="142" yMin="226" xMax="842" yMax="1588">
      <contour>
        <pt x="142" y="226" on="1"/>
        <pt x="142" y="1588" on="1"/>
        <pt x="842" y="1588" on="1"/>
        <pt x="842" y="226" on="1"/>
      </contour>
      <contour>
        <pt x="284" y="368" on="1"/>
        <pt x="700" y="368" on="1"/>
        <pt x="700" y="1447" on="1"/>
        <pt x="284" y="1447" on="1"/>
      </contour>
    </TTGlyph>
    <TTGlyph name="uni06F3" xMin="142" yMin="226" xMax="842" yMax="1588">
      <contour>
        <pt x="142" y="226" on="1"/>
        <pt x="142" y="1588" on="1"/>
        <pt x="842" y="1588" on="1"/>
        <pt x="842" y="226" on="1"/>
      </contour>
      <contour>
        <pt x="284" y="368" on="1"/>
        <pt x="700" y="368" on="1"/>
        <pt x="700" y="1447" on="1"/>
        <pt x="284" y="1447" on="1"/>
      </contour>
    </TTGlyph>
    <TTGlyph name="uni06F4" xMin="142" yMin="226" xMax="842" yMax="1588">
      <contour>
        <pt x="142" y="226" on="1"/>
        <pt x="142" y="1588" on="1"/>
        <pt x="842" y="1588" on="1"/>
        <pt x="842" y="226" on="1"/>
      </contour>
      <contour>
        <pt x="284" y="368" on="1"/>
        <pt x="700" y="368" on="1"/>
        <pt x="700" y="1447" on="1"/>
        <pt x="284" y="1447" on="1"/>
      </contour>
    </TTGlyph>
    <TTGlyph name="uni06F5" xMin="142" yMin="226" xMax="842" yMax="1588">
      <contour>
        <pt x="142" y="226" on="1"/>
        <pt x="142" y="1588" on="1"/>
        <pt x="842" y="1588" on="1"/>
        <pt x="842" y="226" on="1"/>
      </contour>
      <contour>
        <pt x="284" y="368" on="1"/>
        <pt x="700" y="368" on="1"/>
        <pt x="700" y="1447" on="1"/>
        <pt x="284" y="1447" on="1"/>
      </contour>
    </TTGlyph>
    <TTGlyph name="uni06F6" xMin="142" yMin="226" xMax="842" yMax="1588">
      <contour>
        <pt x="142" y="226" on="1"/>
        <pt x="142" y="1588" on="1"/>
        <pt x="842" y="1588" on="1"/>
        <pt x="842" y="226" on="1"/>
      </contour>
      <contour>
        <pt x="284" y="368" on="1"/>
        <pt x="700" y="368" on="1"/>
        <pt x="700" y="1447" on="1"/>
        <pt x="284" y="1447" on="1"/>
      </contour>
    </TTGlyph>
    <TTGlyph name="uni06F7" xMin="142" yMin="226" xMax="842" yMax="1588">
      <contour>
        <pt x="142" y="226" on="1"/>
        <pt x="142" y="1588" on="1"/>
        <pt x="842" y="1588" on="1"/>
        <pt x="842" y="226" on="1"/>
      </contour>
      <contour>
        <pt x="284" y="368" on="1"/>
        <pt x="700" y="368" on="1"/>
        <pt x="700" y="1447" on="1"/>
        <pt x="284" y="1447" on="1"/>
      </contour>
    </TTGlyph>
    <TTGlyph name="uni06F8" xMin="142" yMin="226" xMax="842" yMax="1588">
      <contour>
        <pt x="142" y="226" on="1"/>
        <pt x="142" y="1588" on="1"/>
        <pt x="842" y="1588" on="1"/>
        <pt x="842" y="226" on="1"/>
      </contour>
      <contour>
        <pt x="284" y="368" on="1"/>
        <pt x="700" y="368" on="1"/>
        <pt x="700" y="1447" on="1"/>
        <pt x="284" y="1447" on="1"/>
      </contour>
    </TTGlyph>
    <TTGlyph name="uni06F9" xMin="142" yMin="226" xMax="842" yMax="1588">
      <contour>
        <pt x="142" y="226" on="1"/>
        <pt x="142" y="1588" on="1"/>
        <pt x="842" y="1588" on="1"/>
        <pt x="842" y="226" on="1"/>
      </contour>
      <contour>
        <pt x="284" y="368" on="1"/>
        <pt x="700" y="368" on="1"/>
        <pt x="700" y="1447" on="1"/>
        <pt x="284" y="1447" on="1"/>
      </contour>
    </TTGlyph>
    <TTGlyph name="uni2010" xMin="509" yMin="-432" xMax="4430" yMax="1810">
      <contour>
        <pt x="4082" y="1313" on="1"/>
        <pt x="4082" y="1278" on="0"/>
        <pt x="3834" y="1149" on="1"/>
        <pt x="3669" y="1065" on="0"/>
        <pt x="3505" y="981" on="1"/>
        <pt x="3470" y="981" on="1"/>
        <pt x="3458" y="995" on="0"/>
        <pt x="3458" y="1022" on="1"/>
        <pt x="3458" y="1015" on="0"/>
        <pt x="3471" y="1071" on="1"/>
        <pt x="3725" y="1199" on="0"/>
        <pt x="4025" y="1349" on="1"/>
        <pt x="4059" y="1349" on="1"/>
        <pt x="4082" y="1325" on="0"/>
      </contour>
      <contour>
        <pt x="2987" y="930" on="1"/>
        <pt x="2987" y="900" on="0"/>
        <pt x="2953" y="868" on="1"/>
        <pt x="2923" y="837" on="0"/>
        <pt x="2905" y="837" on="1"/>
        <pt x="2863" y="837" on="0"/>
        <pt x="2814" y="867" on="1"/>
        <pt x="2762" y="899" on="0"/>
        <pt x="2762" y="930" on="1"/>
        <pt x="2762" y="963" on="0"/>
        <pt x="2799" y="999" on="1"/>
        <pt x="2833" y="1032" on="0"/>
        <pt x="2854" y="1032" on="1"/>
        <pt x="2893" y="1032" on="0"/>
        <pt x="2942" y="989" on="1"/>
        <pt x="2987" y="949" on="0"/>
      </contour>
      <contour>
        <pt x="4430" y="314" on="1"/>
        <pt x="4426" y="172" on="0"/>
        <pt x="4282" y="172" on="1"/>
        <pt x="4272" y="172" on="0"/>
        <pt x="4163" y="182" on="0"/>
        <pt x="4149" y="182" on="1"/>
        <pt x="4095" y="182" on="0"/>
        <pt x="3792" y="93" on="1"/>
        <pt x="3505" y="8" on="0"/>
        <pt x="3263" y="8" on="1"/>
        <pt x="3146" y="8" on="0"/>
        <pt x="3141" y="9" on="1"/>
        <pt x="3035" y="35" on="0"/>
        <pt x="2929" y="62" on="1"/>
        <pt x="2922" y="64" on="0"/>
        <pt x="2876" y="90" on="0"/>
        <pt x="2864" y="90" on="1"/>
        <pt x="2854" y="90" on="0"/>
        <pt x="2786" y="64" on="1"/>
        <pt x="2712" y="35" on="0"/>
        <pt x="2686" y="31" on="1"/>
        <pt x="2609" y="18" on="0"/>
        <pt x="2516" y="18" on="1"/>
        <pt x="2423" y="18" on="0"/>
        <pt x="2417" y="21" on="1"/>
        <pt x="2381" y="37" on="0"/>
        <pt x="2328" y="102" on="1"/>
        <pt x="2281" y="161" on="0"/>
        <pt x="2270" y="161" on="1"/>
        <pt x="2258" y="161" on="0"/>
        <pt x="2210" y="127" on="1"/>
        <pt x="2151" y="85" on="0"/>
        <pt x="2124" y="72" on="1"/>
        <pt x="2082" y="53" on="0"/>
        <pt x="1925" y="16" on="1"/>
        <pt x="1757" y="-22" on="0"/>
        <pt x="1697" y="-22" on="1"/>
        <pt x="1684" y="-22" on="0"/>
        <pt x="1326" y="-12" on="0"/>
        <pt x="1313" y="-12" on="1"/>
        <pt x="1303" y="-12" on="0"/>
        <pt x="1195" y="-22" on="0"/>
        <pt x="1180" y="-22" on="1"/>
        <pt x="1168" y="-22" on="0"/>
        <pt x="1078" y="-43" on="0"/>
        <pt x="1067" y="-43" on="1"/>
        <pt x="936" y="-43" on="0"/>
        <pt x="861" y="-30" on="1"/>
        <pt x="805" y="-20" on="0"/>
        <pt x="777" y="-12" on="1"/>
        <pt x="720" y="4" on="0"/>
        <pt x="688" y="32" on="1"/>
        <pt x="634" y="78" on="0"/>
        <pt x="610" y="179" on="1"/>
        <pt x="602" y="215" on="0"/>
        <pt x="587" y="340" on="1"/>
        <pt x="572" y="469" on="0"/>
        <pt x="546" y="729" on="1"/>
        <pt x="543" y="770" on="0"/>
        <pt x="525" y="895" on="1"/>
        <pt x="509" y="1012" on="0"/>
        <pt x="509" y="1022" on="1"/>
        <pt x="509" y="1104" on="0"/>
        <pt x="577" y="1144" on="1"/>
        <pt x="623" y="1057" on="0"/>
        <pt x="634" y="879" on="1"/>
        <pt x="647" y="691" on="0"/>
        <pt x="669" y="640" on="1"/>
        <pt x="665" y="618" on="0"/>
        <pt x="665" y="578" on="1"/>
        <pt x="669" y="562" on="0"/>
        <pt x="688" y="374" on="1"/>
        <pt x="699" y="254" on="0"/>
        <pt x="792" y="148" on="0"/>
        <pt x="855" y="136" on="1"/>
        <pt x="878" y="131" on="0"/>
        <pt x="960" y="131" on="1"/>
        <pt x="1205" y="131" on="0"/>
        <pt x="1205" y="300" on="1"/>
        <pt x="1205" y="383" on="0"/>
        <pt x="1183" y="497" on="1"/>
        <pt x="1167" y="572" on="0"/>
        <pt x="1150" y="647" on="1"/>
        <pt x="1141" y="755" on="0"/>
        <pt x="1109" y="964" on="1"/>
        <pt x="1106" y="978" on="0"/>
        <pt x="1083" y="1021" on="1"/>
        <pt x="1062" y="1059" on="0"/>
        <pt x="1062" y="1073" on="1"/>
        <pt x="1062" y="1173" on="0"/>
        <pt x="1148" y="1257" on="1"/>
        <pt x="1179" y="1239" on="0"/>
        <pt x="1185" y="1207" on="1"/>
        <pt x="1195" y="1157" on="0"/>
        <pt x="1197" y="1152" on="1"/>
        <pt x="1204" y="1138" on="0"/>
        <pt x="1242" y="1108" on="1"/>
        <pt x="1277" y="1080" on="0"/>
        <pt x="1277" y="1067" on="1"/>
        <pt x="1277" y="1055" on="0"/>
        <pt x="1262" y="1025" on="1"/>
        <pt x="1242" y="985" on="0"/>
        <pt x="1238" y="974" on="1"/>
        <pt x="1236" y="967" on="0"/>
        <pt x="1236" y="914" on="1"/>
        <pt x="1236" y="904" on="0"/>
        <pt x="1259" y="780" on="1"/>
        <pt x="1285" y="636" on="0"/>
        <pt x="1294" y="577" on="1"/>
        <pt x="1304" y="499" on="0"/>
        <pt x="1304" y="294" on="1"/>
        <pt x="1493" y="440" on="0"/>
        <pt x="1508" y="451" on="1"/>
        <pt x="1624" y="530" on="0"/>
        <pt x="1697" y="530" on="1"/>
        <pt x="1754" y="530" on="0"/>
        <pt x="1838" y="487" on="1"/>
        <pt x="1932" y="438" on="0"/>
        <pt x="1932" y="387" on="1"/>
        <pt x="1932" y="303" on="0"/>
        <pt x="1840" y="157" on="1"/>
        <pt x="1857" y="141" on="1"/>
        <pt x="1972" y="170" on="0"/>
        <pt x="2087" y="199" on="1"/>
        <pt x="2223" y="244" on="0"/>
        <pt x="2304" y="365" on="1"/>
        <pt x="2351" y="365" on="1"/>
        <pt x="2348" y="343" on="0"/>
        <pt x="2348" y="324" on="1"/>
        <pt x="2348" y="228" on="0"/>
        <pt x="2410" y="195" on="1"/>
        <pt x="2454" y="172" on="0"/>
        <pt x="2562" y="172" on="1"/>
        <pt x="2703" y="172" on="0"/>
        <pt x="2738" y="211" on="1"/>
        <pt x="2747" y="233" on="0"/>
        <pt x="2747" y="259" on="1"/>
        <pt x="2747" y="264" on="0"/>
        <pt x="2736" y="297" on="1"/>
        <pt x="2726" y="326" on="0"/>
        <pt x="2731" y="342" on="1"/>
        <pt x="2828" y="643" on="0"/>
        <pt x="2981" y="643" on="1"/>
        <pt x="3066" y="643" on="0"/>
        <pt x="3113" y="556" on="1"/>
        <pt x="3151" y="489" on="0"/>
        <pt x="3151" y="418" on="1"/>
        <pt x="3151" y="380" on="0"/>
        <pt x="3109" y="242" on="0"/>
        <pt x="3089" y="208" on="1"/>
        <pt x="3144" y="161" on="0"/>
        <pt x="3315" y="161" on="1"/>
        <pt x="3593" y="161" on="0"/>
        <pt x="3827" y="260" on="1"/>
        <pt x="3752" y="346" on="0"/>
        <pt x="3652" y="346" on="1"/>
        <pt x="3644" y="346" on="0"/>
        <pt x="3571" y="336" on="1"/>
        <pt x="3482" y="324" on="0"/>
        <pt x="3397" y="317" on="1"/>
        <pt x="3406" y="398" on="0"/>
        <pt x="3496" y="478" on="1"/>
        <pt x="3579" y="551" on="0"/>
        <pt x="3637" y="551" on="1"/>
        <pt x="3674" y="551" on="0"/>
        <pt x="3823" y="478" on="1"/>
        <pt x="3900" y="438" on="0"/>
        <pt x="3977" y="399" on="1"/>
        <pt x="4036" y="370" on="0"/>
        <pt x="4159" y="338" on="1"/>
        <pt x="4228" y="338" on="0"/>
        <pt x="4297" y="338" on="1"/>
        <pt x="4386" y="336" on="0"/>
      </contour>
      <contour>
        <pt x="1420" y="1784" on="1"/>
        <pt x="1420" y="1736" on="0"/>
        <pt x="1377" y="1710" on="1"/>
        <pt x="1359" y="1700" on="0"/>
        <pt x="1209" y="1629" on="1"/>
        <pt x="1105" y="1580" on="0"/>
        <pt x="1038" y="1524" on="1"/>
        <pt x="1003" y="1524" on="1"/>
        <pt x="990" y="1537" on="0"/>
        <pt x="990" y="1559" on="1"/>
        <pt x="990" y="1625" on="0"/>
        <pt x="1170" y="1720" on="1"/>
        <pt x="1280" y="1777" on="0"/>
        <pt x="1373" y="1810" on="1"/>
        <pt x="1408" y="1810" on="1"/>
        <pt x="1420" y="1808" on="0"/>
      </contour>
      <contour>
        <pt x="3243" y="-160" on="1"/>
        <pt x="3243" y="-208" on="0"/>
        <pt x="3209" y="-224" on="1"/>
        <pt x="3089" y="-282" on="0"/>
        <pt x="2715" y="-432" on="1"/>
        <pt x="2701" y="-420" on="0"/>
        <pt x="2691" y="-420" on="1"/>
        <pt x="2691" y="-376" on="1"/>
        <pt x="2690" y="-340" on="0"/>
        <pt x="2723" y="-323" on="1"/>
        <pt x="2843" y="-265" on="0"/>
        <pt x="3196" y="-126" on="1"/>
        <pt x="3231" y="-126" on="1"/>
        <pt x="3231" y="-129" on="0"/>
        <pt x="3243" y="-146" on="0"/>
      </contour>
      <contour>
        <pt x="1717" y="848" on="1"/>
        <pt x="1717" y="820" on="0"/>
        <pt x="1635" y="745" on="0"/>
        <pt x="1615" y="745" on="1"/>
        <pt x="1582" y="745" on="0"/>
        <pt x="1481" y="823" on="0"/>
        <pt x="1481" y="842" on="1"/>
        <pt x="1481" y="861" on="0"/>
        <pt x="1555" y="940" on="0"/>
        <pt x="1579" y="940" on="1"/>
        <pt x="1605" y="940" on="0"/>
        <pt x="1717" y="867" on="0"/>
      </contour>
      <contour>
        <pt x="1195" y="1463" on="1"/>
        <pt x="815" y="1278" on="0"/>
        <pt x="800" y="1279" on="1"/>
        <pt x="745" y="1279" on="1"/>
        <pt x="745" y="1333" on="1"/>
        <pt x="745" y="1364" on="0"/>
        <pt x="864" y="1413" on="1"/>
        <pt x="938" y="1443" on="0"/>
        <pt x="1014" y="1474" on="1"/>
        <pt x="1114" y="1534" on="0"/>
        <pt x="1140" y="1534" on="1"/>
        <pt x="1182" y="1534" on="1"/>
        <pt x="1195" y="1520" on="1"/>
      </contour>
      <contour>
        <pt x="2495" y="-280" on="1"/>
        <pt x="2498" y="-312" on="0"/>
        <pt x="2471" y="-355" on="1"/>
        <pt x="2441" y="-401" on="0"/>
        <pt x="2408" y="-401" on="1"/>
        <pt x="2396" y="-401" on="0"/>
        <pt x="2293" y="-350" on="0"/>
        <pt x="2280" y="-350" on="1"/>
        <pt x="2268" y="-350" on="0"/>
        <pt x="2201" y="-412" on="0"/>
        <pt x="2188" y="-412" on="1"/>
        <pt x="2160" y="-412" on="0"/>
        <pt x="2098" y="-375" on="1"/>
        <pt x="2034" y="-337" on="0"/>
        <pt x="2034" y="-314" on="1"/>
        <pt x="2034" y="-294" on="0"/>
        <pt x="2070" y="-252" on="1"/>
        <pt x="2106" y="-207" on="0"/>
        <pt x="2132" y="-207" on="1"/>
        <pt x="2145" y="-207" on="0"/>
        <pt x="2237" y="-268" on="0"/>
        <pt x="2250" y="-268" on="1"/>
        <pt x="2260" y="-268" on="0"/>
        <pt x="2339" y="-196" on="0"/>
        <pt x="2352" y="-196" on="1"/>
        <pt x="2379" y="-196" on="0"/>
      </contour>
      <contour>
        <pt x="3049" y="366" on="1"/>
        <pt x="3049" y="389" on="0"/>
        <pt x="3021" y="436" on="1"/>
        <pt x="2990" y="489" on="0"/>
        <pt x="2961" y="489" on="1"/>
        <pt x="2921" y="489" on="0"/>
        <pt x="2875" y="435" on="1"/>
        <pt x="2833" y="385" on="0"/>
        <pt x="2833" y="356" on="1"/>
        <pt x="2833" y="330" on="0"/>
        <pt x="2890" y="274" on="0"/>
        <pt x="2920" y="274" on="1"/>
        <pt x="3049" y="321" on="0"/>
      </contour>
      <contour>
        <pt x="1788" y="287" on="1"/>
        <pt x="1788" y="324" on="1"/>
        <pt x="1680" y="366" on="0"/>
        <pt x="1635" y="366" on="1"/>
        <pt x="1577" y="366" on="0"/>
        <pt x="1476" y="288" on="1"/>
        <pt x="1403" y="225" on="0"/>
        <pt x="1328" y="164" on="1"/>
        <pt x="1435" y="164" on="1"/>
        <pt x="1461" y="161" on="0"/>
        <pt x="1672" y="215" on="1"/>
        <pt x="1698" y="222" on="0"/>
        <pt x="1734" y="248" on="1"/>
        <pt x="1761" y="267" on="0"/>
      </contour>
    </TTGlyph>
    <TTGlyph name="uni2011" xMin="509" yMin="-432" xMax="4430" yMax="1810">
      <contour>
        <pt x="4082" y="1313" on="1"/>
        <pt x="4082" y="1278" on="0"/>
        <pt x="3834" y="1149" on="1"/>
        <pt x="3669" y="1065" on="0"/>
        <pt x="3505" y="981" on="1"/>
        <pt x="3470" y="981" on="1"/>
        <pt x="3458" y="995" on="0"/>
        <pt x="3458" y="1022" on="1"/>
        <pt x="3458" y="1015" on="0"/>
        <pt x="3471" y="1071" on="1"/>
        <pt x="3725" y="1199" on="0"/>
        <pt x="4025" y="1349" on="1"/>
        <pt x="4059" y="1349" on="1"/>
        <pt x="4082" y="1325" on="0"/>
      </contour>
      <contour>
        <pt x="2987" y="930" on="1"/>
        <pt x="2987" y="900" on="0"/>
        <pt x="2953" y="868" on="1"/>
        <pt x="2923" y="837" on="0"/>
        <pt x="2905" y="837" on="1"/>
        <pt x="2863" y="837" on="0"/>
        <pt x="2814" y="867" on="1"/>
        <pt x="2762" y="899" on="0"/>
        <pt x="2762" y="930" on="1"/>
        <pt x="2762" y="963" on="0"/>
        <pt x="2799" y="999" on="1"/>
        <pt x="2833" y="1032" on="0"/>
        <pt x="2854" y="1032" on="1"/>
        <pt x="2893" y="1032" on="0"/>
        <pt x="2942" y="989" on="1"/>
        <pt x="2987" y="949" on="0"/>
      </contour>
      <contour>
        <pt x="4430" y="314" on="1"/>
        <pt x="4426" y="172" on="0"/>
        <pt x="4282" y="172" on="1"/>
        <pt x="4272" y="172" on="0"/>
        <pt x="4163" y="182" on="0"/>
        <pt x="4149" y="182" on="1"/>
        <pt x="4095" y="182" on="0"/>
        <pt x="3792" y="93" on="1"/>
        <pt x="3505" y="8" on="0"/>
        <pt x="3263" y="8" on="1"/>
        <pt x="3146" y="8" on="0"/>
        <pt x="3141" y="9" on="1"/>
        <pt x="3035" y="35" on="0"/>
        <pt x="2929" y="62" on="1"/>
        <pt x="2922" y="64" on="0"/>
        <pt x="2876" y="90" on="0"/>
        <pt x="2864" y="90" on="1"/>
        <pt x="2854" y="90" on="0"/>
        <pt x="2786" y="64" on="1"/>
        <pt x="2712" y="35" on="0"/>
        <pt x="2686" y="31" on="1"/>
        <pt x="2609" y="18" on="0"/>
        <pt x="2516" y="18" on="1"/>
        <pt x="2423" y="18" on="0"/>
        <pt x="2417" y="21" on="1"/>
        <pt x="2381" y="37" on="0"/>
        <pt x="2328" y="102" on="1"/>
        <pt x="2281" y="161" on="0"/>
        <pt x="2270" y="161" on="1"/>
        <pt x="2258" y="161" on="0"/>
        <pt x="2210" y="127" on="1"/>
        <pt x="2151" y="85" on="0"/>
        <pt x="2124" y="72" on="1"/>
        <pt x="2082" y="53" on="0"/>
        <pt x="1925" y="16" on="1"/>
        <pt x="1757" y="-22" on="0"/>
        <pt x="1697" y="-22" on="1"/>
        <pt x="1684" y="-22" on="0"/>
        <pt x="1326" y="-12" on="0"/>
        <pt x="1313" y="-12" on="1"/>
        <pt x="1303" y="-12" on="0"/>
        <pt x="1195" y="-22" on="0"/>
        <pt x="1180" y="-22" on="1"/>
        <pt x="1168" y="-22" on="0"/>
        <pt x="1078" y="-43" on="0"/>
        <pt x="1067" y="-43" on="1"/>
        <pt x="936" y="-43" on="0"/>
        <pt x="861" y="-30" on="1"/>
        <pt x="805" y="-20" on="0"/>
        <pt x="777" y="-12" on="1"/>
        <pt x="720" y="4" on="0"/>
        <pt x="688" y="32" on="1"/>
        <pt x="634" y="78" on="0"/>
        <pt x="610" y="179" on="1"/>
        <pt x="602" y="215" on="0"/>
        <pt x="587" y="340" on="1"/>
        <pt x="572" y="469" on="0"/>
        <pt x="546" y="729" on="1"/>
        <pt x="543" y="770" on="0"/>
        <pt x="525" y="895" on="1"/>
        <pt x="509" y="1012" on="0"/>
        <pt x="509" y="1022" on="1"/>
        <pt x="509" y="1104" on="0"/>
        <pt x="577" y="1144" on="1"/>
        <pt x="623" y="1057" on="0"/>
        <pt x="634" y="879" on="1"/>
        <pt x="647" y="691" on="0"/>
        <pt x="669" y="640" on="1"/>
        <pt x="665" y="618" on="0"/>
        <pt x="665" y="578" on="1"/>
        <pt x="669" y="562" on="0"/>
        <pt x="688" y="374" on="1"/>
        <pt x="699" y="254" on="0"/>
        <pt x="792" y="148" on="0"/>
        <pt x="855" y="136" on="1"/>
        <pt x="878" y="131" on="0"/>
        <pt x="960" y="131" on="1"/>
        <pt x="1205" y="131" on="0"/>
        <pt x="1205" y="300" on="1"/>
        <pt x="1205" y="383" on="0"/>
        <pt x="1183" y="497" on="1"/>
        <pt x="1167" y="572" on="0"/>
        <pt x="1150" y="647" on="1"/>
        <pt x="1141" y="755" on="0"/>
        <pt x="1109" y="964" on="1"/>
        <pt x="1106" y="978" on="0"/>
        <pt x="1083" y="1021" on="1"/>
        <pt x="1062" y="1059" on="0"/>
        <pt x="1062" y="1073" on="1"/>
        <pt x="1062" y="1173" on="0"/>
        <pt x="1148" y="1257" on="1"/>
        <pt x="1179" y="1239" on="0"/>
        <pt x="1185" y="1207" on="1"/>
        <pt x="1195" y="1157" on="0"/>
        <pt x="1197" y="1152" on="1"/>
        <pt x="1204" y="1138" on="0"/>
        <pt x="1242" y="1108" on="1"/>
        <pt x="1277" y="1080" on="0"/>
        <pt x="1277" y="1067" on="1"/>
        <pt x="1277" y="1055" on="0"/>
        <pt x="1262" y="1025" on="1"/>
        <pt x="1242" y="985" on="0"/>
        <pt x="1238" y="974" on="1"/>
        <pt x="1236" y="967" on="0"/>
        <pt x="1236" y="914" on="1"/>
        <pt x="1236" y="904" on="0"/>
        <pt x="1259" y="780" on="1"/>
        <pt x="1285" y="636" on="0"/>
        <pt x="1294" y="577" on="1"/>
        <pt x="1304" y="499" on="0"/>
        <pt x="1304" y="294" on="1"/>
        <pt x="1493" y="440" on="0"/>
        <pt x="1508" y="451" on="1"/>
        <pt x="1624" y="530" on="0"/>
        <pt x="1697" y="530" on="1"/>
        <pt x="1754" y="530" on="0"/>
        <pt x="1838" y="487" on="1"/>
        <pt x="1932" y="438" on="0"/>
        <pt x="1932" y="387" on="1"/>
        <pt x="1932" y="303" on="0"/>
        <pt x="1840" y="157" on="1"/>
        <pt x="1857" y="141" on="1"/>
        <pt x="1972" y="170" on="0"/>
        <pt x="2087" y="199" on="1"/>
        <pt x="2223" y="244" on="0"/>
        <pt x="2304" y="365" on="1"/>
        <pt x="2351" y="365" on="1"/>
        <pt x="2348" y="343" on="0"/>
        <pt x="2348" y="324" on="1"/>
        <pt x="2348" y="228" on="0"/>
        <pt x="2410" y="195" on="1"/>
        <pt x="2454" y="172" on="0"/>
        <pt x="2562" y="172" on="1"/>
        <pt x="2703" y="172" on="0"/>
        <pt x="2738" y="211" on="1"/>
        <pt x="2747" y="233" on="0"/>
        <pt x="2747" y="259" on="1"/>
        <pt x="2747" y="264" on="0"/>
        <pt x="2736" y="297" on="1"/>
        <pt x="2726" y="326" on="0"/>
        <pt x="2731" y="342" on="1"/>
        <pt x="2828" y="643" on="0"/>
        <pt x="2981" y="643" on="1"/>
        <pt x="3066" y="643" on="0"/>
        <pt x="3113" y="556" on="1"/>
        <pt x="3151" y="489" on="0"/>
        <pt x="3151" y="418" on="1"/>
        <pt x="3151" y="380" on="0"/>
        <pt x="3109" y="242" on="0"/>
        <pt x="3089" y="208" on="1"/>
        <pt x="3144" y="161" on="0"/>
        <pt x="3315" y="161" on="1"/>
        <pt x="3593" y="161" on="0"/>
        <pt x="3827" y="260" on="1"/>
        <pt x="3752" y="346" on="0"/>
        <pt x="3652" y="346" on="1"/>
        <pt x="3644" y="346" on="0"/>
        <pt x="3571" y="336" on="1"/>
        <pt x="3482" y="324" on="0"/>
        <pt x="3397" y="317" on="1"/>
        <pt x="3406" y="398" on="0"/>
        <pt x="3496" y="478" on="1"/>
        <pt x="3579" y="551" on="0"/>
        <pt x="3637" y="551" on="1"/>
        <pt x="3674" y="551" on="0"/>
        <pt x="3823" y="478" on="1"/>
        <pt x="3900" y="438" on="0"/>
        <pt x="3977" y="399" on="1"/>
        <pt x="4036" y="370" on="0"/>
        <pt x="4159" y="338" on="1"/>
        <pt x="4228" y="338" on="0"/>
        <pt x="4297" y="338" on="1"/>
        <pt x="4386" y="336" on="0"/>
      </contour>
      <contour>
        <pt x="1420" y="1784" on="1"/>
        <pt x="1420" y="1736" on="0"/>
        <pt x="1377" y="1710" on="1"/>
        <pt x="1359" y="1700" on="0"/>
        <pt x="1209" y="1629" on="1"/>
        <pt x="1105" y="1580" on="0"/>
        <pt x="1038" y="1524" on="1"/>
        <pt x="1003" y="1524" on="1"/>
        <pt x="990" y="1537" on="0"/>
        <pt x="990" y="1559" on="1"/>
        <pt x="990" y="1625" on="0"/>
        <pt x="1170" y="1720" on="1"/>
        <pt x="1280" y="1777" on="0"/>
        <pt x="1373" y="1810" on="1"/>
        <pt x="1408" y="1810" on="1"/>
        <pt x="1420" y="1808" on="0"/>
      </contour>
      <contour>
        <pt x="3243" y="-160" on="1"/>
        <pt x="3243" y="-208" on="0"/>
        <pt x="3209" y="-224" on="1"/>
        <pt x="3089" y="-282" on="0"/>
        <pt x="2715" y="-432" on="1"/>
        <pt x="2701" y="-420" on="0"/>
        <pt x="2691" y="-420" on="1"/>
        <pt x="2691" y="-376" on="1"/>
        <pt x="2690" y="-340" on="0"/>
        <pt x="2723" y="-323" on="1"/>
        <pt x="2843" y="-265" on="0"/>
        <pt x="3196" y="-126" on="1"/>
        <pt x="3231" y="-126" on="1"/>
        <pt x="3231" y="-129" on="0"/>
        <pt x="3243" y="-146" on="0"/>
      </contour>
      <contour>
        <pt x="1717" y="848" on="1"/>
        <pt x="1717" y="820" on="0"/>
        <pt x="1635" y="745" on="0"/>
        <pt x="1615" y="745" on="1"/>
        <pt x="1582" y="745" on="0"/>
        <pt x="1481" y="823" on="0"/>
        <pt x="1481" y="842" on="1"/>
        <pt x="1481" y="861" on="0"/>
        <pt x="1555" y="940" on="0"/>
        <pt x="1579" y="940" on="1"/>
        <pt x="1605" y="940" on="0"/>
        <pt x="1717" y="867" on="0"/>
      </contour>
      <contour>
        <pt x="1195" y="1463" on="1"/>
        <pt x="815" y="1278" on="0"/>
        <pt x="800" y="1279" on="1"/>
        <pt x="745" y="1279" on="1"/>
        <pt x="745" y="1333" on="1"/>
        <pt x="745" y="1364" on="0"/>
        <pt x="864" y="1413" on="1"/>
        <pt x="938" y="1443" on="0"/>
        <pt x="1014" y="1474" on="1"/>
        <pt x="1114" y="1534" on="0"/>
        <pt x="1140" y="1534" on="1"/>
        <pt x="1182" y="1534" on="1"/>
        <pt x="1195" y="1520" on="1"/>
      </contour>
      <contour>
        <pt x="2495" y="-280" on="1"/>
        <pt x="2498" y="-312" on="0"/>
        <pt x="2471" y="-355" on="1"/>
        <pt x="2441" y="-401" on="0"/>
        <pt x="2408" y="-401" on="1"/>
        <pt x="2396" y="-401" on="0"/>
        <pt x="2293" y="-350" on="0"/>
        <pt x="2280" y="-350" on="1"/>
        <pt x="2268" y="-350" on="0"/>
        <pt x="2201" y="-412" on="0"/>
        <pt x="2188" y="-412" on="1"/>
        <pt x="2160" y="-412" on="0"/>
        <pt x="2098" y="-375" on="1"/>
        <pt x="2034" y="-337" on="0"/>
        <pt x="2034" y="-314" on="1"/>
        <pt x="2034" y="-294" on="0"/>
        <pt x="2070" y="-252" on="1"/>
        <pt x="2106" y="-207" on="0"/>
        <pt x="2132" y="-207" on="1"/>
        <pt x="2145" y="-207" on="0"/>
        <pt x="2237" y="-268" on="0"/>
        <pt x="2250" y="-268" on="1"/>
        <pt x="2260" y="-268" on="0"/>
        <pt x="2339" y="-196" on="0"/>
        <pt x="2352" y="-196" on="1"/>
        <pt x="2379" y="-196" on="0"/>
      </contour>
      <contour>
        <pt x="3049" y="366" on="1"/>
        <pt x="3049" y="389" on="0"/>
        <pt x="3021" y="436" on="1"/>
        <pt x="2990" y="489" on="0"/>
        <pt x="2961" y="489" on="1"/>
        <pt x="2921" y="489" on="0"/>
        <pt x="2875" y="435" on="1"/>
        <pt x="2833" y="385" on="0"/>
        <pt x="2833" y="356" on="1"/>
        <pt x="2833" y="330" on="0"/>
        <pt x="2890" y="274" on="0"/>
        <pt x="2920" y="274" on="1"/>
        <pt x="3049" y="321" on="0"/>
      </contour>
      <contour>
        <pt x="1788" y="287" on="1"/>
        <pt x="1788" y="324" on="1"/>
        <pt x="1680" y="366" on="0"/>
        <pt x="1635" y="366" on="1"/>
        <pt x="1577" y="366" on="0"/>
        <pt x="1476" y="288" on="1"/>
        <pt x="1403" y="225" on="0"/>
        <pt x="1328" y="164" on="1"/>
        <pt x="1435" y="164" on="1"/>
        <pt x="1461" y="161" on="0"/>
        <pt x="1672" y="215" on="1"/>
        <pt x="1698" y="222" on="0"/>
        <pt x="1734" y="248" on="1"/>
        <pt x="1761" y="267" on="0"/>
      </contour>
    </TTGlyph>
    <TTGlyph name="uniE000" xMin="0" yMin="0" xMax="1845" yMax="1845">
      <contour>
        <pt x="0" y="1845" on="1"/>
        <pt x="1845" y="1845" on="1"/>
        <pt x="1845" y="0" on="1"/>
        <pt x="0" y="0" on="1"/>
      </contour>
    </TTGlyph>
    <TTGlyph name="uniFB51" xMin="240" yMin="-379" xMax="1745" yMax="1423">
      <contour>
        <pt x="1642" y="1375" on="1"/>
        <pt x="1642" y="1338" on="0"/>
        <pt x="1445" y="1230" on="1"/>
        <pt x="1190" y="1091" on="0"/>
        <pt x="1168" y="1076" on="1"/>
        <pt x="1134" y="1076" on="1"/>
        <pt x="1110" y="1099" on="0"/>
        <pt x="1110" y="1111" on="1"/>
        <pt x="1110" y="1147" on="0"/>
        <pt x="1136" y="1162" on="1"/>
        <pt x="1552" y="1423" on="0"/>
        <pt x="1602" y="1423" on="1"/>
        <pt x="1616" y="1423" on="0"/>
        <pt x="1638" y="1411" on="0"/>
        <pt x="1642" y="1411" on="1"/>
      </contour>
      <contour>
        <pt x="1653" y="1034" on="1"/>
        <pt x="1653" y="984" on="0"/>
        <pt x="1615" y="936" on="1"/>
        <pt x="1580" y="891" on="0"/>
        <pt x="1547" y="883" on="1"/>
        <pt x="1528" y="883" on="0"/>
        <pt x="1492" y="881" on="1"/>
        <pt x="1476" y="881" on="0"/>
        <pt x="1455" y="873" on="0"/>
        <pt x="1408" y="849" on="1"/>
        <pt x="1370" y="829" on="0"/>
        <pt x="1356" y="829" on="1"/>
        <pt x="1330" y="829" on="0"/>
        <pt x="1284" y="872" on="1"/>
        <pt x="1289" y="917" on="0"/>
        <pt x="1292" y="961" on="1"/>
        <pt x="1304" y="1022" on="0"/>
        <pt x="1351" y="1044" on="1"/>
        <pt x="1370" y="1036" on="0"/>
        <pt x="1373" y="1006" on="1"/>
        <pt x="1373" y="981" on="0"/>
        <pt x="1373" y="958" on="1"/>
        <pt x="1373" y="949" on="0"/>
        <pt x="1375" y="940" on="1"/>
        <pt x="1380" y="940" on="0"/>
        <pt x="1405" y="931" on="0"/>
        <pt x="1410" y="931" on="1"/>
        <pt x="1415" y="937" on="0"/>
        <pt x="1445" y="1010" on="1"/>
        <pt x="1464" y="1056" on="0"/>
        <pt x="1507" y="1064" on="1"/>
        <pt x="1518" y="1033" on="0"/>
        <pt x="1538" y="972" on="1"/>
        <pt x="1561" y="974" on="0"/>
        <pt x="1593" y="1081" on="0"/>
        <pt x="1640" y="1095" on="1"/>
        <pt x="1653" y="1067" on="0"/>
      </contour>
      <contour>
        <pt x="722" y="588" on="1"/>
        <pt x="722" y="555" on="0"/>
        <pt x="676" y="492" on="0"/>
        <pt x="645" y="492" on="1"/>
        <pt x="614" y="492" on="0"/>
        <pt x="563" y="528" on="1"/>
        <pt x="506" y="568" on="0"/>
        <pt x="506" y="604" on="1"/>
        <pt x="506" y="635" on="0"/>
        <pt x="539" y="672" on="1"/>
        <pt x="569" y="706" on="0"/>
        <pt x="588" y="706" on="1"/>
        <pt x="596" y="706" on="0"/>
        <pt x="716" y="632" on="1"/>
        <pt x="717" y="631" on="0"/>
        <pt x="718" y="630" on="1"/>
        <pt x="722" y="618" on="0"/>
      </contour>
      <contour>
        <pt x="1745" y="261" on="1"/>
        <pt x="1745" y="133" on="0"/>
        <pt x="1642" y="133" on="1"/>
        <pt x="1551" y="133" on="0"/>
        <pt x="1461" y="177" on="1"/>
        <pt x="1455" y="180" on="0"/>
        <pt x="1437" y="200" on="1"/>
        <pt x="1422" y="215" on="0"/>
        <pt x="1407" y="215" on="1"/>
        <pt x="1394" y="215" on="0"/>
        <pt x="1357" y="180" on="1"/>
        <pt x="1308" y="136" on="0"/>
        <pt x="1293" y="126" on="1"/>
        <pt x="1266" y="110" on="0"/>
        <pt x="1210" y="99" on="1"/>
        <pt x="1139" y="86" on="0"/>
        <pt x="1094" y="70" on="0"/>
        <pt x="1090" y="20" on="1"/>
        <pt x="1088" y="-13" on="0"/>
        <pt x="1086" y="-47" on="1"/>
        <pt x="1058" y="-136" on="0"/>
        <pt x="1003" y="-222" on="1"/>
        <pt x="961" y="-289" on="0"/>
        <pt x="814" y="-337" on="1"/>
        <pt x="688" y="-379" on="0"/>
        <pt x="593" y="-379" on="1"/>
        <pt x="437" y="-379" on="0"/>
        <pt x="240" y="-189" on="0"/>
        <pt x="240" y="-40" on="1"/>
        <pt x="240" y="13" on="0"/>
        <pt x="286" y="111" on="1"/>
        <pt x="335" y="215" on="0"/>
        <pt x="379" y="225" on="1"/>
        <pt x="404" y="212" on="0"/>
        <pt x="404" y="184" on="1"/>
        <pt x="404" y="174" on="0"/>
        <pt x="342" y="13" on="0"/>
        <pt x="342" y="0" on="1"/>
        <pt x="342" y="-108" on="0"/>
        <pt x="469" y="-170" on="1"/>
        <pt x="561" y="-215" on="0"/>
        <pt x="650" y="-215" on="1"/>
        <pt x="727" y="-215" on="0"/>
        <pt x="849" y="-170" on="1"/>
        <pt x="998" y="-114" on="0"/>
        <pt x="998" y="-45" on="1"/>
        <pt x="998" y="10" on="0"/>
        <pt x="954" y="136" on="1"/>
        <pt x="944" y="163" on="0"/>
        <pt x="907" y="222" on="1"/>
        <pt x="875" y="274" on="0"/>
        <pt x="875" y="287" on="1"/>
        <pt x="875" y="308" on="0"/>
        <pt x="930" y="388" on="1"/>
        <pt x="963" y="378" on="0"/>
        <pt x="1020" y="305" on="1"/>
        <pt x="1058" y="256" on="0"/>
        <pt x="1167" y="256" on="1"/>
        <pt x="1262" y="256" on="0"/>
        <pt x="1297" y="278" on="1"/>
        <pt x="1339" y="306" on="0"/>
        <pt x="1422" y="428" on="1"/>
        <pt x="1495" y="536" on="0"/>
        <pt x="1565" y="559" on="1"/>
        <pt x="1575" y="563" on="0"/>
        <pt x="1640" y="563" on="1"/>
        <pt x="1651" y="551" on="0"/>
        <pt x="1670" y="529" on="1"/>
        <pt x="1745" y="274" on="0"/>
      </contour>
      <contour>
        <pt x="1592" y="333" on="1"/>
        <pt x="1579" y="360" on="0"/>
        <pt x="1546" y="410" on="1"/>
        <pt x="1528" y="397" on="0"/>
        <pt x="1501" y="376" on="1"/>
        <pt x="1501" y="339" on="1"/>
        <pt x="1525" y="339" on="0"/>
        <pt x="1577" y="307" on="1"/>
        <pt x="1586" y="316" on="0"/>
      </contour>
    </TTGlyph>
    <TTGlyph name="uniFB52" xMin="405" yMin="-850" xMax="2657" yMax="1669">
      <contour>
        <pt x="2657" y="1295" on="1"/>
        <pt x="2657" y="1279" on="0"/>
        <pt x="2613" y="1239" on="0"/>
        <pt x="2596" y="1239" on="1"/>
        <pt x="2587" y="1239" on="0"/>
        <pt x="2509" y="1290" on="1"/>
        <pt x="2462" y="1235" on="0"/>
        <pt x="2358" y="1140" on="1"/>
        <pt x="2273" y="1078" on="0"/>
        <pt x="2079" y="1013" on="1"/>
        <pt x="2063" y="1026" on="0"/>
        <pt x="2054" y="1026" on="1"/>
        <pt x="2079" y="1071" on="0"/>
        <pt x="2222" y="1167" on="1"/>
        <pt x="2371" y="1268" on="0"/>
        <pt x="2411" y="1325" on="1"/>
        <pt x="2391" y="1355" on="0"/>
        <pt x="2345" y="1395" on="1"/>
        <pt x="2319" y="1417" on="0"/>
        <pt x="2319" y="1454" on="1"/>
        <pt x="2319" y="1507" on="0"/>
        <pt x="2363" y="1583" on="1"/>
        <pt x="2414" y="1669" on="0"/>
        <pt x="2473" y="1669" on="1"/>
        <pt x="2540" y="1669" on="0"/>
        <pt x="2554" y="1552" on="1"/>
        <pt x="2555" y="1481" on="0"/>
        <pt x="2557" y="1410" on="1"/>
        <pt x="2657" y="1331" on="0"/>
      </contour>
      <contour>
        <pt x="2565" y="-281" on="1"/>
        <pt x="2565" y="-304" on="0"/>
        <pt x="2499" y="-379" on="0"/>
        <pt x="2478" y="-379" on="1"/>
        <pt x="2465" y="-379" on="0"/>
        <pt x="2378" y="-327" on="0"/>
        <pt x="2365" y="-327" on="1"/>
        <pt x="2356" y="-327" on="0"/>
        <pt x="2266" y="-399" on="0"/>
        <pt x="2253" y="-399" on="1"/>
        <pt x="2233" y="-399" on="0"/>
        <pt x="2125" y="-315" on="0"/>
        <pt x="2125" y="-297" on="1"/>
        <pt x="2125" y="-262" on="0"/>
        <pt x="2169" y="-231" on="1"/>
        <pt x="2206" y="-204" on="0"/>
        <pt x="2227" y="-204" on="1"/>
        <pt x="2238" y="-204" on="0"/>
        <pt x="2316" y="-245" on="0"/>
        <pt x="2329" y="-245" on="1"/>
        <pt x="2341" y="-245" on="0"/>
        <pt x="2429" y="-174" on="0"/>
        <pt x="2442" y="-174" on="1"/>
        <pt x="2471" y="-174" on="0"/>
        <pt x="2520" y="-224" on="1"/>
        <pt x="2565" y="-270" on="0"/>
      </contour>
      <contour>
        <pt x="2606" y="292" on="1"/>
        <pt x="2606" y="206" on="0"/>
        <pt x="2519" y="106" on="1"/>
        <pt x="2492" y="76" on="0"/>
        <pt x="2366" y="48" on="1"/>
        <pt x="2113" y="-10" on="0"/>
        <pt x="2048" y="-10" on="1"/>
        <pt x="1116" y="0" on="1"/>
        <pt x="969" y="16" on="0"/>
        <pt x="848" y="54" on="1"/>
        <pt x="839" y="57" on="0"/>
        <pt x="793" y="91" on="1"/>
        <pt x="752" y="123" on="0"/>
        <pt x="738" y="123" on="1"/>
        <pt x="647" y="123" on="0"/>
        <pt x="579" y="-68" on="1"/>
        <pt x="528" y="-214" on="0"/>
        <pt x="528" y="-286" on="1"/>
        <pt x="528" y="-487" on="0"/>
        <pt x="659" y="-584" on="1"/>
        <pt x="773" y="-668" on="0"/>
        <pt x="1014" y="-689" on="1"/>
        <pt x="1021" y="-690" on="0"/>
        <pt x="1050" y="-698" on="1"/>
        <pt x="1076" y="-706" on="0"/>
        <pt x="1091" y="-706" on="1"/>
        <pt x="1085" y="-706" on="0"/>
        <pt x="1517" y="-698" on="0"/>
        <pt x="1622" y="-698" on="1"/>
        <pt x="1619" y="-714" on="0"/>
        <pt x="1610" y="-734" on="1"/>
        <pt x="1478" y="-770" on="0"/>
        <pt x="1346" y="-806" on="1"/>
        <pt x="1187" y="-850" on="0"/>
        <pt x="1055" y="-850" on="1"/>
        <pt x="911" y="-850" on="0"/>
        <pt x="759" y="-804" on="1"/>
        <pt x="592" y="-754" on="0"/>
        <pt x="501" y="-675" on="1"/>
        <pt x="455" y="-634" on="0"/>
        <pt x="426" y="-512" on="1"/>
        <pt x="405" y="-416" on="0"/>
        <pt x="405" y="-343" on="1"/>
        <pt x="405" y="-46" on="0"/>
        <pt x="607" y="193" on="1"/>
        <pt x="641" y="233" on="0"/>
        <pt x="641" y="259" on="1"/>
        <pt x="568" y="307" on="0"/>
        <pt x="533" y="307" on="1"/>
        <pt x="521" y="307" on="0"/>
        <pt x="495" y="297" on="0"/>
        <pt x="479" y="297" on="1"/>
        <pt x="466" y="298" on="0"/>
        <pt x="466" y="322" on="1"/>
        <pt x="466" y="336" on="0"/>
        <pt x="489" y="374" on="1"/>
        <pt x="520" y="422" on="0"/>
        <pt x="521" y="423" on="1"/>
        <pt x="539" y="462" on="0"/>
        <pt x="641" y="495" on="1"/>
        <pt x="726" y="522" on="0"/>
        <pt x="774" y="522" on="1"/>
        <pt x="830" y="522" on="0"/>
        <pt x="912" y="467" on="1"/>
        <pt x="999" y="409" on="0"/>
        <pt x="999" y="358" on="1"/>
        <pt x="999" y="330" on="0"/>
        <pt x="976" y="288" on="1"/>
        <pt x="951" y="241" on="0"/>
        <pt x="917" y="220" on="1"/>
        <pt x="992" y="153" on="0"/>
        <pt x="1255" y="153" on="1"/>
        <pt x="1355" y="153" on="0"/>
        <pt x="1359" y="156" on="1"/>
        <pt x="1478" y="213" on="0"/>
        <pt x="1517" y="274" on="1"/>
        <pt x="1531" y="293" on="0"/>
        <pt x="1534" y="322" on="1"/>
        <pt x="1536" y="342" on="0"/>
        <pt x="1534" y="374" on="1"/>
        <pt x="1531" y="416" on="0"/>
        <pt x="1531" y="424" on="1"/>
        <pt x="1531" y="357" on="0"/>
        <pt x="1486" y="1059" on="1"/>
        <pt x="1484" y="1096" on="0"/>
        <pt x="1466" y="1185" on="1"/>
        <pt x="1449" y="1271" on="0"/>
        <pt x="1449" y="1280" on="1"/>
        <pt x="1449" y="1378" on="0"/>
        <pt x="1545" y="1474" on="1"/>
        <pt x="1581" y="1463" on="0"/>
        <pt x="1581" y="1415" on="1"/>
        <pt x="1579" y="1356" on="0"/>
        <pt x="1584" y="1349" on="1"/>
        <pt x="1606" y="1325" on="0"/>
        <pt x="1628" y="1299" on="1"/>
        <pt x="1653" y="1270" on="0"/>
        <pt x="1653" y="1254" on="1"/>
        <pt x="1653" y="1241" on="0"/>
        <pt x="1592" y="1103" on="0"/>
        <pt x="1592" y="1090" on="1"/>
        <pt x="1592" y="1079" on="0"/>
        <pt x="1599" y="1035" on="1"/>
        <pt x="1608" y="989" on="0"/>
        <pt x="1609" y="967" on="1"/>
        <pt x="1611" y="941" on="0"/>
        <pt x="1629" y="746" on="1"/>
        <pt x="1641" y="604" on="0"/>
        <pt x="1641" y="515" on="1"/>
        <pt x="1641" y="437" on="0"/>
        <pt x="1633" y="376" on="1"/>
        <pt x="1625" y="369" on="0"/>
        <pt x="1649" y="369" on="1"/>
        <pt x="1662" y="369" on="0"/>
        <pt x="1897" y="522" on="0"/>
        <pt x="1966" y="522" on="1"/>
        <pt x="2033" y="522" on="0"/>
        <pt x="2109" y="482" on="1"/>
        <pt x="2197" y="434" on="0"/>
        <pt x="2197" y="374" on="1"/>
        <pt x="2197" y="341" on="0"/>
        <pt x="2175" y="272" on="1"/>
        <pt x="2151" y="194" on="0"/>
        <pt x="2125" y="169" on="1"/>
        <pt x="2140" y="153" on="0"/>
        <pt x="2171" y="153" on="1"/>
        <pt x="2230" y="153" on="0"/>
        <pt x="2342" y="178" on="1"/>
        <pt x="2493" y="211" on="0"/>
        <pt x="2493" y="256" on="1"/>
        <pt x="2493" y="267" on="0"/>
        <pt x="2350" y="480" on="0"/>
        <pt x="2350" y="492" on="1"/>
        <pt x="2350" y="486" on="0"/>
        <pt x="2383" y="592" on="1"/>
        <pt x="2386" y="592" on="0"/>
        <pt x="2396" y="604" on="0"/>
        <pt x="2411" y="604" on="1"/>
        <pt x="2442" y="604" on="0"/>
        <pt x="2509" y="510" on="1"/>
        <pt x="2560" y="440" on="0"/>
        <pt x="2581" y="396" on="1"/>
        <pt x="2606" y="346" on="0"/>
      </contour>
      <contour>
        <pt x="1879" y="-127" on="1"/>
        <pt x="1879" y="-181" on="0"/>
        <pt x="1835" y="-201" on="1"/>
        <pt x="1468" y="-379" on="0"/>
        <pt x="1443" y="-378" on="1"/>
        <pt x="1388" y="-378" on="1"/>
        <pt x="1388" y="-344" on="1"/>
        <pt x="1388" y="-297" on="0"/>
        <pt x="1472" y="-253" on="1"/>
        <pt x="1524" y="-233" on="0"/>
        <pt x="1575" y="-212" on="1"/>
        <pt x="1674" y="-167" on="0"/>
        <pt x="1865" y="-92" on="1"/>
        <pt x="1879" y="-106" on="0"/>
      </contour>
      <contour>
        <pt x="1142" y="-127" on="1"/>
        <pt x="1142" y="-179" on="0"/>
        <pt x="922" y="-287" on="1"/>
        <pt x="778" y="-357" on="0"/>
        <pt x="666" y="-399" on="1"/>
        <pt x="651" y="-387" on="0"/>
        <pt x="641" y="-387" on="1"/>
        <pt x="641" y="-330" on="1"/>
        <pt x="699" y="-281" on="0"/>
        <pt x="852" y="-210" on="1"/>
        <pt x="1030" y="-126" on="0"/>
        <pt x="1084" y="-92" on="1"/>
        <pt x="1119" y="-92" on="1"/>
        <pt x="1142" y="-116" on="0"/>
      </contour>
      <contour>
        <pt x="2482" y="1467" on="1"/>
        <pt x="2471" y="1478" on="0"/>
        <pt x="2471" y="1525" on="1"/>
        <pt x="2434" y="1525" on="1"/>
        <pt x="2419" y="1494" on="0"/>
        <pt x="2455" y="1467" on="1"/>
        <pt x="2464" y="1465" on="0"/>
      </contour>
      <contour>
        <pt x="2084" y="292" on="1"/>
        <pt x="1957" y="369" on="0"/>
        <pt x="1915" y="369" on="1"/>
        <pt x="1872" y="369" on="0"/>
        <pt x="1743" y="289" on="1"/>
        <pt x="1630" y="220" on="0"/>
        <pt x="1582" y="178" on="1"/>
        <pt x="1669" y="164" on="1"/>
        <pt x="2001" y="206" on="0"/>
      </contour>
    </TTGlyph>
    <TTGlyph name="uniFB53" xMin="360" yMin="-473" xMax="4394" yMax="1635">
      <contour>
        <pt x="4394" y="1461" on="1"/>
        <pt x="4394" y="1375" on="0"/>
        <pt x="4299" y="1320" on="1"/>
        <pt x="4226" y="1278" on="0"/>
        <pt x="4158" y="1278" on="1"/>
        <pt x="4147" y="1278" on="0"/>
        <pt x="4115" y="1288" on="0"/>
        <pt x="4102" y="1288" on="1"/>
        <pt x="4088" y="1288" on="0"/>
        <pt x="4052" y="1256" on="1"/>
        <pt x="4012" y="1221" on="0"/>
        <pt x="3998" y="1217" on="1"/>
        <pt x="3984" y="1230" on="0"/>
        <pt x="3984" y="1252" on="1"/>
        <pt x="3984" y="1304" on="0"/>
        <pt x="4039" y="1368" on="1"/>
        <pt x="4050" y="1380" on="0"/>
        <pt x="4081" y="1387" on="1"/>
        <pt x="4117" y="1395" on="0"/>
        <pt x="4130" y="1402" on="1"/>
        <pt x="4155" y="1417" on="0"/>
        <pt x="4212" y="1498" on="1"/>
        <pt x="4257" y="1564" on="0"/>
        <pt x="4307" y="1564" on="1"/>
        <pt x="4394" y="1564" on="0"/>
      </contour>
      <contour>
        <pt x="4260" y="249" on="1"/>
        <pt x="4263" y="132" on="0"/>
        <pt x="4217" y="61" on="1"/>
        <pt x="4180" y="61" on="1"/>
        <pt x="4055" y="981" on="1"/>
        <pt x="4065" y="1017" on="0"/>
        <pt x="4074" y="1054" on="1"/>
        <pt x="4091" y="1103" on="0"/>
        <pt x="4145" y="1134" on="1"/>
      </contour>
      <contour>
        <pt x="3380" y="1564" on="1"/>
        <pt x="3380" y="1522" on="0"/>
        <pt x="3171" y="1402" on="1"/>
        <pt x="3008" y="1307" on="0"/>
        <pt x="2914" y="1267" on="1"/>
        <pt x="2900" y="1279" on="0"/>
        <pt x="2890" y="1279" on="1"/>
        <pt x="2890" y="1322" on="1"/>
        <pt x="2889" y="1343" on="0"/>
        <pt x="2913" y="1375" on="1"/>
        <pt x="3063" y="1454" on="0"/>
        <pt x="3355" y="1605" on="1"/>
        <pt x="3380" y="1580" on="0"/>
      </contour>
      <contour>
        <pt x="3360" y="1149" on="1"/>
        <pt x="3360" y="1124" on="0"/>
        <pt x="3335" y="1069" on="1"/>
        <pt x="3307" y="1005" on="0"/>
        <pt x="3239" y="984" on="0"/>
        <pt x="3162" y="957" on="1"/>
        <pt x="3071" y="919" on="0"/>
        <pt x="3073" y="919" on="1"/>
        <pt x="3039" y="919" on="0"/>
        <pt x="2991" y="958" on="0"/>
        <pt x="2991" y="981" on="1"/>
        <pt x="2991" y="1035" on="0"/>
        <pt x="3057" y="1124" on="1"/>
        <pt x="3064" y="1117" on="0"/>
        <pt x="3081" y="1081" on="1"/>
        <pt x="3094" y="1053" on="0"/>
        <pt x="3108" y="1053" on="1"/>
        <pt x="3122" y="1053" on="0"/>
        <pt x="3147" y="1094" on="1"/>
        <pt x="3185" y="1158" on="0"/>
        <pt x="3190" y="1165" on="1"/>
        <pt x="3210" y="1145" on="0"/>
        <pt x="3235" y="1093" on="1"/>
        <pt x="3259" y="1093" on="1"/>
        <pt x="3276" y="1148" on="0"/>
        <pt x="3301" y="1185" on="1"/>
        <pt x="3336" y="1185" on="1"/>
        <pt x="3360" y="1162" on="0"/>
      </contour>
      <contour>
        <pt x="3800" y="299" on="1"/>
        <pt x="3793" y="240" on="0"/>
        <pt x="3787" y="180" on="1"/>
        <pt x="3775" y="100" on="0"/>
        <pt x="3715" y="62" on="1"/>
        <pt x="3692" y="48" on="0"/>
        <pt x="3622" y="34" on="1"/>
        <pt x="3539" y="16" on="0"/>
        <pt x="3510" y="5" on="1"/>
        <pt x="3490" y="-3" on="0"/>
        <pt x="3468" y="-80" on="1"/>
        <pt x="3436" y="-194" on="0"/>
        <pt x="3344" y="-308" on="1"/>
        <pt x="3234" y="-444" on="0"/>
        <pt x="3120" y="-460" on="1"/>
        <pt x="3031" y="-473" on="0"/>
        <pt x="3001" y="-473" on="1"/>
        <pt x="2968" y="-473" on="0"/>
        <pt x="2738" y="-408" on="1"/>
        <pt x="2719" y="-394" on="0"/>
        <pt x="2705" y="-365" on="1"/>
        <pt x="2718" y="-348" on="1"/>
        <pt x="2746" y="-348" on="0"/>
        <pt x="2909" y="-371" on="0"/>
        <pt x="2919" y="-371" on="1"/>
        <pt x="3053" y="-371" on="0"/>
        <pt x="3190" y="-270" on="1"/>
        <pt x="3339" y="-162" on="0"/>
        <pt x="3401" y="2" on="1"/>
        <pt x="3353" y="39" on="0"/>
        <pt x="3305" y="75" on="1"/>
        <pt x="3278" y="101" on="0"/>
        <pt x="3278" y="152" on="1"/>
        <pt x="3278" y="184" on="0"/>
        <pt x="3297" y="211" on="1"/>
        <pt x="3314" y="233" on="0"/>
        <pt x="3329" y="233" on="1"/>
        <pt x="3342" y="233" on="0"/>
        <pt x="3364" y="216" on="1"/>
        <pt x="3389" y="197" on="0"/>
        <pt x="3397" y="195" on="1"/>
        <pt x="3468" y="172" on="0"/>
        <pt x="3518" y="172" on="1"/>
        <pt x="3697" y="172" on="0"/>
        <pt x="3697" y="243" on="1"/>
        <pt x="3697" y="255" on="0"/>
        <pt x="3679" y="347" on="1"/>
        <pt x="3658" y="453" on="0"/>
        <pt x="3652" y="494" on="1"/>
        <pt x="3633" y="627" on="0"/>
        <pt x="3608" y="894" on="1"/>
        <pt x="3606" y="918" on="0"/>
        <pt x="3564" y="1044" on="0"/>
        <pt x="3564" y="1058" on="1"/>
        <pt x="3564" y="1165" on="0"/>
        <pt x="3639" y="1257" on="1"/>
        <pt x="3676" y="1251" on="0"/>
        <pt x="3683" y="1204" on="1"/>
        <pt x="3686" y="1168" on="0"/>
        <pt x="3689" y="1132" on="1"/>
        <pt x="3699" y="1121" on="0"/>
        <pt x="3779" y="1072" on="1"/>
        <pt x="3779" y="1021" on="0"/>
        <pt x="3740" y="953" on="1"/>
        <pt x="3728" y="931" on="0"/>
        <pt x="3728" y="859" on="1"/>
      </contour>
      <contour>
        <pt x="2397" y="1094" on="1"/>
        <pt x="2397" y="1032" on="0"/>
        <pt x="2351" y="1032" on="1"/>
        <pt x="2336" y="1032" on="0"/>
        <pt x="2301" y="1055" on="1"/>
        <pt x="2252" y="1087" on="0"/>
        <pt x="2239" y="1094" on="1"/>
        <pt x="2200" y="1046" on="0"/>
        <pt x="2119" y="964" on="1"/>
        <pt x="2077" y="930" on="0"/>
        <pt x="1985" y="883" on="1"/>
        <pt x="1874" y="827" on="0"/>
        <pt x="1819" y="827" on="1"/>
        <pt x="1787" y="827" on="0"/>
        <pt x="1773" y="840" on="1"/>
        <pt x="1773" y="866" on="0"/>
        <pt x="1785" y="873" on="1"/>
        <pt x="1870" y="924" on="0"/>
        <pt x="1955" y="974" on="1"/>
        <pt x="2068" y="1041" on="0"/>
        <pt x="2142" y="1110" on="1"/>
        <pt x="2137" y="1132" on="0"/>
        <pt x="2091" y="1162" on="1"/>
        <pt x="2049" y="1189" on="0"/>
        <pt x="2049" y="1231" on="1"/>
        <pt x="2049" y="1304" on="0"/>
        <pt x="2171" y="1443" on="0"/>
        <pt x="2229" y="1441" on="1"/>
        <pt x="2265" y="1423" on="0"/>
        <pt x="2291" y="1304" on="1"/>
        <pt x="2299" y="1265" on="0"/>
        <pt x="2287" y="1222" on="1"/>
        <pt x="2288" y="1221" on="0"/>
        <pt x="2357" y="1160" on="1"/>
        <pt x="2397" y="1124" on="0"/>
      </contour>
      <contour>
        <pt x="1158" y="1605" on="1"/>
        <pt x="1158" y="1559" on="0"/>
        <pt x="941" y="1426" on="1"/>
        <pt x="797" y="1342" on="0"/>
        <pt x="653" y="1257" on="1"/>
        <pt x="618" y="1257" on="1"/>
        <pt x="606" y="1271" on="0"/>
        <pt x="606" y="1293" on="1"/>
        <pt x="606" y="1338" on="0"/>
        <pt x="621" y="1348" on="1"/>
        <pt x="702" y="1407" on="0"/>
        <pt x="852" y="1492" on="1"/>
        <pt x="1048" y="1602" on="0"/>
        <pt x="1101" y="1635" on="1"/>
        <pt x="1146" y="1635" on="1"/>
        <pt x="1146" y="1631" on="0"/>
        <pt x="1158" y="1620" on="0"/>
      </contour>
      <contour>
        <pt x="2909" y="295" on="1"/>
        <pt x="2909" y="283" on="0"/>
        <pt x="2900" y="229" on="1"/>
        <pt x="2888" y="167" on="0"/>
        <pt x="2885" y="135" on="1"/>
        <pt x="2884" y="127" on="0"/>
        <pt x="2852" y="84" on="1"/>
        <pt x="2782" y="59" on="0"/>
        <pt x="2730" y="59" on="1"/>
        <pt x="2717" y="59" on="0"/>
        <pt x="2579" y="131" on="0"/>
        <pt x="2566" y="131" on="1"/>
        <pt x="2555" y="131" on="0"/>
        <pt x="2517" y="93" on="1"/>
        <pt x="2472" y="47" on="0"/>
        <pt x="2446" y="32" on="1"/>
        <pt x="2404" y="8" on="0"/>
        <pt x="2336" y="8" on="1"/>
        <pt x="2323" y="8" on="0"/>
        <pt x="2170" y="49" on="0"/>
        <pt x="2157" y="49" on="1"/>
        <pt x="2128" y="49" on="0"/>
        <pt x="2052" y="33" on="1"/>
        <pt x="1955" y="11" on="0"/>
        <pt x="1913" y="-15" on="1"/>
        <pt x="1875" y="-40" on="0"/>
        <pt x="1840" y="-162" on="1"/>
        <pt x="1821" y="-231" on="0"/>
        <pt x="1596" y="-443" on="0"/>
        <pt x="1532" y="-449" on="1"/>
        <pt x="1413" y="-462" on="0"/>
        <pt x="1373" y="-462" on="1"/>
        <pt x="1275" y="-462" on="0"/>
        <pt x="1160" y="-428" on="1"/>
        <pt x="1155" y="-422" on="0"/>
        <pt x="1137" y="-396" on="1"/>
        <pt x="1155" y="-365" on="0"/>
        <pt x="1178" y="-365" on="1"/>
        <pt x="1187" y="-365" on="0"/>
        <pt x="1226" y="-380" on="0"/>
        <pt x="1235" y="-380" on="1"/>
        <pt x="1554" y="-380" on="0"/>
        <pt x="1773" y="-57" on="1"/>
        <pt x="1773" y="-30" on="1"/>
        <pt x="1761" y="-22" on="0"/>
        <pt x="1711" y="-22" on="1"/>
        <pt x="1621" y="-22" on="0"/>
        <pt x="1560" y="11" on="1"/>
        <pt x="1486" y="52" on="0"/>
        <pt x="1486" y="131" on="1"/>
        <pt x="1486" y="180" on="0"/>
        <pt x="1574" y="367" on="0"/>
        <pt x="1611" y="392" on="1"/>
        <pt x="1621" y="397" on="0"/>
        <pt x="1660" y="397" on="1"/>
        <pt x="1726" y="397" on="0"/>
        <pt x="1773" y="319" on="1"/>
        <pt x="1860" y="176" on="0"/>
        <pt x="1882" y="151" on="1"/>
        <pt x="2029" y="151" on="0"/>
        <pt x="2102" y="194" on="1"/>
        <pt x="2125" y="207" on="0"/>
        <pt x="2148" y="254" on="1"/>
        <pt x="2179" y="315" on="0"/>
        <pt x="2195" y="335" on="1"/>
        <pt x="2231" y="335" on="1"/>
        <pt x="2246" y="291" on="0"/>
        <pt x="2235" y="189" on="1"/>
        <pt x="2274" y="161" on="0"/>
        <pt x="2341" y="161" on="1"/>
        <pt x="2371" y="161" on="1"/>
        <pt x="2469" y="161" on="0"/>
        <pt x="2521" y="251" on="1"/>
        <pt x="2563" y="339" on="0"/>
        <pt x="2605" y="427" on="1"/>
        <pt x="2641" y="427" on="1"/>
        <pt x="2650" y="406" on="0"/>
        <pt x="2650" y="369" on="1"/>
        <pt x="2650" y="359" on="0"/>
        <pt x="2650" y="341" on="1"/>
        <pt x="2650" y="322" on="0"/>
        <pt x="2650" y="314" on="1"/>
        <pt x="2650" y="233" on="0"/>
        <pt x="2721" y="233" on="1"/>
        <pt x="2780" y="233" on="1"/>
        <pt x="2794" y="240" on="0"/>
        <pt x="2799" y="260" on="1"/>
        <pt x="2799" y="276" on="0"/>
        <pt x="2776" y="374" on="0"/>
        <pt x="2776" y="387" on="1"/>
        <pt x="2776" y="424" on="0"/>
        <pt x="2820" y="489" on="1"/>
        <pt x="2855" y="486" on="0"/>
        <pt x="2885" y="404" on="1"/>
        <pt x="2909" y="336" on="0"/>
      </contour>
      <contour>
        <pt x="1178" y="167" on="1"/>
        <pt x="1181" y="151" on="0"/>
        <pt x="1181" y="135" on="1"/>
        <pt x="1181" y="-14" on="0"/>
        <pt x="1001" y="-119" on="1"/>
        <pt x="852" y="-207" on="0"/>
        <pt x="718" y="-207" on="1"/>
        <pt x="636" y="-207" on="1"/>
        <pt x="639" y="-207" on="0"/>
        <pt x="480" y="-161" on="0"/>
        <pt x="417" y="-67" on="1"/>
        <pt x="360" y="18" on="0"/>
        <pt x="360" y="90" on="1"/>
        <pt x="360" y="161" on="0"/>
        <pt x="426" y="289" on="1"/>
        <pt x="490" y="412" on="0"/>
        <pt x="520" y="418" on="1"/>
        <pt x="534" y="407" on="0"/>
        <pt x="534" y="366" on="1"/>
        <pt x="534" y="354" on="0"/>
        <pt x="512" y="306" on="1"/>
        <pt x="489" y="251" on="0"/>
        <pt x="485" y="237" on="1"/>
        <pt x="483" y="228" on="0"/>
        <pt x="483" y="177" on="1"/>
        <pt x="483" y="-43" on="0"/>
        <pt x="743" y="-43" on="1"/>
        <pt x="815" y="-43" on="0"/>
        <pt x="824" y="-40" on="1"/>
        <pt x="1007" y="10" on="0"/>
        <pt x="1074" y="97" on="1"/>
        <pt x="1076" y="106" on="0"/>
        <pt x="1076" y="135" on="1"/>
        <pt x="913" y="1114" on="1"/>
        <pt x="943" y="1211" on="0"/>
        <pt x="987" y="1297" on="1"/>
        <pt x="1024" y="1297" on="1"/>
        <pt x="1025" y="1248" on="0"/>
        <pt x="1037" y="1161" on="1"/>
        <pt x="1043" y="1140" on="0"/>
        <pt x="1074" y="1121" on="1"/>
        <pt x="1101" y="1106" on="0"/>
        <pt x="1127" y="1091" on="1"/>
        <pt x="1107" y="1023" on="0"/>
        <pt x="1076" y="883" on="1"/>
      </contour>
      <contour>
        <pt x="4290" y="1442" on="1"/>
        <pt x="4268" y="1442" on="1"/>
        <pt x="4259" y="1442" on="0"/>
        <pt x="4231" y="1410" on="0"/>
        <pt x="4231" y="1402" on="1"/>
        <pt x="4268" y="1402" on="1"/>
        <pt x="4290" y="1422" on="0"/>
      </contour>
      <contour>
        <pt x="2190" y="1248" on="1"/>
        <pt x="2206" y="1280" on="0"/>
        <pt x="2178" y="1308" on="1"/>
        <pt x="2152" y="1295" on="1"/>
        <pt x="2152" y="1280" on="0"/>
        <pt x="2182" y="1247" on="0"/>
      </contour>
      <contour>
        <pt x="1699" y="152" on="1"/>
        <pt x="1687" y="225" on="0"/>
        <pt x="1633" y="233" on="1"/>
        <pt x="1599" y="199" on="0"/>
        <pt x="1599" y="185" on="1"/>
        <pt x="1632" y="152" on="0"/>
        <pt x="1646" y="152" on="1"/>
      </contour>
    </TTGlyph>
    <TTGlyph name="uniFB54" xMin="308" yMin="-57" xMax="2601" yMax="1611">
      <contour>
        <pt x="2539" y="1554" on="1"/>
        <pt x="2540" y="1523" on="0"/>
        <pt x="2347" y="1419" on="1"/>
        <pt x="2211" y="1347" on="0"/>
        <pt x="2075" y="1275" on="1"/>
        <pt x="2028" y="1275" on="1"/>
        <pt x="2028" y="1332" on="1"/>
        <pt x="2090" y="1402" on="0"/>
        <pt x="2514" y="1611" on="1"/>
        <pt x="2529" y="1600" on="0"/>
        <pt x="2539" y="1600" on="1"/>
      </contour>
      <contour>
        <pt x="2355" y="1028" on="1"/>
        <pt x="2355" y="999" on="0"/>
        <pt x="2315" y="960" on="1"/>
        <pt x="2280" y="926" on="0"/>
        <pt x="2268" y="926" on="1"/>
        <pt x="2240" y="926" on="0"/>
        <pt x="2184" y="960" on="1"/>
        <pt x="2120" y="999" on="0"/>
        <pt x="2120" y="1033" on="1"/>
        <pt x="2120" y="1050" on="0"/>
        <pt x="2199" y="1130" on="0"/>
        <pt x="2218" y="1130" on="1"/>
        <pt x="2245" y="1130" on="0"/>
        <pt x="2301" y="1086" on="1"/>
        <pt x="2355" y="1044" on="0"/>
      </contour>
      <contour>
        <pt x="1884" y="1545" on="1"/>
        <pt x="1884" y="1505" on="0"/>
        <pt x="1652" y="1383" on="1"/>
        <pt x="1430" y="1266" on="0"/>
        <pt x="1313" y="1234" on="1"/>
        <pt x="1313" y="1237" on="0"/>
        <pt x="1301" y="1253" on="0"/>
        <pt x="1301" y="1268" on="1"/>
        <pt x="1301" y="1325" on="0"/>
        <pt x="1402" y="1374" on="1"/>
        <pt x="1461" y="1397" on="0"/>
        <pt x="1519" y="1419" on="1"/>
        <pt x="1559" y="1437" on="0"/>
        <pt x="1827" y="1570" on="1"/>
        <pt x="1872" y="1570" on="1"/>
        <pt x="1884" y="1569" on="0"/>
      </contour>
      <contour>
        <pt x="1823" y="972" on="1"/>
        <pt x="1823" y="933" on="0"/>
        <pt x="1779" y="895" on="1"/>
        <pt x="1743" y="864" on="0"/>
        <pt x="1731" y="864" on="1"/>
        <pt x="1720" y="864" on="0"/>
        <pt x="1647" y="915" on="0"/>
        <pt x="1629" y="915" on="1"/>
        <pt x="1615" y="915" on="0"/>
        <pt x="1529" y="833" on="0"/>
        <pt x="1516" y="833" on="1"/>
        <pt x="1483" y="833" on="0"/>
        <pt x="1435" y="873" on="1"/>
        <pt x="1393" y="908" on="0"/>
        <pt x="1393" y="920" on="1"/>
        <pt x="1393" y="939" on="0"/>
        <pt x="1462" y="1028" on="0"/>
        <pt x="1480" y="1028" on="1"/>
        <pt x="1493" y="1028" on="0"/>
        <pt x="1570" y="987" on="0"/>
        <pt x="1583" y="987" on="1"/>
        <pt x="1595" y="987" on="0"/>
        <pt x="1683" y="1069" on="0"/>
        <pt x="1695" y="1069" on="1"/>
        <pt x="1721" y="1069" on="0"/>
        <pt x="1770" y="1034" on="1"/>
        <pt x="1823" y="997" on="0"/>
      </contour>
      <contour>
        <pt x="1096" y="1356" on="1"/>
        <pt x="1096" y="1293" on="0"/>
        <pt x="940" y="1211" on="1"/>
        <pt x="804" y="1140" on="0"/>
        <pt x="772" y="1141" on="1"/>
        <pt x="688" y="1141" on="1"/>
        <pt x="688" y="1179" on="1"/>
        <pt x="767" y="1219" on="0"/>
        <pt x="902" y="1300" on="1"/>
        <pt x="885" y="1325" on="0"/>
        <pt x="825" y="1325" on="1"/>
        <pt x="809" y="1325" on="0"/>
        <pt x="763" y="1297" on="1"/>
        <pt x="699" y="1257" on="0"/>
        <pt x="691" y="1253" on="1"/>
        <pt x="677" y="1267" on="0"/>
        <pt x="677" y="1284" on="1"/>
        <pt x="677" y="1335" on="0"/>
        <pt x="752" y="1394" on="1"/>
        <pt x="822" y="1448" on="0"/>
        <pt x="861" y="1448" on="1"/>
        <pt x="923" y="1448" on="0"/>
        <pt x="1081" y="1391" on="1"/>
        <pt x="1096" y="1365" on="0"/>
      </contour>
      <contour>
        <pt x="2601" y="234" on="1"/>
        <pt x="2601" y="33" on="0"/>
        <pt x="2362" y="-20" on="1"/>
        <pt x="2239" y="-47" on="0"/>
        <pt x="2253" y="-47" on="1"/>
        <pt x="2100" y="-47" on="1"/>
        <pt x="1980" y="-47" on="0"/>
        <pt x="1775" y="17" on="1"/>
        <pt x="1769" y="19" on="0"/>
        <pt x="1746" y="34" on="1"/>
        <pt x="1727" y="45" on="0"/>
        <pt x="1715" y="45" on="1"/>
        <pt x="1703" y="45" on="0"/>
        <pt x="1421" y="-47" on="0"/>
        <pt x="1408" y="-47" on="1"/>
        <pt x="1398" y="-47" on="0"/>
        <pt x="1263" y="-57" on="0"/>
        <pt x="1250" y="-57" on="1"/>
        <pt x="1043" y="-57" on="0"/>
        <pt x="926" y="168" on="1"/>
        <pt x="894" y="129" on="0"/>
        <pt x="817" y="68" on="1"/>
        <pt x="758" y="41" on="0"/>
        <pt x="654" y="16" on="1"/>
        <pt x="564" y="-6" on="0"/>
        <pt x="538" y="-6" on="1"/>
        <pt x="469" y="-6" on="0"/>
        <pt x="399" y="17" on="1"/>
        <pt x="308" y="48" on="0"/>
        <pt x="308" y="102" on="1"/>
        <pt x="308" y="136" on="0"/>
        <pt x="355" y="209" on="0"/>
        <pt x="379" y="209" on="1"/>
        <pt x="392" y="209" on="0"/>
        <pt x="413" y="193" on="1"/>
        <pt x="437" y="174" on="0"/>
        <pt x="448" y="170" on="1"/>
        <pt x="482" y="157" on="0"/>
        <pt x="548" y="157" on="1"/>
        <pt x="664" y="157" on="0"/>
        <pt x="765" y="190" on="1"/>
        <pt x="904" y="235" on="0"/>
        <pt x="902" y="321" on="1"/>
        <pt x="840" y="695" on="1"/>
        <pt x="845" y="732" on="0"/>
        <pt x="850" y="768" on="1"/>
        <pt x="860" y="818" on="0"/>
        <pt x="885" y="833" on="1"/>
        <pt x="897" y="833" on="0"/>
        <pt x="917" y="800" on="1"/>
        <pt x="971" y="593" on="0"/>
        <pt x="1000" y="399" on="1"/>
        <pt x="1037" y="157" on="0"/>
        <pt x="1185" y="119" on="1"/>
        <pt x="1194" y="116" on="0"/>
        <pt x="1301" y="116" on="1"/>
        <pt x="1349" y="116" on="0"/>
        <pt x="1490" y="129" on="1"/>
        <pt x="1561" y="136" on="0"/>
        <pt x="1605" y="174" on="1"/>
        <pt x="1594" y="360" on="0"/>
        <pt x="1642" y="442" on="1"/>
        <pt x="1733" y="598" on="0"/>
        <pt x="1823" y="598" on="1"/>
        <pt x="1888" y="598" on="0"/>
        <pt x="1936" y="523" on="1"/>
        <pt x="1977" y="460" on="0"/>
        <pt x="1977" y="403" on="1"/>
        <pt x="1977" y="287" on="0"/>
        <pt x="1915" y="164" on="1"/>
        <pt x="1967" y="116" on="0"/>
        <pt x="2120" y="116" on="1"/>
        <pt x="2509" y="116" on="0"/>
        <pt x="2509" y="234" on="1"/>
        <pt x="2509" y="253" on="0"/>
        <pt x="2479" y="311" on="0"/>
        <pt x="2463" y="311" on="1"/>
        <pt x="2453" y="311" on="0"/>
        <pt x="2435" y="292" on="1"/>
        <pt x="2413" y="269" on="0"/>
        <pt x="2404" y="263" on="1"/>
        <pt x="2363" y="239" on="0"/>
        <pt x="2309" y="239" on="1"/>
        <pt x="2245" y="239" on="0"/>
        <pt x="2204" y="303" on="1"/>
        <pt x="2171" y="356" on="0"/>
        <pt x="2171" y="414" on="1"/>
        <pt x="2171" y="500" on="0"/>
        <pt x="2222" y="585" on="1"/>
        <pt x="2277" y="680" on="0"/>
        <pt x="2350" y="680" on="1"/>
        <pt x="2392" y="680" on="0"/>
        <pt x="2437" y="627" on="1"/>
        <pt x="2446" y="615" on="0"/>
        <pt x="2500" y="534" on="1"/>
        <pt x="2601" y="383" on="0"/>
      </contour>
      <contour>
        <pt x="2396" y="438" on="1"/>
        <pt x="2363" y="505" on="0"/>
        <pt x="2325" y="505" on="1"/>
        <pt x="2303" y="505" on="0"/>
        <pt x="2274" y="472" on="1"/>
        <pt x="2274" y="426" on="1"/>
        <pt x="2320" y="403" on="0"/>
        <pt x="2340" y="403" on="1"/>
        <pt x="2368" y="403" on="0"/>
      </contour>
      <contour>
        <pt x="1874" y="337" on="1"/>
        <pt x="1874" y="360" on="0"/>
        <pt x="1849" y="401" on="1"/>
        <pt x="1822" y="444" on="0"/>
        <pt x="1797" y="444" on="1"/>
        <pt x="1778" y="444" on="0"/>
        <pt x="1690" y="336" on="0"/>
        <pt x="1690" y="316" on="1"/>
        <pt x="1690" y="297" on="0"/>
        <pt x="1745" y="229" on="0"/>
        <pt x="1761" y="229" on="1"/>
        <pt x="1787" y="229" on="0"/>
        <pt x="1874" y="311" on="0"/>
      </contour>
    </TTGlyph>
</ttFont>
